<?xml version="1.0" standalone="no"?>
<!DOCTYPE svg PUBLIC "-//W3C//DTD SVG 1.1//EN" "http://www.w3.org/Graphics/SVG/1.1/DTD/svg11.dtd" >
<svg xmlns="http://www.w3.org/2000/svg">
<metadata></metadata>
<defs>
<font id="pt_monoregular" horiz-adv-x="1228" >
<font-face units-per-em="2048" ascent="1638" descent="-410" />
<missing-glyph horiz-adv-x="500" />
<glyph unicode="&#xd;" />
<glyph unicode=" " />
<glyph unicode="!" d="M496 94q0 55 31.5 87t84.5 32q55 0 88 -31.5t33 -87.5q0 -53 -32.5 -86t-88.5 -33q-53 0 -84.5 33t-31.5 86zM530 723v711h170v-711l-34 -361h-101z" />
<glyph unicode="&#x22;" d="M311 813v621h181l-64 -621h-117zM735 813v621h180l-63 -621h-117z" />
<glyph unicode="#" d="M61 461l29 131h203l63 268h-192l29 131h194l78 324h141l-78 -324h297l78 324h141l-77 -324h198l-32 -131h-197l-64 -268h191l-33 -131h-188l-80 -342h-141l79 342h-297l-79 -342h-142l80 342h-201zM434 592h297l64 268h-297z" />
<glyph unicode="$" d="M199 41l55 149q41 -25 111.5 -44t173.5 -23v553q-61 31 -122 65.5t-108 82.5t-75.5 114t-28.5 156q0 147 83 241.5t251 116.5v186h139v-180q104 -4 170.5 -19.5t120.5 -39.5l-49 -144q-41 20 -98.5 36t-143.5 20v-506q63 -33 126.5 -71t114 -87t81 -114.5t30.5 -153.5 q0 -160 -89 -263.5t-263 -131.5v-189h-139v180q-113 2 -200 19.5t-140 46.5zM375 1104q0 -88 56 -143.5t140 -100.5v449q-109 -12 -152.5 -71.5t-43.5 -133.5zM645 127q94 16 154.5 74t60.5 164q0 49 -17.5 88t-46 69.5t-67.5 55t-84 47.5v-498z" />
<glyph unicode="%" d="M57 1110q0 96 23.5 162.5t60.5 107.5t84 59.5t94 18.5t94.5 -16.5t84.5 -56t60.5 -106.5t23.5 -169q0 -100 -23.5 -166.5t-60.5 -106.5t-84 -56.5t-95 -16.5q-47 0 -94 16.5t-84 56.5t-60.5 106.5t-23.5 166.5zM193 25l712 1445l117 -59l-713 -1440zM201 1110 q0 -121 37.5 -169t80.5 -48q23 0 44.5 9t38 34t26.5 66.5t10 107.5q0 63 -10 105t-26.5 68t-38 36t-44.5 10q-47 0 -82.5 -48t-35.5 -171zM645 346q0 96 23.5 162.5t60.5 107.5t84 59.5t94 18.5t94.5 -16t84 -56t60 -106.5t23.5 -169.5q0 -100 -23.5 -166.5t-60 -106.5 t-84 -56.5t-94.5 -16.5t-94 16.5t-84 56.5t-60.5 106.5t-23.5 166.5zM788 346q0 -121 38 -169t81 -48q23 0 44.5 8t38 32t26.5 67t10 110q0 63 -10 105.5t-26.5 68t-38 35.5t-44.5 10t-44 -10t-37.5 -34.5t-27 -66.5t-10.5 -108z" />
<glyph unicode="&#x26;" d="M61 424q0 135 76 258t211 207q-49 74 -85 147.5t-36 159.5q0 49 16.5 96t52.5 84t92 59.5t136 22.5q84 0 141.5 -21.5t92.5 -56t50 -77.5t15 -89q0 -86 -66.5 -177t-209.5 -175q33 -59 77 -121.5t93 -124t100 -122t103 -111.5q23 33 40 80t28 98t16.5 102.5t5.5 94.5h145 q-6 -129 -41 -257t-102 -216q29 -35 65.5 -69t87.5 -66v-175q-109 53 -247 191q-37 -37 -75 -71t-85 -60.5t-107.5 -43t-140.5 -16.5q-84 0 -164 28t-143.5 83t-102.5 139t-39 199zM225 430q0 -80 30 -138.5t75 -97t99 -57t106 -18.5q102 0 170.5 46t115.5 103 q-59 59 -116.5 129t-109.5 139.5t-96 134t-75 113.5q-111 -84 -155 -170t-44 -184zM387 1196q0 -61 25.5 -121.5t66.5 -120.5q109 70 151 127.5t42 100.5q0 66 -32 106.5t-110 40.5q-74 0 -108.5 -37t-34.5 -96z" />
<glyph unicode="'" d="M535 813v621h180l-64 -621h-116z" />
<glyph unicode="(" d="M225 498q0 215 55.5 384t157 288.5t243.5 191.5t314 96l23 -133q-154 -33 -270.5 -92t-196.5 -157.5t-121 -240t-41 -337.5q0 -199 50 -343.5t138.5 -242.5t208 -152.5t258.5 -72.5l-28 -138q-180 20 -326.5 89t-249 187t-159 286t-56.5 387z" />
<glyph unicode=")" d="M225 1321l29 137q180 -20 326.5 -89t249 -187.5t158.5 -286.5t56 -385q0 -215 -56 -384t-157.5 -289t-243 -191.5t-313.5 -96.5l-22 134q154 33 270.5 92t196.5 157.5t121 239.5t41 338q0 199 -50.5 343t-138.5 242.5t-207.5 153t-259.5 72.5z" />
<glyph unicode="*" d="M125 907v166l405 -35l-235 344l141 80l182 -358l177 360l141 -75l-248 -347l416 31v-166l-404 33l238 -330l-137 -80l-191 367l-180 -367l-147 80l247 330z" />
<glyph unicode="+" d="M98 618v148h443v453h147v-453h442v-148h-442v-452h-147v452h-443z" />
<glyph unicode="," d="M461 -225q74 29 127 82t53 129q-29 -6 -45 -6q-59 0 -93 33.5t-34 99.5q0 61 40 99t103 38q78 0 121 -54.5t43 -152.5q0 -80 -26.5 -140.5t-66.5 -102.5t-86 -67.5t-85 -37.5z" />
<glyph unicode="-" d="M264 514v152h701v-152h-701z" />
<glyph unicode="." d="M477 113q0 66 37 101.5t98 35.5q66 0 103 -36t37 -101q0 -59 -37 -98.5t-103 -39.5q-61 0 -98 39.5t-37 98.5z" />
<glyph unicode="/" d="M176 -229l748 1687l129 -57l-748 -1688z" />
<glyph unicode="0" d="M113 717q0 174 30.5 312t92 233.5t155.5 145.5t223 50q137 0 232.5 -49t155 -143.5t86 -232.5t26.5 -316q0 -174 -30.5 -312.5t-92 -233.5t-156 -145.5t-223.5 -50.5q-135 0 -230 54.5t-155.5 153t-87 234.5t-26.5 300zM283 717q0 -51 3 -98.5t7 -92.5l610 553 q-35 111 -103.5 176.5t-185.5 65.5q-182 0 -256.5 -150.5t-74.5 -453.5zM326 369q35 -117 104.5 -186.5t181.5 -69.5q180 0 257 149.5t77 454.5q0 109 -12 207z" />
<glyph unicode="1" d="M174 1112l451 322h114v-1287h316v-147h-795v147h322v1078l-328 -230z" />
<glyph unicode="2" d="M160 0v147q39 37 106.5 96.5t145 132.5t158.5 156.5t146.5 172t106.5 176.5t41 170q0 123 -64.5 193.5t-193.5 70.5q-111 0 -186.5 -24.5t-136.5 -71.5l-70 112q92 66 195.5 96.5t226.5 30.5q193 0 291 -104.5t98 -282.5q0 -188 -178 -419.5t-498 -504.5h721v-147h-909z " />
<glyph unicode="3" d="M180 29l41 143q53 -25 125 -40t162 -15q82 0 150.5 21.5t119.5 60.5t80 94t29 123q0 141 -99.5 201.5t-267.5 60.5h-131v98l404 510h-613v148h809v-148l-403 -473h32q94 0 172 -26.5t135.5 -75.5t89.5 -119t32 -158q0 -111 -43 -196.5t-117 -144t-173.5 -88.5t-211.5 -30 q-104 0 -181 15.5t-141 38.5z" />
<glyph unicode="4" d="M90 446v119l686 869h135v-852h277v-136h-277v-446h-159v446h-662zM279 582h473v596z" />
<glyph unicode="5" d="M170 63l66 134q35 -20 106 -49t182 -29q78 0 143.5 19.5t111.5 59.5t72 99t26 139q0 147 -105.5 224t-288.5 77l-192 -10v707h702v-148h-549v-416l103 4q227 0 358 -110.5t131 -314.5q0 -115 -40 -203t-109.5 -148.5t-164.5 -91.5t-208 -31q-61 0 -116.5 9.5t-100.5 22.5 t-79 28.5t-48 27.5z" />
<glyph unicode="6" d="M125 479q0 193 56.5 365t157.5 303t241.5 213t308.5 98l29 -131q-129 -16 -237 -75.5t-187.5 -147.5t-130 -194.5t-64.5 -217.5q16 27 48 55.5t76 50t98 36t118 14.5q109 0 195 -30t146 -84t92 -131t32 -171q0 -88 -32 -170t-93 -145.5t-151.5 -102.5t-209.5 -39 q-111 0 -200.5 35t-155 99.5t-101.5 158.5t-36 211zM285 459q0 -61 20.5 -124t62.5 -112t105.5 -79.5t149.5 -30.5q70 0 127 24.5t99 65.5t64.5 96.5t22.5 116.5q0 143 -80 219t-246 76q-59 0 -110 -14.5t-92 -38t-72 -54.5t-47 -61q-4 -29 -4 -45.5v-38.5z" />
<glyph unicode="7" d="M141 1286v148h906v-134l-625 -1300h-168l627 1286h-740z" />
<glyph unicode="8" d="M154 348q0 248 301 400q-57 31 -106.5 63.5t-85.5 73.5t-56.5 94t-20.5 123q0 76 31 141.5t88 112.5t139 74.5t183 27.5q94 0 170.5 -24.5t131 -68.5t83 -103.5t28.5 -126.5q0 -117 -58 -214.5t-187 -177.5q59 -31 110 -65.5t89 -77.5t59.5 -97t21.5 -124 q0 -86 -30.5 -161t-91 -128t-148.5 -84t-205 -31q-109 0 -192.5 31t-140 82t-85 118.5t-28.5 141.5zM311 367q0 -51 19.5 -97.5t57.5 -81t94.5 -55t129.5 -20.5q59 0 113.5 16t96.5 48t66.5 80.5t24.5 111.5q0 59 -27.5 105t-73.5 83t-105.5 67.5t-122.5 61.5 q-147 -72 -210 -158t-63 -161zM346 1108q0 -57 26.5 -102t70.5 -81t101.5 -66t121.5 -58q109 72 163 143.5t54 157.5q0 51 -21.5 91t-57.5 68.5t-83 44t-98 15.5q-66 0 -117 -18.5t-86 -49t-54.5 -68.5t-19.5 -77z" />
<glyph unicode="9" d="M125 1001q0 94 30.5 177.5t93 145.5t155 98t214.5 36q115 0 205 -37t152.5 -103.5t95.5 -161.5t33 -212q0 -229 -57.5 -403t-160 -295t-242.5 -188.5t-304 -82.5l-31 129q135 14 241.5 65.5t184.5 131.5t127 184.5t68 223.5q-33 -35 -67 -58.5t-74.5 -38t-90 -20.5 t-112.5 -6q-94 0 -178 28.5t-146.5 83t-99.5 131t-37 172.5zM293 1018q0 -147 89 -221t236 -74q117 0 202 36t120 89q4 29 4 46v40q0 72 -19.5 141.5t-60.5 124.5t-105.5 89t-154.5 34q-147 0 -229 -80t-82 -225z" />
<glyph unicode=":" d="M477 113q0 66 37 101.5t98 35.5q66 0 103 -36t37 -101q0 -59 -37 -98.5t-103 -39.5q-61 0 -98 39.5t-37 98.5zM477 918q0 66 37 101.5t98 35.5q66 0 103 -36t37 -101q0 -59 -37 -98.5t-103 -39.5q-61 0 -98 39.5t-37 98.5z" />
<glyph unicode=";" d="M461 -225q74 29 127 82t53 129q-29 -6 -45 -6q-59 0 -93 33.5t-34 99.5q0 61 40 99t103 38q78 0 121 -54.5t43 -152.5q0 -80 -26.5 -140.5t-66.5 -102.5t-86 -67.5t-85 -37.5zM487 918q0 66 37 101.5t98 35.5q66 0 103 -36t37 -101q0 -59 -37 -98.5t-103 -39.5 q-61 0 -98 39.5t-37 98.5z" />
<glyph unicode="&#x3c;" d="M92 625v59l965 588l78 -127l-813 -481l815 -474l-78 -122z" />
<glyph unicode="=" d="M139 450v148h951v-148h-951zM139 788v148h951v-148h-951z" />
<glyph unicode="&#x3e;" d="M92 190l815 474l-813 481l78 127l965 -588v-59l-967 -557z" />
<glyph unicode="?" d="M111 1241q86 109 222 163t312 54q106 0 186 -34.5t132.5 -89t78 -121t25.5 -130.5q0 -98 -34 -164.5t-85 -118.5t-109.5 -94t-109.5 -90.5t-85 -107.5t-34 -146h-135q-2 10 -2 22.5v23.5q0 86 32 147t79 109.5t101 87.5t101.5 83t79 97t31.5 127q0 39 -18.5 84t-56.5 84 t-98 63.5t-144 24.5q-68 0 -122.5 -16.5t-98.5 -41t-79.5 -54t-64.5 -56.5zM434 94q0 55 32 87t85 32q55 0 88 -31.5t33 -87.5q0 -53 -33 -86t-88 -33q-53 0 -85 33t-32 86z" />
<glyph unicode="@" d="M45 319q0 203 57.5 351.5t149.5 247t209 146.5t235 48q106 0 180 -26.5t119 -81t64.5 -137t19.5 -197.5q0 -78 -4 -166t-6 -176q0 -102 12 -195h138v-133h-273l-18 154h-10q-12 -18 -31 -47t-50.5 -56.5t-83 -48t-128.5 -20.5q-66 0 -122.5 20.5t-97 58t-64.5 91 t-24 120.5q0 104 45.5 174t125 107t189 43t238.5 -16q6 102 -2 176.5t-36.5 123t-81 72t-133.5 23.5q-86 0 -171 -43t-151 -126t-106.5 -203t-40.5 -271q0 -162 44 -281t117.5 -196.5t171 -115.5t205.5 -38q45 0 97.5 11.5t102.5 31.5t94 50t77 67l84 -109 q-86 -92 -208 -140t-263 -48q-119 0 -238 40t-215 129t-156.5 233.5t-60.5 352.5zM485 287q0 -68 44.5 -118t136.5 -50q57 0 100 18.5t71.5 47t47 62.5t30.5 64v144q-96 18 -174.5 18t-136 -19.5t-88.5 -60.5t-31 -106z" />
<glyph unicode="A" d="M33 0l479 1434h201l483 -1434h-178l-135 397h-551l-131 -397h-168zM385 545h451l-211 674h-25z" />
<glyph unicode="B" d="M205 10v1411q76 12 176 20.5t219 8.5q80 0 163 -13.5t150.5 -51t111.5 -105.5t44 -174q0 -51 -16.5 -104.5t-49 -99.5t-84 -81t-120.5 -53v-8q61 -10 117.5 -35t99.5 -68t69.5 -104t26.5 -145q0 -111 -46 -192t-121 -132t-171 -75.5t-196 -24.5h-82t-98.5 3t-102.5 8 t-90 15zM375 145q14 -4 40.5 -6t57.5 -4t63.5 -3t57.5 -1q66 0 127 16.5t108.5 49t75 82t27.5 116.5q0 84 -34 135.5t-88 80t-121.5 38.5t-135.5 10h-178v-514zM375 803h106q35 0 84 2t82 6q49 16 92 39.5t77 56.5t53.5 74t19.5 90q0 68 -25.5 113t-68.5 71.5t-98.5 37 t-112.5 10.5q-68 0 -124.5 -3.5t-84.5 -9.5v-487z" />
<glyph unicode="C" d="M133 717q0 201 49 341t133 229t196 130t239 41q70 0 121 -5t89.5 -14t68.5 -23.5t58 -33.5h3v-323h-152v219q-35 14 -77 21.5t-101 7.5q-84 0 -165 -31t-143.5 -100.5t-100.5 -182t-38 -276.5q0 -147 34 -258t94.5 -184.5t145.5 -110.5t189 -37q53 0 99.5 9t85.5 26v205 h151v-277l2 -4q-61 -47 -155.5 -79t-229.5 -32q-129 0 -238.5 44t-189.5 134.5t-124 230.5t-44 333z" />
<glyph unicode="D" d="M164 -2v1436q78 10 163 13t144 3q186 0 312 -53.5t203 -148.5t110.5 -228t33.5 -293q0 -145 -30.5 -279.5t-106 -238t-203.5 -165.5t-321 -62q-27 0 -70 1t-88 4t-86 5t-61 6zM334 141q10 -2 29.5 -3t40 -2t40 -2t31.5 -1q150 0 243 49t144 132t69.5 190.5t18.5 222.5 q0 100 -16 201.5t-66.5 183.5t-143.5 134t-245 52q-29 0 -73 -2t-72 -8v-1147z" />
<glyph unicode="E" d="M219 0v1434h842v-152h-672v-469h621v-151h-621v-510h682v-152h-852z" />
<glyph unicode="F" d="M240 0v1434h821v-152h-651v-489h610v-152h-610v-641h-170z" />
<glyph unicode="G" d="M109 717q0 199 51 340t135 230t192.5 130t223.5 41q123 0 202.5 -13t135.5 -36l-2 -8v-342h-152v233q-70 14 -170 15q-86 0 -165 -30t-139.5 -99.5t-96 -182t-35.5 -278.5q0 -303 111.5 -446.5t322.5 -143.5q131 0 223 51v400h-295v137h441v-631q-33 -25 -79 -45.5 t-98.5 -34.5t-108.5 -21.5t-110 -7.5q-137 0 -245.5 44t-184.5 135.5t-116.5 231.5t-40.5 331z" />
<glyph unicode="H" d="M123 0v1434h170v-625h643v625h170v-1434h-170v657h-643v-657h-170z" />
<glyph unicode="I" d="M123 0v152h405v1130h-405v152h983v-152h-408v-1130h408v-152h-983z" />
<glyph unicode="J" d="M172 94l74 135q23 -14 50.5 -30.5t61 -31.5t75.5 -25.5t95 -10.5q154 0 233 96.5t79 311.5v743h-641v152h811v-926q0 -258 -123 -393t-355 -135q-59 0 -116.5 10t-106.5 27.5t-85 38t-52 38.5z" />
<glyph unicode="K" d="M174 0v1434h170v-639h154l460 639h197l-506 -682l570 -752h-215l-502 664h-158v-664h-170z" />
<glyph unicode="L" d="M184 0v1434h170v-1282h580v356h151v-508h-901z" />
<glyph unicode="M" d="M123 0v1434h158l340 -545h4l327 545h154v-1434h-170v952l20 195h-10l-98 -176l-209 -350h-51l-219 352l-95 174h-10l25 -193v-954h-166z" />
<glyph unicode="N" d="M143 0v1434h111l577 -893l107 -197h10l-22 197v893h159v-1434h-110l-574 897l-110 207h-8l20 -207v-897h-160z" />
<glyph unicode="O" d="M98 717q0 356 126 548.5t388 192.5q143 0 242.5 -53t161 -150.5t88 -233.5t26.5 -304q0 -356 -125.5 -549t-392.5 -193q-141 0 -239.5 53.5t-159.5 150.5t-88 233.5t-27 304.5zM279 717q0 -119 15 -225.5t54 -187.5t102.5 -129t161.5 -48q176 0 257 143.5t81 446.5 q0 117 -15 224.5t-54 188t-104.5 129t-164.5 48.5q-174 0 -253.5 -144.5t-79.5 -445.5z" />
<glyph unicode="P" d="M205 0v1419q78 18 168 24.5t178 6.5q94 0 191.5 -18.5t177 -67.5t130 -135t50.5 -219q0 -131 -47 -221.5t-125 -146.5t-178.5 -80.5t-206.5 -24.5h-34t-49.5 1t-50 3t-34.5 4v-545h-170zM375 696q10 -4 32.5 -5t47 -2t47 -1h33.5q70 0 138 13.5t123.5 48t89.5 98 t34 162.5q0 84 -32 140t-84 90t-117.5 48.5t-131.5 14.5q-53 0 -102.5 -2.5t-77.5 -10.5v-594z" />
<glyph unicode="Q" d="M98 717q0 356 126 548.5t388 192.5q143 0 242.5 -53t161 -150.5t88 -233.5t26.5 -304q0 -330 -104 -517.5t-328 -217.5q18 -72 68.5 -108t128.5 -36q88 0 158 45l45 -125q-29 -33 -89.5 -52t-125.5 -19q-55 0 -113.5 15t-110 50t-89.5 91.5t-50 140.5 q-117 16 -196.5 74.5t-130 153.5t-73 223t-22.5 282zM279 717q0 -119 15 -225.5t54 -187.5t102.5 -129t161.5 -48q176 0 257 143.5t81 446.5q0 117 -15 224.5t-54 188t-104.5 129t-164.5 48.5q-174 0 -253.5 -144.5t-79.5 -445.5z" />
<glyph unicode="R" d="M205 0v1419q78 14 179 22.5t185 8.5q94 0 179.5 -20.5t150 -67.5t103 -123t38.5 -184q0 -84 -27.5 -148.5t-67.5 -110.5t-83 -75t-74 -41l379 -680h-198l-338 631h-256v-631h-170zM375 762h160q141 0 233 69.5t92 217.5q0 111 -76 182.5t-211 71.5h-55.5t-55 -2.5 t-50 -4.5t-37.5 -6v-528z" />
<glyph unicode="S" d="M154 92l2 6v332h151v-227q61 -33 138 -54.5t155 -21.5q68 0 127 13.5t103 43t70 74.5t26 107q0 84 -56.5 137t-140.5 94t-182 80t-182 92t-140.5 130t-56.5 196q0 84 34 151.5t95 114.5t148 72.5t194 25.5q123 0 223.5 -17.5t159.5 -45.5l4 2v-4h2l-2 -7v-327h-152v219 q-51 12 -112.5 20.5t-130.5 8.5q-68 0 -122 -16.5t-92 -44t-58.5 -64.5t-20.5 -78q0 -80 56.5 -133t140 -95t182 -83t182.5 -95.5t140.5 -130t56.5 -188.5q0 -92 -34 -166t-96.5 -127t-153.5 -82t-206 -29q-78 0 -147.5 12.5t-128 31t-104.5 39t-72 34.5z" />
<glyph unicode="T" d="M82 1059v375h1065v-375h-152v223h-297v-1130h226v-152h-621v152h225v1130h-295v-223h-151z" />
<glyph unicode="U" d="M123 444v990h170v-910q0 -109 21.5 -183.5t63.5 -120.5t106.5 -66.5t150.5 -20.5q166 0 236.5 91t70.5 300v910h164v-957q0 -129 -34 -223t-95.5 -154.5t-149.5 -89t-194 -28.5q-254 0 -382 114.5t-128 347.5z" />
<glyph unicode="V" d="M29 1434h186l403 -1223h23l389 1223h170l-481 -1434h-199z" />
<glyph unicode="W" d="M31 1434h162l161 -1022l11 -133h14l29 145l151 559h135l142 -555l36 -152h11l12 140l152 1018h151l-221 -1434h-170l-166 582l-20 139h-7l-22 -141l-166 -580h-172z" />
<glyph unicode="X" d="M41 0l473 729l-432 705h205l286 -486l52 -96l49 96l305 486h188l-448 -691l469 -743h-199l-321 514l-56 102l-53 -102l-328 -514h-190z" />
<glyph unicode="Y" d="M18 1434h199l410 -709h2l399 709h182l-510 -883v-551h-170v549z" />
<glyph unicode="Z" d="M113 0v154l809 1128h-809v152h1003v-154l-813 -1128h813v-152h-1003z" />
<glyph unicode="[" d="M305 -471v1905h780v-144h-620v-1618h620v-143h-780z" />
<glyph unicode="\" d="M168 1401l137 57l756 -1685l-135 -60z" />
<glyph unicode="]" d="M141 -328h623v1618h-623v144h783v-1905h-783v143z" />
<glyph unicode="^" d="M72 616l530 840h60l499 -840h-168l-368 631l-383 -631h-170z" />
<glyph unicode="_" d="M115 -276h999v-144h-999v144z" />
<glyph unicode="`" d="M401 1475h224l133 -306h-113z" />
<glyph unicode="a" d="M154 272q0 104 46 174t132 107t208 43q26 1 54 1q101 0 219 -17q6 55 6 100q0 30 -3 56q-7 62 -32.5 99t-71.5 52.5t-114 15.5q-92 0 -176 -25.5t-150 -52.5l-51 119q88 51 198.5 73.5t217.5 22.5q104 0 170.5 -32.5t104.5 -85t51.5 -119t13.5 -133.5q0 -78 -4 -166 t-6 -176q0 -102 12 -195h137v-133h-272l-19 154h-10q-12 -18 -36.5 -47t-64.5 -56.5t-97.5 -48t-135.5 -20.5q-152 0 -239.5 77.5t-87.5 212.5zM322 287q0 -68 45.5 -118t154.5 -50q57 0 106.5 18.5t86.5 47t61.5 62.5t36.5 64v144q-106 18 -196.5 18t-156 -19.5t-102 -60.5 t-36.5 -106z" />
<glyph unicode="b" d="M4 1296v138h328v-527h10q53 68 137 105t183 37q450 0 450 -519q0 -266 -145.5 -406t-413.5 -140q-127 0 -229.5 24.5t-149.5 57.5v1230h-170zM332 174q47 -25 112.5 -39t137.5 -14q82 0 148.5 23.5t113.5 73.5t72.5 128t25.5 184q0 78 -16.5 148t-52 122t-93 81.5 t-139.5 29.5q-123 0 -198.5 -69.5t-110.5 -196.5v-471z" />
<glyph unicode="c" d="M123 512q0 129 36 229.5t103.5 168t163.5 103.5t215 36q152 0 247 -27t161 -59l-2 -7v-284h-148v194q-47 16 -101.5 27.5t-107.5 11.5q-201 0 -299 -94t-98 -299q0 -90 28.5 -160.5t82 -120t128 -76t164.5 -26.5q96 0 187.5 33t152.5 86l72 -119q-29 -25 -72 -51.5 t-99 -50t-125 -38t-148 -14.5q-133 0 -234.5 38t-169 109t-102.5 170t-35 220z" />
<glyph unicode="d" d="M115 510q0 129 36.5 228.5t105.5 166t165 101t215 34.5q43 0 77 -2t62.5 -6t54 -11t56.5 -15v290h-172v138h332v-1084q0 -18 2 -46t5 -58.5t7 -60t8 -52.5h137v-133h-272l-21 158h-8q-45 -78 -134 -130.5t-206 -52.5q-231 0 -340.5 130.5t-109.5 404.5zM285 510 q0 -84 15 -156.5t51 -126t95.5 -84t145.5 -30.5q125 0 196.5 64.5t98.5 193.5v475q-45 31 -101.5 45t-148.5 14q-164 0 -258 -95t-94 -300z" />
<glyph unicode="e" d="M129 512q0 129 36 229.5t103.5 168t163.5 103.5t215 36q86 0 170 -22.5t148.5 -85t99.5 -172.5q27 -86 27 -210q0 -36 -2 -74h-793q0 -184 99.5 -275t265.5 -91q55 0 109 13t103.5 31.5t87 41t58.5 41.5l63 -117q-37 -33 -87 -61.5t-109.5 -49t-124 -32t-129.5 -11.5 q-123 0 -217 38t-157.5 109t-96.5 169t-33 221zM303 629h637q-10 135 -87 209.5t-202 74.5q-68 0 -128 -14t-106 -48t-76 -88t-38 -134z" />
<glyph unicode="f" d="M180 0v137h244v750h-244v137h244v57q0 193 100.5 279t286.5 86q68 0 121 -8t115 -33l-37 -133q-53 23 -102.5 30t-90.5 7q-135 0 -184 -66.5t-49 -218.5h424v-137h-424v-750h424v-137h-828z" />
<glyph unicode="g" d="M141 510q0 262 139.5 396t413.5 134q127 0 216 -17t163 -44v-1030q0 -96 -37 -169t-101.5 -120t-150.5 -70.5t-186 -23.5q-121 0 -211 24.5t-156 63.5l78 145q18 -16 48 -31.5t69 -28.5t83 -21.5t87 -8.5q90 0 150.5 16.5t97.5 51.5t53 90t16 135v115h-8 q-47 -68 -120.5 -105t-190.5 -37q-233 0 -343 130.5t-110 404.5zM309 512q0 -88 16.5 -160.5t52.5 -126t94 -83t144 -29.5q125 0 197 64.5t100 197.5v485q-90 43 -251 43q-164 0 -258.5 -96t-94.5 -295z" />
<glyph unicode="h" d="M8 1296v138h320v-537h10q63 72 147 112t209 40q98 0 171 -20.5t119 -72t68.5 -140.5t22.5 -226v-590h-160v559q0 88 -10 153.5t-39.5 109.5t-81 66.5t-131.5 22.5q-55 0 -108 -19.5t-97.5 -53t-76 -81.5t-43.5 -106v-651h-158v1296h-162z" />
<glyph unicode="i" d="M215 0v137h356v750h-356v137h520v-887h348v-137h-868zM516 1315q0 55 37 95t94 40q59 0 99 -40t40 -95q0 -53 -39.5 -90t-99.5 -37q-57 0 -94 37t-37 90z" />
<glyph unicode="j" d="M121 -313l67 133q55 -41 126 -72t147 -31q123 0 175 77t52 212v881h-495v137h659v-1049q0 -207 -105.5 -308t-291.5 -101q-55 0 -107.5 14t-97.5 33.5t-79 40t-50 33.5zM602 1315q0 55 37 95t94 40q59 0 99 -40t40 -95q0 -53 -39.5 -90t-99.5 -37q-57 0 -94 37t-37 90z " />
<glyph unicode="k" d="M49 1296v138h332v-848h113l403 438h193l-453 -485l373 -402h133v-137h-211l-438 463h-113v-463h-158v1296h-174z" />
<glyph unicode="l" d="M143 1296v138h340v-1090q0 -125 42 -176t124 -51q57 0 116.5 22.5t108.5 63.5l74 -109q-33 -29 -71.5 -51.5t-79.5 -37.5t-82 -23.5t-76 -8.5q-76 0 -135.5 19.5t-99 62.5t-60 114t-20.5 175v952h-181z" />
<glyph unicode="m" d="M84 0v1024h106l31 -125h8q20 31 40 58.5t45.5 48t60.5 32t88 11.5q31 0 63.5 -9.5t60 -29t48 -52t27.5 -79.5q47 80 105 125t161 45q68 0 109.5 -22.5t65 -64.5t33 -100.5t9.5 -130.5v-731h-156v696q0 43 -4 81t-15.5 66.5t-30.5 45t-52 16.5q-72 0 -121 -57t-74 -164 v-684h-155v682q0 43 -3.5 83t-14.5 71.5t-32.5 50t-56.5 18.5q-70 0 -118 -57t-72 -143v-705h-156z" />
<glyph unicode="n" d="M37 891v133h274l19 -166h10q20 35 54 69t79 61.5t100.5 44t116.5 16.5q94 0 167 -20.5t121 -73t72.5 -141.5t24.5 -226v-588h-160v557q0 170 -55 256t-201 86q-53 0 -103 -21.5t-91 -56.5t-72 -81t-45 -97v-643h-158v666q0 18 -1 47.5t-3 61.5t-5 62.5t-7 53.5h-137z" />
<glyph unicode="o" d="M117 512q0 248 129 392.5t368 144.5q129 0 222.5 -42t155 -114t91 -170t29.5 -211q0 -123 -32.5 -222.5t-96 -169t-157 -107.5t-212.5 -38q-127 0 -221 42t-155.5 114t-91 170t-29.5 211zM287 512q0 -72 17.5 -143.5t56 -129t101 -92t152.5 -34.5q164 0 247 101t83 298 q0 74 -17.5 144.5t-57.5 128t-102 92t-153 34.5q-164 0 -245.5 -100t-81.5 -299z" />
<glyph unicode="p" d="M43 891v133h272l21 -143h10q55 72 140 120t208 48q219 0 330 -121t111 -396q0 -129 -38 -232t-107.5 -175t-168 -111t-217.5 -39q-43 0 -76.5 3.5t-61.5 8.5t-54.5 13t-57.5 20v-430h-157v1076q0 18 -1 47.5t-3.5 61.5t-5.5 62.5t-7 53.5h-137zM354 178q45 -31 101.5 -48 t148.5 -17q164 0 262.5 107.5t98.5 314.5q0 174 -68.5 269t-228.5 95q-61 0 -115.5 -22.5t-96.5 -59.5t-69 -82t-33 -90v-467z" />
<glyph unicode="q" d="M123 510q0 262 139 396t414 134q121 0 225.5 -20.5t153.5 -42.5v-1387h-160v525h-8q-47 -68 -121 -104t-191 -36q-233 0 -342.5 130.5t-109.5 404.5zM293 512q0 -88 15.5 -160.5t52 -126t95 -83t144.5 -29.5q244 0 295 256v493q-45 23 -107.5 32t-142.5 9 q-164 0 -258 -94t-94 -297z" />
<glyph unicode="r" d="M135 0v137h277v750h-277v137h383l33 -133h10q70 63 156 108t205 45q70 0 111.5 -26.5t65 -77.5t32 -124t8.5 -165l-144 -2q0 131 -25.5 192.5t-92.5 61.5q-63 0 -114.5 -18.5t-89.5 -45t-64.5 -53t-39.5 -45.5v-604h394v-137h-828z" />
<glyph unicode="s" d="M172 119l82 133q25 -25 65.5 -50.5t90 -46t105.5 -32.5t114 -12q55 0 103 9t85 28.5t58.5 51t21.5 76.5q0 66 -51 102t-127 57.5t-165 40t-165 49t-127 82.5t-51 147q0 78 34 133t89 91t129 53.5t153 17.5q143 0 247 -36t165 -75l-65 -129q-68 37 -147 70.5t-198 33.5 q-45 0 -89 -9t-79.5 -27.5t-57 -48t-21.5 -72.5q0 -53 51 -82t127 -48.5t165 -37t164.5 -50t127 -88t51.5 -149.5q0 -141 -111.5 -233.5t-335.5 -92.5q-68 0 -133 12.5t-122.5 33t-104.5 46t-78 52.5z" />
<glyph unicode="t" d="M63 887v137h244v203l160 45v-248h547v-137h-547v-484q0 -150 72.5 -221t208.5 -71q92 0 160.5 34.5t123.5 75.5l53 -121q-72 -57 -171 -92t-203 -35q-82 0 -155 23.5t-128 73t-88 126t-33 183.5v508h-244z" />
<glyph unicode="u" d="M51 887v137h297v-555q0 -84 7 -150.5t30 -112.5t67 -69.5t117 -23.5q106 0 185.5 69.5t119.5 173.5v531h-131v137h291v-698q0 -100 13 -193h137v-133h-273l-6 174h-8q-53 -88 -141 -143.5t-213 -55.5q-94 0 -161 21.5t-110 75t-63.5 142.5t-20.5 222v451h-137z" />
<glyph unicode="v" d="M88 1024h188l342 -825h23l322 825h178l-432 -1024h-181z" />
<glyph unicode="w" d="M20 1024h158l166 -799h12l199 574h139l205 -570h14l146 795h149l-200 -1024h-183l-196 565h-6l-205 -565h-182z" />
<glyph unicode="x" d="M94 0l424 524l-395 500h205l295 -385l303 385h184l-395 -492l420 -532h-197l-326 420l-331 -420h-187z" />
<glyph unicode="y" d="M94 1024h185l358 -866h78l254 866h166l-285 -920q-23 -72 -46.5 -163t-66.5 -170.5t-116.5 -135t-192.5 -55.5q-27 0 -56.5 6t-58 15.5t-53 21.5t-37.5 25l58 147q12 -10 33.5 -20.5t47 -17.5t50 -12t41.5 -5q154 0 209 260h-138z" />
<glyph unicode="z" d="M172 0v137l694 750h-694v137h885v-137l-701 -750h701v-137h-885z" />
<glyph unicode="{" d="M164 410v143q39 0 89 17.5t94 57.5t74 103.5t30 157.5v209q0 74 23.5 135t65.5 106t100 71t128 26h297v-144h-225q-129 0 -179.5 -61.5t-50.5 -181.5v-199q0 -84 -30.5 -149.5t-73.5 -109.5t-88 -69.5t-74 -29.5v-13q27 -4 72 -31.5t88 -75.5t74.5 -113.5t31.5 -145.5 v-197q0 -125 53.5 -184.5t178.5 -59.5h223v-143h-297q-143 0 -230 85t-87 251v201q0 88 -30 152.5t-74 107.5t-94 63.5t-89 20.5z" />
<glyph unicode="|" d="M545 -266v1700h139v-1700h-139z" />
<glyph unicode="}" d="M164 -328h223q125 0 178 59.5t53 184.5v197q0 80 31 145.5t74 113.5t88 75.5t74 31.5v13q-29 4 -74 29.5t-88 69.5t-74 109.5t-31 149.5v199q0 121 -50 182t-179 61h-225v144h297q70 0 128 -26t100 -71t65.5 -106.5t23.5 -134.5v-209q0 -94 30 -157.5t74 -103.5t94 -57.5 t89 -17.5v-143q-39 0 -89 -20.5t-94 -63.5t-74 -107.5t-30 -152.5v-201q0 -166 -87 -251t-230 -85h-297v143z" />
<glyph unicode="~" d="M160 739q88 68 159.5 94.5t131.5 26.5q57 0 106 -17.5t94 -39t88 -38.5t90 -17q39 0 80 16t88 57l70 -125q-78 -53 -140.5 -74.5t-113.5 -21.5q-55 0 -101 17.5t-88 39t-84 39t-91 17.5q-47 0 -100.5 -21.5t-119.5 -75.5z" />
<glyph unicode="&#xa0;" />
<glyph unicode="&#xa1;" d="M496 928q0 55 31.5 87t84.5 32q55 0 88 -32t33 -87q0 -53 -32.5 -86t-88.5 -33q-53 0 -84.5 33t-31.5 86zM528 301l35 361h101l34 -361v-711h-170v711z" />
<glyph unicode="&#xa2;" d="M170 512q0 117 35 210t94 160.5t138 107.5t169 52v187h146v-182q90 0 166.5 -24t121.5 -46l-47 -139q-20 10 -50 21t-64.5 21.5t-71.5 16.5t-70 6v-784q33 0 72 5t78 14t70.5 21.5t48.5 24.5l53 -125q-25 -18 -61.5 -32.5t-77.5 -24.5t-85 -15t-83 -5v-187h-146v185 q-205 20 -320.5 162.5t-115.5 369.5zM340 512q0 -68 17.5 -133.5t53 -118.5t89 -89t127.5 -44v772q-127 -16 -207 -114.5t-80 -272.5z" />
<glyph unicode="&#xa3;" d="M158 0v147q66 0 111.5 24t75.5 61.5t44 86t14 97.5q0 68 -13 122t-34 103h-198v143h135q-25 55 -41 118t-16 149q0 201 114.5 304t313.5 103q125 0 217 -18.5t151 -46.5l-53 -146q-47 23 -126 41.5t-191 18.5q-123 0 -189.5 -66.5t-66.5 -179.5q0 -86 20 -150.5 t49 -126.5h330v-143h-268q16 -47 26 -98t10 -113q0 -31 -4 -63.5t-16 -68.5t-36.5 -73t-65.5 -73h620v-152h-913z" />
<glyph unicode="&#xa4;" d="M98 293l215 219q-51 84 -51 195q0 53 14.5 102t38.5 92l-217 219l101 101l219 -217q80 55 194 55q109 0 195 -58l221 220l100 -101l-217 -221q53 -84 54 -192q0 -109 -54 -193l217 -221l-100 -98l-217 215q-84 -53 -199 -54q-117 0 -198 56l-215 -217zM403 707 q0 -92 58.5 -153.5t150.5 -61.5t151.5 61t59.5 154q0 92 -59 154.5t-152 62.5q-92 0 -150.5 -62.5t-58.5 -154.5z" />
<glyph unicode="&#xa5;" d="M57 1434h199l367 -697h10l354 697h182l-415 -762h196v-123h-250v-146h250v-122h-250v-281h-170v281h-249v122h249v146h-249v123h192z" />
<glyph unicode="&#xa6;" d="M545 -266v688h139v-688h-139zM545 745v689h139v-689h-139z" />
<glyph unicode="&#xa7;" d="M221 723q0 31 9.5 67.5t31 73.5t56 72t88.5 61q-41 29 -75 74t-34 129q0 115 85 186.5t236 71.5q111 0 188 -18.5t132 -44.5l-39 -138q-49 23 -116.5 40.5t-141.5 17.5q-92 0 -136 -33t-44 -88q0 -53 40 -83t101.5 -52.5t131 -45t131 -58t101.5 -94t40 -150.5 q0 -63 -37 -138t-148 -137q55 -33 82 -76t27 -127q0 -63 -24.5 -111t-68.5 -81t-103.5 -49.5t-127.5 -16.5q-115 0 -188.5 19.5t-130.5 48.5l41 133q47 -23 113.5 -40t144.5 -17q86 0 133 27.5t47 93.5q0 53 -40 83.5t-101.5 53t-131 45t-131 58.5t-101.5 93.5t-40 149.5z M385 727q0 -51 26.5 -84t68.5 -56.5t96.5 -40t109.5 -36.5q29 12 56.5 32.5t50 46t36 55.5t13.5 63q0 51 -27 83.5t-71 56t-99 41t-110 38.5q-59 -27 -104.5 -76t-45.5 -123z" />
<glyph unicode="&#xa8;" d="M268 1321q0 53 32 87t85 34q51 0 84 -34t33 -87q0 -49 -33 -83t-84 -34q-53 0 -85 34t-32 83zM725 1321q0 53 31.5 87t83.5 34q53 0 87 -34t34 -87q0 -49 -34 -83t-87 -34q-51 0 -83 34t-32 83z" />
<glyph unicode="&#xa9;" d="M88 604q0 123 42 220.5t113.5 165t167 103t203.5 35.5q106 0 202.5 -35.5t167.5 -103t113 -165t42 -220.5t-42 -220t-113 -164.5t-167 -103.5t-203 -36q-121 0 -217 36t-165.5 103.5t-106.5 164.5t-37 220zM197 604q0 -102 31.5 -182t88 -134.5t133 -82t164.5 -27.5 t164 27.5t132.5 82t88 134.5t31.5 182t-31.5 181t-88 133.5t-132.5 83t-164 28.5t-164.5 -28.5t-133 -83t-88 -133.5t-31.5 -181zM367 604q0 135 67.5 209t179.5 74q53 0 87 -10.5t79 -30.5l-39 -105q-68 31 -112 31q-129 0 -129 -168q0 -86 37.5 -127t103.5 -41 q37 0 65.5 7.5t53.5 21.5l31 -103q-70 -41 -177 -40q-121 0 -184 75.5t-63 206.5z" />
<glyph unicode="&#xaa;" d="M317 965q0 63 31 106t83 69.5t123 39t153 12.5q14 0 27.5 -1t27.5 -1q2 12 2 23.5v21.5q0 55 -24.5 77.5t-94.5 22.5q-82 0 -149.5 -15t-106.5 -36l-31 102q51 27 135.5 45.5t186.5 18.5q127 0 174 -53.5t47 -153.5q0 -78 -3 -149.5t-3 -137.5q0 -49 3 -94t13 -84h-112 l-27 94h-8q-27 -35 -76 -68.5t-137 -33.5q-106 0 -170 52t-64 143zM461 975q0 -41 29.5 -65.5t82.5 -24.5q43 0 75 10t54.5 27.5t37 37t22.5 37.5v86q-23 2 -43.5 2h-42.5q-43 0 -82 -4t-68.5 -16t-47 -33.5t-17.5 -56.5z" />
<glyph unicode="&#xab;" d="M102 541l400 520l119 -98l-320 -414l334 -408l-117 -100zM594 541l399 520l119 -98l-319 -414l333 -408l-116 -100z" />
<glyph unicode="&#xac;" d="M180 655v148h869v-393h-148v245h-721z" />
<glyph unicode="&#xad;" d="M365 514v152h499v-152h-499z" />
<glyph unicode="&#xae;" d="M72 924q0 131 43 232t117.5 170t173 104.5t208.5 35.5q113 0 212.5 -35.5t173 -104.5t115.5 -170t42 -232t-43 -232.5t-117.5 -170t-173 -104.5t-209.5 -36q-115 0 -213 36t-171.5 104.5t-115.5 170t-42 232.5zM201 924q0 -106 32.5 -185.5t89 -131.5t132 -78.5 t159.5 -26.5q88 0 164 25.5t131.5 77.5t87 131t31.5 188q0 106 -32.5 185t-89 131t-131.5 79t-161 27q-90 0 -165.5 -27t-131 -79t-86 -131t-30.5 -185zM403 659v531q33 10 92.5 15t112.5 5q86 0 147.5 -35.5t61.5 -123.5q0 -33 -11 -56.5t-27.5 -41t-36 -28t-37.5 -14.5 l176 -252h-125l-160 213h-86v-213h-107zM510 958h70q125 0 125 89q0 71 -119 71q-23 0 -43.5 -1t-32.5 -7v-152z" />
<glyph unicode="&#xaf;" d="M311 1190v127h607v-127h-607z" />
<glyph unicode="&#xb0;" d="M326 1169q0 63 22.5 116.5t61.5 91.5t92 59.5t112 21.5t112.5 -19.5t92.5 -57.5t61.5 -91t22.5 -121t-22.5 -121t-61.5 -90.5t-92 -57t-113 -19.5q-59 0 -112 19.5t-92 57t-61.5 90.5t-22.5 121zM455 1169q0 -78 48 -121.5t111 -43.5t111.5 44t48.5 121q0 78 -48 122 t-112 44q-63 0 -111 -44t-48 -122z" />
<glyph unicode="&#xb1;" d="M180 365v147h869v-147h-869zM180 862v148h361v370h147v-370h361v-148h-361v-246h-147v246h-361z" />
<glyph unicode="&#xb2;" d="M233 778v109q33 27 84.5 59.5t110.5 69.5t119.5 79t110 86t80 90t30.5 93q0 43 -17.5 72.5t-44 49t-58.5 28t-62 8.5q-47 0 -87 -11.5t-74 -28t-60.5 -36t-42.5 -33.5l-66 100q18 18 51 42t78 45.5t102.5 37t122.5 15.5q63 0 118.5 -17.5t95.5 -51.5t63.5 -84t23.5 -118 q0 -76 -42 -144.5t-109.5 -128.5t-149.5 -111.5t-161 -90.5h503v-129h-719z" />
<glyph unicode="&#xb3;" d="M145 920l74 106q14 -16 43 -39.5t69 -46.5t91.5 -38t114.5 -15q98 0 155.5 39t57.5 114q0 66 -48.5 107t-152.5 41h-133v78l266 249h-467v123h647v-108l-264 -236v-4q137 -2 216 -70.5t79 -179.5q0 -125 -96.5 -200.5t-278.5 -75.5q-49 0 -104.5 11t-106.5 31.5t-94 49.5 t-68 64z" />
<glyph unicode="&#xb4;" d="M401 1169l134 306h223l-244 -306h-113z" />
<glyph unicode="&#xb6;" d="M233 1036q0 76 24 147.5t69 127t110.5 89.5t147.5 34h92v-1700h-139v901q-66 0 -121.5 33.5t-95 90t-63.5 129.5t-24 148zM856 -266v1700h139v-1700h-139z" />
<glyph unicode="&#xb7;" d="M477 625q0 66 37 101.5t98 35.5q66 0 103 -36t37 -101q0 -59 -37 -98.5t-103 -39.5q-61 0 -98 39.5t-37 98.5z" />
<glyph unicode="&#xb8;" d="M442 -418l19 80q12 -2 22.5 -2h20.5q45 0 70.5 8t39 19.5t16.5 26t3 26.5q0 57 -176 76l98 184h117l-49 -88q86 -16 123.5 -53t37.5 -101q0 -80 -65.5 -132t-183.5 -52q-23 0 -45.5 2t-47.5 6z" />
<glyph unicode="&#xb9;" d="M262 1436l340 202h115v-735h276v-125h-719v125h299v563l-256 -143z" />
<glyph unicode="&#xba;" d="M297 1110q0 92 24.5 157.5t66.5 108.5t100.5 62.5t125.5 19.5q68 0 126.5 -18.5t100.5 -59.5t66.5 -107.5t24.5 -162.5t-24.5 -162.5t-66.5 -107.5t-100.5 -59.5t-126.5 -18.5t-126 18.5t-100 59.5t-66.5 107.5t-24.5 162.5zM449 1110q0 -123 44 -176t121 -53q39 0 70 11 t52.5 36.5t32.5 69.5t11 112t-11 112t-32.5 69.5t-52.5 36.5t-70 11q-78 0 -121.5 -48t-43.5 -181z" />
<glyph unicode="&#xbb;" d="M102 141l334 408l-319 414l119 98l399 -520l-416 -500zM594 141l334 408l-320 414l119 98l399 -520l-415 -500z" />
<glyph unicode="&#xbc;" d="M72 1219l241 215h82v-861h-119v691l-139 -121zM252 20l633 1440l96 -41l-631 -1444zM625 199v84l295 589h100v-565h104v-108h-104v-199h-119v199h-276zM754 307h147v322z" />
<glyph unicode="&#xbd;" d="M72 1219l241 215h82v-861h-119v691l-139 -121zM227 20l633 1440l96 -41l-630 -1444zM741 0v98q39 45 84 106.5t84 132.5t65.5 146.5t26.5 149.5q0 59 -23.5 93t-59.5 34q-37 0 -72 -11.5t-58 -29.5l-36 98q35 29 85 43t87 14q198 0 198 -223q0 -137 -67.5 -267 t-171.5 -269h264v-115h-406z" />
<glyph unicode="&#xbe;" d="M90 596l27 109q49 -31 119 -31q63 0 92.5 43t29.5 119q0 66 -28.5 106.5t-96.5 40.5h-71v68l153 268h-219v115h359v-86l-158 -269v-6q92 2 137 -62.5t45 -174.5q0 -125 -65.5 -201t-165.5 -76q-47 0 -87 10.5t-71 26.5zM268 20l633 1440l96 -41l-630 -1444zM625 199v84 l295 589h100v-565h104v-108h-104v-199h-119v199h-276zM754 307h147v322z" />
<glyph unicode="&#xbf;" d="M162 -59q0 96 33.5 163.5t85 119.5t110 94t109.5 90.5t84.5 107.5t33.5 146h136q2 -10 2 -22.5v-23.5q0 -86 -32 -147t-79 -109.5t-101.5 -87.5t-101.5 -83t-78.5 -97t-31.5 -127q0 -41 17.5 -85t56 -83t99 -63.5t144.5 -24.5q68 0 122 15.5t98 40t80 54t65 58.5l104 -94 q-86 -109 -200.5 -163t-294.5 -54q-123 0 -210 34.5t-142.5 89t-82 121t-26.5 130.5zM559 930q0 55 32 87t85 32q55 0 88 -32t33 -87q0 -53 -33 -86t-88 -33q-53 0 -85 33t-32 86z" />
<glyph unicode="&#xc0;" d="M33 0l479 1434h201l483 -1434h-178l-135 397h-551l-131 -397h-168zM293 1739v43h233l242 -242h-152zM385 545h451l-211 674h-25z" />
<glyph unicode="&#xc1;" d="M33 0l479 1434h201l483 -1434h-178l-135 397h-551l-131 -397h-168zM385 545h451l-211 674h-25zM451 1540l241 242h234v-43l-334 -199h-141z" />
<glyph unicode="&#xc2;" d="M33 0l479 1434h201l483 -1434h-178l-135 397h-551l-131 -397h-168zM242 1532l317 252h123l297 -252h-203l-158 133l-169 -133h-207zM385 545h451l-211 674h-25z" />
<glyph unicode="&#xc3;" d="M33 0l479 1434h201l483 -1434h-178l-135 397h-551l-131 -397h-168zM266 1616q63 66 130 85t116 19q39 0 76 -10t70.5 -23.5t66.5 -23.5t63 -10q53 0 103 43l59 -101q-55 -51 -108.5 -64t-96.5 -13q-39 0 -73.5 10t-68.5 23.5t-66.5 23.5t-65.5 10t-64.5 -13t-66.5 -48z M385 545h451l-211 674h-25z" />
<glyph unicode="&#xc4;" d="M33 0l479 1434h201l483 -1434h-178l-135 397h-551l-131 -397h-168zM258 1638q0 47 36 77t93 30q53 0 89 -29.5t36 -77.5q0 -47 -36 -75.5t-89 -28.5q-57 0 -93 28.5t-36 75.5zM385 545h451l-211 674h-25zM719 1638q0 47 34.5 77t88.5 30q59 0 94 -29.5t35 -77.5 q0 -47 -35 -75.5t-94 -28.5q-53 0 -88 28.5t-35 75.5z" />
<glyph unicode="&#xc5;" d="M31 0l524 1407q-78 12 -117 56t-39 110q0 76 51.5 125t163.5 49q102 0 159.5 -44t57.5 -130q0 -66 -40.5 -110t-120.5 -56l526 -1407h-178l-148 397h-528l-143 -397h-168zM397 545h422l-211 590h-2zM524 1573q0 -35 21.5 -58.5t68.5 -23.5q45 0 69 22.5t24 59.5 q0 39 -22.5 62.5t-70.5 23.5q-45 0 -67.5 -23.5t-22.5 -62.5z" />
<glyph unicode="&#xc6;" d="M41 0l561 1434h557v-154h-368v-467h333v-154h-333v-505h374v-154h-538v391h-267l-149 -391h-170zM412 539h215v591h-4l-43 -135z" />
<glyph unicode="&#xc7;" d="M133 717q0 201 49 341t133 229t196 130t239 41q70 0 121 -5t89.5 -14t68.5 -23.5t58 -33.5h3v-323h-152v219q-35 14 -77 21.5t-101 7.5q-84 0 -165 -31t-143.5 -100.5t-100.5 -182t-38 -276.5q0 -147 34 -258t94.5 -184.5t145.5 -110.5t189 -37q53 0 99.5 9t85.5 26v205 h151v-277l2 -4q-61 -47 -156 -80q-68 -20 -155 -29l-37 -65q86 -16 124 -53t38 -101q0 -80 -65.5 -132t-184.5 -52q-23 0 -45.5 2t-46.5 6l18 80q12 -2 23 -2h20q45 0 70.5 8t39 19.5t16.5 26t3 26.5q0 57 -176 76l84 161q-102 6 -195 41q-109 45 -188.5 135.5t-123.5 230.5 t-44 333z" />
<glyph unicode="&#xc8;" d="M219 0v1434h842v-152h-672v-469h621v-151h-621v-510h682v-152h-852zM322 1739v43h233l242 -242h-152z" />
<glyph unicode="&#xc9;" d="M219 0v1434h842v-152h-672v-469h621v-151h-621v-510h682v-152h-852zM479 1540l241 242h234v-43l-334 -199h-141z" />
<glyph unicode="&#xca;" d="M219 0v1434h842v-152h-672v-469h621v-151h-621v-510h682v-152h-852zM265 1532l317 252h123l297 -252h-203l-158 133l-169 -133h-207z" />
<glyph unicode="&#xcb;" d="M219 0v1434h842v-152h-672v-469h621v-151h-621v-510h682v-152h-852zM281 1638q0 47 36 77t93 30q53 0 89 -29.5t36 -77.5q0 -47 -36 -75.5t-89 -28.5q-57 0 -93 28.5t-36 75.5zM742 1638q0 47 34.5 77t88.5 30q59 0 94 -29.5t35 -77.5q0 -47 -35 -75.5t-94 -28.5 q-53 0 -88 28.5t-35 75.5z" />
<glyph unicode="&#xcc;" d="M123 0v152h405v1130h-405v152h983v-152h-408v-1130h408v-152h-983zM318 1739v43h233l242 -242h-152z" />
<glyph unicode="&#xcd;" d="M123 0v152h405v1130h-405v152h983v-152h-408v-1130h408v-152h-983zM443 1540l241 242h234v-43l-334 -199h-141z" />
<glyph unicode="&#xce;" d="M123 0v152h405v1130h-405v152h983v-152h-408v-1130h408v-152h-983zM240 1532l317 252h123l297 -252h-203l-158 133l-169 -133h-207z" />
<glyph unicode="&#xcf;" d="M123 0v152h405v1130h-405v152h983v-152h-408v-1130h408v-152h-983zM258 1638q0 47 36 77t93 30q53 0 89 -29.5t36 -77.5q0 -47 -36 -75.5t-89 -28.5q-57 0 -93 28.5t-36 75.5zM719 1638q0 47 34.5 77t88.5 30q59 0 94 -29.5t35 -77.5q0 -47 -35 -75.5t-94 -28.5 q-53 0 -88 28.5t-35 75.5z" />
<glyph unicode="&#xd0;" d="M18 680v123h185v631q78 10 177 13t185 3q172 0 292 -53.5t194.5 -148.5t107.5 -228t33 -293q0 -145 -31 -279.5t-105.5 -238t-199.5 -165.5t-311 -62q-33 0 -82 1t-100.5 4t-95.5 5t-64 6v682h-185zM373 141q10 -2 34.5 -3t52 -2t53.5 -2t36 -1q143 0 234 49t141.5 132 t69 190.5t18.5 222.5q0 100 -16.5 201.5t-64.5 183.5t-134.5 134t-227.5 52q-53 0 -110.5 -2t-85.5 -8v-485h280v-123h-280v-539z" />
<glyph unicode="&#xd1;" d="M143 0v1434h111l577 -893l107 -197h10l-22 197v893h159v-1434h-110l-574 897l-110 207h-8l20 -207v-897h-160zM266 1616q63 66 130 85t116 19q39 0 76 -10t70.5 -23.5t66.5 -23.5t63 -10q53 0 103 43l59 -101q-55 -51 -108.5 -64t-96.5 -13q-39 0 -73.5 10t-68.5 23.5 t-66.5 23.5t-65.5 10t-64.5 -13t-66.5 -48z" />
<glyph unicode="&#xd2;" d="M98 717q0 356 126 548.5t388 192.5q143 0 242.5 -53t161 -150.5t88 -233.5t26.5 -304q0 -356 -125.5 -549t-392.5 -193q-141 0 -239.5 53.5t-159.5 150.5t-88 233.5t-27 304.5zM279 717q0 -119 15 -225.5t54 -187.5t102.5 -129t161.5 -48q176 0 257 143.5t81 446.5 q0 117 -15 224.5t-54 188t-104.5 129t-164.5 48.5q-174 0 -253.5 -144.5t-79.5 -445.5zM281 1739v43h233l242 -242h-152z" />
<glyph unicode="&#xd3;" d="M98 717q0 356 126 548.5t388 192.5q143 0 242.5 -53t161 -150.5t88 -233.5t26.5 -304q0 -356 -125.5 -549t-392.5 -193q-141 0 -239.5 53.5t-159.5 150.5t-88 233.5t-27 304.5zM279 717q0 -119 15 -225.5t54 -187.5t102.5 -129t161.5 -48q176 0 257 143.5t81 446.5 q0 117 -15 224.5t-54 188t-104.5 129t-164.5 48.5q-174 0 -253.5 -144.5t-79.5 -445.5zM522 1540l241 242h234v-43l-334 -199h-141z" />
<glyph unicode="&#xd4;" d="M98 717q0 356 126 548.5t388 192.5q143 0 242.5 -53t161 -150.5t88 -233.5t26.5 -304q0 -356 -125.5 -549t-392.5 -193q-141 0 -239.5 53.5t-159.5 150.5t-88 233.5t-27 304.5zM238 1532l317 252h123l297 -252h-203l-158 133l-169 -133h-207zM279 717q0 -119 15 -225.5 t54 -187.5t102.5 -129t161.5 -48q176 0 257 143.5t81 446.5q0 117 -15 224.5t-54 188t-104.5 129t-164.5 48.5q-174 0 -253.5 -144.5t-79.5 -445.5z" />
<glyph unicode="&#xd5;" d="M98 717q0 356 126 548.5t388 192.5q143 0 242.5 -53t161 -150.5t88 -233.5t26.5 -304q0 -356 -125.5 -549t-392.5 -193q-141 0 -239.5 53.5t-159.5 150.5t-88 233.5t-27 304.5zM264 1616q63 66 130 85t116 19q39 0 76 -10t70.5 -23.5t66.5 -23.5t63 -10q53 0 103 43 l59 -101q-55 -51 -108.5 -64t-96.5 -13q-39 0 -73.5 10t-68.5 23.5t-66.5 23.5t-65.5 10t-64.5 -13t-66.5 -48zM279 717q0 -119 15 -225.5t54 -187.5t102.5 -129t161.5 -48q176 0 257 143.5t81 446.5q0 117 -15 224.5t-54 188t-104.5 129t-164.5 48.5q-174 0 -253.5 -144.5 t-79.5 -445.5z" />
<glyph unicode="&#xd6;" d="M98 717q0 356 126 548.5t388 192.5q143 0 242.5 -53t161 -150.5t88 -233.5t26.5 -304q0 -356 -125.5 -549t-392.5 -193q-141 0 -239.5 53.5t-159.5 150.5t-88 233.5t-27 304.5zM254 1638q0 47 36 77t93 30q53 0 89 -29.5t36 -77.5q0 -47 -36 -75.5t-89 -28.5 q-57 0 -93 28.5t-36 75.5zM279 717q0 -119 15 -225.5t54 -187.5t102.5 -129t161.5 -48q176 0 257 143.5t81 446.5q0 117 -15 224.5t-54 188t-104.5 129t-164.5 48.5q-174 0 -253.5 -144.5t-79.5 -445.5zM715 1638q0 47 34.5 77t88.5 30q59 0 94 -29.5t35 -77.5 q0 -47 -35 -75.5t-94 -28.5q-53 0 -88 28.5t-35 75.5z" />
<glyph unicode="&#xd7;" d="M248 430l262 264l-258 256l104 109l258 -260l260 260l105 -109l-258 -258l258 -260l-105 -106l-260 262l-260 -262z" />
<glyph unicode="&#xd8;" d="M29 717q0 358 151.5 549.5t431.5 191.5q117 0 207 -30.5t160 -90.5l86 123l106 -71l-104 -148q68 -98 100.5 -230t32.5 -294q0 -358 -152.5 -550t-435.5 -192q-219 0 -358 115l-80 -115l-106 74l96 137q-70 98 -102.5 231.5t-32.5 299.5zM209 717q0 -104 17.5 -196.5 t54.5 -170.5l593 842q-47 53 -111.5 84t-150.5 31q-188 0 -295.5 -144.5t-107.5 -445.5zM356 233q47 -51 110.5 -78.5t145.5 -27.5q190 0 299 144.5t109 445.5q0 98 -17.5 190t-52.5 168z" />
<glyph unicode="&#xd9;" d="M123 444v990h170v-910q0 -109 21.5 -183.5t63.5 -120.5t106.5 -66.5t150.5 -20.5q166 0 236.5 91t70.5 300v910h164v-957q0 -129 -34 -223t-95.5 -154.5t-149.5 -89t-194 -28.5q-254 0 -382 114.5t-128 347.5zM307 1739v43h233l242 -242h-152z" />
<glyph unicode="&#xda;" d="M123 444v990h170v-910q0 -109 21.5 -183.5t63.5 -120.5t106.5 -66.5t150.5 -20.5q166 0 236.5 91t70.5 300v910h164v-957q0 -129 -34 -223t-95.5 -154.5t-149.5 -89t-194 -28.5q-254 0 -382 114.5t-128 347.5zM504 1540l241 242h234v-43l-334 -199h-141z" />
<glyph unicode="&#xdb;" d="M123 444v990h170v-910q0 -109 21.5 -183.5t63.5 -120.5t106.5 -66.5t150.5 -20.5q166 0 236.5 91t70.5 300v910h164v-957q0 -129 -34 -223t-95.5 -154.5t-149.5 -89t-194 -28.5q-254 0 -382 114.5t-128 347.5zM246 1532l317 252h123l297 -252h-203l-158 133l-169 -133 h-207z" />
<glyph unicode="&#xdc;" d="M123 444v990h170v-910q0 -109 21.5 -183.5t63.5 -120.5t106.5 -66.5t150.5 -20.5q166 0 236.5 91t70.5 300v910h164v-957q0 -129 -34 -223t-95.5 -154.5t-149.5 -89t-194 -28.5q-254 0 -382 114.5t-128 347.5zM260 1638q0 47 36 77t93 30q53 0 89 -29.5t36 -77.5 q0 -47 -36 -75.5t-89 -28.5q-57 0 -93 28.5t-36 75.5zM721 1638q0 47 34.5 77t88.5 30q59 0 94 -29.5t35 -77.5q0 -47 -35 -75.5t-94 -28.5q-53 0 -88 28.5t-35 75.5z" />
<glyph unicode="&#xdd;" d="M18 1434h199l410 -709h2l399 709h182l-510 -883v-551h-170v549zM486 1540l241 242h234v-43l-334 -199h-141z" />
<glyph unicode="&#xde;" d="M186 0v1434h170v-154q20 2 49 3t60 2t58.5 1h49.5q94 0 191.5 -18.5t177.5 -67.5t130 -135t50 -219q0 -131 -47 -221t-125 -146.5t-178 -82t-207 -25.5h-39.5t-63.5 1t-64.5 3t-41.5 4v-379h-170zM356 532q10 -4 39 -5t61.5 -3t61.5 -2h39q70 0 138.5 13.5t123.5 49.5 t89 99.5t34 161.5q0 84 -31.5 140t-84 90t-117.5 48.5t-131 14.5h-59t-63.5 -2t-58 -4.5t-41.5 -6.5v-594z" />
<glyph unicode="&#xdf;" d="M76 881v143h160v47q0 199 97 287t269 88q84 0 153.5 -21.5t120 -61.5t78 -94.5t27.5 -121.5q0 -78 -39 -125t-85 -84t-85 -72t-39 -86q0 -45 31 -71.5t78 -47t100 -42t100.5 -56.5t78 -91t30.5 -146q0 -66 -24.5 -128.5t-70.5 -111.5t-116 -80t-158 -31q-47 0 -82.5 3.5 t-65.5 10.5t-56.5 17t-53.5 27l47 133q25 -12 43.5 -22.5t40 -16.5t48 -9t65.5 -3q43 0 83 15t70.5 42t48 64.5t17.5 82.5q0 61 -30.5 97.5t-78 61t-100.5 44t-100 49t-78 75.5t-31 124q0 80 39 128t85 86t85 73t39 88q0 35 -19.5 64.5t-50 50t-67.5 32t-72 11.5 q-57 0 -97 -14.5t-64.5 -47.5t-36 -87t-11.5 -134v-1020h-163v881h-160z" />
<glyph unicode="&#xe0;" d="M154 272q0 104 46 174t132 107t208 43t273 -16q10 94 3 156.5t-32.5 99t-71.5 52t-114 15.5q-92 0 -176 -25.5t-150 -52.5l-51 119q88 51 198.5 73.5t217.5 22.5q104 0 170.5 -32.5t104.5 -85t51.5 -119t13.5 -133.5q0 -78 -4 -166t-6 -176q0 -102 12 -195h137v-133h-272 l-19 154h-10q-12 -18 -36.5 -47t-64.5 -56.5t-97.5 -48t-135.5 -20.5q-152 0 -239.5 77.5t-87.5 212.5zM322 287q0 -68 45.5 -118t154.5 -50q57 0 106.5 18.5t86.5 47t61.5 62.5t36.5 64v144q-106 18 -196.5 18t-156 -19.5t-102 -60.5t-36.5 -106zM383 1475h224l133 -306 h-113z" />
<glyph unicode="&#xe1;" d="M154 272q0 104 46 174t132 107t208 43t273 -16q10 94 3 156.5t-32.5 99t-71.5 52t-114 15.5q-92 0 -176 -25.5t-150 -52.5l-51 119q88 51 198.5 73.5t217.5 22.5q104 0 170.5 -32.5t104.5 -85t51.5 -119t13.5 -133.5q0 -78 -4 -166t-6 -176q0 -102 12 -195h137v-133h-272 l-19 154h-10q-12 -18 -36.5 -47t-64.5 -56.5t-97.5 -48t-135.5 -20.5q-152 0 -239.5 77.5t-87.5 212.5zM322 287q0 -68 45.5 -118t154.5 -50q57 0 106.5 18.5t86.5 47t61.5 62.5t36.5 64v144q-106 18 -196.5 18t-156 -19.5t-102 -60.5t-36.5 -106zM479 1169l134 306h223 l-244 -306h-113z" />
<glyph unicode="&#xe2;" d="M154 272q0 104 46 174t132 107t208 43t273 -16q10 94 3 156.5t-32.5 99t-71.5 52t-114 15.5q-92 0 -176 -25.5t-150 -52.5l-51 119q88 51 198.5 73.5t217.5 22.5q104 0 170.5 -32.5t104.5 -85t51.5 -119t13.5 -133.5q0 -78 -4 -166t-6 -176q0 -102 12 -195h137v-133h-272 l-19 154h-10q-12 -18 -36.5 -47t-64.5 -56.5t-97.5 -48t-135.5 -20.5q-152 0 -239.5 77.5t-87.5 212.5zM285 1126l293 373h76l276 -373h-160l-166 224l-176 -224h-143zM322 287q0 -68 45.5 -118t154.5 -50q57 0 106.5 18.5t86.5 47t61.5 62.5t36.5 64v144q-106 18 -196.5 18 t-156 -19.5t-102 -60.5t-36.5 -106z" />
<glyph unicode="&#xe3;" d="M154 272q0 104 46 174t132 107t208 43t273 -16q10 94 3 156.5t-32.5 99t-71.5 52t-114 15.5q-92 0 -176 -25.5t-150 -52.5l-51 119q88 51 198.5 73.5t217.5 22.5q104 0 170.5 -32.5t104.5 -85t51.5 -119t13.5 -133.5q0 -78 -4 -166t-6 -176q0 -102 12 -195h137v-133h-272 l-19 154h-10q-12 -18 -36.5 -47t-64.5 -56.5t-97.5 -48t-135.5 -20.5q-152 0 -239.5 77.5t-87.5 212.5zM289 1339q59 68 122.5 95.5t104.5 27.5q35 0 65 -13t57.5 -28.5t53 -28t54.5 -12.5q45 0 94 50l72 -91q-53 -59 -99.5 -80.5t-101.5 -19.5q-33 0 -61.5 13.5t-56.5 28.5 t-55.5 27.5t-55.5 12.5q-27 0 -54.5 -14.5t-62.5 -49.5zM322 287q0 -68 45.5 -118t154.5 -50q57 0 106.5 18.5t86.5 47t61.5 62.5t36.5 64v144q-106 18 -196.5 18t-156 -19.5t-102 -60.5t-36.5 -106z" />
<glyph unicode="&#xe4;" d="M154 272q0 104 46 174t132 107t208 43t273 -16q10 94 3 156.5t-32.5 99t-71.5 52t-114 15.5q-92 0 -176 -25.5t-150 -52.5l-51 119q88 51 198.5 73.5t217.5 22.5q104 0 170.5 -32.5t104.5 -85t51.5 -119t13.5 -133.5q0 -78 -4 -166t-6 -176q0 -102 12 -195h137v-133h-272 l-19 154h-10q-12 -18 -36.5 -47t-64.5 -56.5t-97.5 -48t-135.5 -20.5q-152 0 -239.5 77.5t-87.5 212.5zM260 1321q0 53 32 87t85 34q51 0 84 -34t33 -87q0 -49 -33 -83t-84 -34q-53 0 -85 34t-32 83zM322 287q0 -68 45.5 -118t154.5 -50q57 0 106.5 18.5t86.5 47t61.5 62.5 t36.5 64v144q-106 18 -196.5 18t-156 -19.5t-102 -60.5t-36.5 -106zM717 1321q0 53 31.5 87t83.5 34q53 0 87 -34t34 -87q0 -49 -34 -83t-87 -34q-51 0 -83 34t-32 83z" />
<glyph unicode="&#xe5;" d="M154 272q0 104 46 174t132 107t208 43t273 -16q10 94 3 156.5t-32.5 99t-71.5 52t-114 15.5q-92 0 -176 -25.5t-150 -52.5l-51 119q88 51 198.5 73.5t217.5 22.5q104 0 170.5 -32.5t104.5 -85t51.5 -119t13.5 -133.5q0 -78 -4 -166t-6 -176q0 -102 12 -195h137v-133h-272 l-19 154h-10q-12 -18 -36.5 -47t-64.5 -56.5t-97.5 -48t-135.5 -20.5q-152 0 -239.5 77.5t-87.5 212.5zM322 287q0 -68 45.5 -118t154.5 -50q57 0 106.5 18.5t86.5 47t61.5 62.5t36.5 64v144q-106 18 -196.5 18t-156 -19.5t-102 -60.5t-36.5 -106zM406 1317q0 86 54 136 t144 50q86 0 143.5 -45t57.5 -141q0 -80 -57.5 -132t-143.5 -52t-142 48t-56 136zM516 1317q0 -41 27 -63.5t61 -22.5q39 0 64.5 20.5t25.5 65.5t-27.5 66.5t-62.5 21.5t-61.5 -20.5t-26.5 -67.5z" />
<glyph unicode="&#xe6;" d="M59 283q0 88 25 148.5t70 97t105 52t134 15.5h27.5t41 -1t41 -2t29.5 -1q2 29 3.5 55.5t1.5 48.5q0 59 -16.5 99.5t-42 64t-59.5 33.5t-71 10q-47 0 -102.5 -19.5t-93.5 -49.5l-39 118q51 45 121.5 66.5t146.5 21.5q35 0 73 -8t72.5 -24.5t61 -40t37.5 -56.5 q18 37 47.5 62.5t64.5 43t72 25t68 7.5q47 0 99 -15.5t95 -58.5t70.5 -117t27.5 -190q0 -41 -2 -96.5t-8 -102.5h-493q2 -197 67.5 -276.5t173.5 -79.5q25 0 51.5 5t52 12t46 17.5t30.5 20.5l50 -115q-41 -35 -114 -56.5t-151 -21.5q-41 0 -85 10.5t-82.5 30t-69.5 49 t-47 68.5h-8q-35 -72 -100.5 -110.5t-170.5 -38.5q-111 0 -180.5 81.5t-69.5 217.5zM211 297q0 -72 34.5 -124t112.5 -52q66 0 114 36t63 89v215q-6 0 -22.5 1t-34 2t-34 1h-22.5q-41 0 -80 -5t-67.5 -22.5t-46 -51.5t-17.5 -89zM670 602h358v37q0 137 -46 204.5t-105 67.5 q-37 0 -73 -18.5t-64.5 -57t-48 -96t-21.5 -137.5z" />
<glyph unicode="&#xe7;" d="M123 512q0 129 36 229.5t103.5 168t163.5 103.5t215 36q152 0 247 -27t161 -59l-2 -7v-284h-148v194q-47 16 -101.5 27.5t-107.5 11.5q-201 0 -299 -94t-98 -299q0 -90 28.5 -160.5t82 -120t128 -76t164.5 -26.5q96 0 187.5 33t152.5 86l72 -119q-53 -47 -155.5 -95 t-243.5 -57l-35 -65q86 -16 124 -53t38 -101q0 -80 -65.5 -132t-184.5 -52q-23 0 -45.5 2t-46.5 6l18 80q12 -2 22.5 -2h20.5q45 0 70.5 8t39 19.5t16.5 26t3 26.5q0 57 -176 76l86 164q-233 18 -352 161.5t-119 370.5z" />
<glyph unicode="&#xe8;" d="M129 512q0 129 36 229.5t103.5 168t163.5 103.5t215 36q86 0 170 -22.5t148.5 -85t99.5 -172.5t25 -284h-793q0 -184 99.5 -275t265.5 -91q55 0 109 13t103.5 31.5t87 41t58.5 41.5l63 -117q-37 -33 -87 -61.5t-109.5 -49t-124 -32t-129.5 -11.5q-123 0 -217 38 t-157.5 109t-96.5 169t-33 221zM303 629h637q-10 135 -87 209.5t-202 74.5q-68 0 -128 -14t-106 -48t-76 -88t-38 -134zM395 1475h224l133 -306h-113z" />
<glyph unicode="&#xe9;" d="M129 512q0 129 36 229.5t103.5 168t163.5 103.5t215 36q86 0 170 -22.5t148.5 -85t99.5 -172.5t25 -284h-793q0 -184 99.5 -275t265.5 -91q55 0 109 13t103.5 31.5t87 41t58.5 41.5l63 -117q-37 -33 -87 -61.5t-109.5 -49t-124 -32t-129.5 -11.5q-123 0 -217 38 t-157.5 109t-96.5 169t-33 221zM303 629h637q-10 135 -87 209.5t-202 74.5q-68 0 -128 -14t-106 -48t-76 -88t-38 -134zM507 1169l134 306h223l-244 -306h-113z" />
<glyph unicode="&#xea;" d="M129 512q0 129 36 229.5t103.5 168t163.5 103.5t215 36q86 0 170 -22.5t148.5 -85t99.5 -172.5t25 -284h-793q0 -184 99.5 -275t265.5 -91q55 0 109 13t103.5 31.5t87 41t58.5 41.5l63 -117q-37 -33 -87 -61.5t-109.5 -49t-124 -32t-129.5 -11.5q-123 0 -217 38 t-157.5 109t-96.5 169t-33 221zM297 1126l293 373h76l276 -373h-160l-166 224l-176 -224h-143zM303 629h637q-10 135 -87 209.5t-202 74.5q-68 0 -128 -14t-106 -48t-76 -88t-38 -134z" />
<glyph unicode="&#xeb;" d="M129 512q0 129 36 229.5t103.5 168t163.5 103.5t215 36q86 0 170 -22.5t148.5 -85t99.5 -172.5t25 -284h-793q0 -184 99.5 -275t265.5 -91q55 0 109 13t103.5 31.5t87 41t58.5 41.5l63 -117q-37 -33 -87 -61.5t-109.5 -49t-124 -32t-129.5 -11.5q-123 0 -217 38 t-157.5 109t-96.5 169t-33 221zM288 1321q0 53 32 87t85 34q51 0 84 -34t33 -87q0 -49 -33 -83t-84 -34q-53 0 -85 34t-32 83zM303 629h637q-10 135 -87 209.5t-202 74.5q-68 0 -128 -14t-106 -48t-76 -88t-38 -134zM745 1321q0 53 31.5 87t83.5 34q53 0 87 -34t34 -87 q0 -49 -34 -83t-87 -34q-51 0 -83 34t-32 83z" />
<glyph unicode="&#xec;" d="M299 0v137h356v750h-356v137h520v-887h348v-137h-868zM399 1475h224l133 -306h-113z" />
<glyph unicode="&#xed;" d="M215 0v137h356v750h-356v137h520v-887h348v-137h-868zM473 1169l134 306h223l-244 -306h-113z" />
<glyph unicode="&#xee;" d="M215 0v137h356v750h-356v137h520v-887h348v-137h-868zM268 1126l293 373h76l276 -373h-160l-166 224l-176 -224h-143z" />
<glyph unicode="&#xef;" d="M219 0v137h356v750h-356v137h520v-887h348v-137h-868zM268 1321q0 53 32 87t85 34q51 0 84 -34t33 -87q0 -49 -33 -83t-84 -34q-53 0 -85 34t-32 83zM725 1321q0 53 31.5 87t83.5 34q53 0 87 -34t34 -87q0 -49 -34 -83t-87 -34q-51 0 -83 34t-32 83z" />
<glyph unicode="&#xf0;" d="M113 514q0 106 31.5 202.5t94 169t156.5 115.5t217 43q92 0 170 -26.5t131 -67.5q-35 72 -94 141.5t-119 122.5l-155 -84l-56 91l117 63q-78 47 -155 66l71 110q37 -14 94.5 -38.5t118.5 -67.5l139 76l54 -93l-103 -55q49 -47 103.5 -109.5t100.5 -145.5t77 -187.5 t31 -235.5q0 -166 -43 -284.5t-116 -195.5t-167 -113t-195 -36q-133 0 -228 43t-156.5 117t-90 171t-28.5 208zM283 512q0 -100 26.5 -174t72.5 -123t108.5 -72.5t134.5 -23.5q66 0 128 26.5t111 84t79 147.5t30 217q0 20 -1 46t-2 51.5t-4 49t-8 39.5q-29 31 -69.5 53.5 t-84.5 38t-90 22.5t-85 7q-90 0 -154.5 -30.5t-107.5 -83t-63.5 -123t-20.5 -152.5z" />
<glyph unicode="&#xf1;" d="M37 891v133h274l19 -166h10q20 35 54 69t79 61.5t100.5 44t116.5 16.5q94 0 167 -20.5t121 -73t72.5 -141.5t24.5 -226v-588h-160v557q0 170 -55 256t-201 86q-53 0 -103 -21.5t-91 -56.5t-72 -81t-45 -97v-643h-158v666q0 18 -1 47.5t-3 61.5t-5 62.5t-7 53.5h-137z M299 1339q59 68 122.5 95.5t104.5 27.5q35 0 65 -13t57.5 -28.5t53 -28t54.5 -12.5q45 0 94 50l72 -91q-53 -59 -99.5 -80.5t-101.5 -19.5q-33 0 -61.5 13.5t-56.5 28.5t-55.5 27.5t-55.5 12.5q-27 0 -54.5 -14.5t-62.5 -49.5z" />
<glyph unicode="&#xf2;" d="M117 512q0 248 129 392.5t368 144.5q129 0 222.5 -42t155 -114t91 -170t29.5 -211q0 -123 -32.5 -222.5t-96 -169t-157 -107.5t-212.5 -38q-127 0 -221 42t-155.5 114t-91 170t-29.5 211zM287 512q0 -72 17.5 -143.5t56 -129t101 -92t152.5 -34.5q164 0 247 101t83 298 q0 74 -17.5 144.5t-57.5 128t-102 92t-153 34.5q-164 0 -245.5 -100t-81.5 -299zM340 1475h224l133 -306h-113z" />
<glyph unicode="&#xf3;" d="M117 512q0 248 129 392.5t368 144.5q129 0 222.5 -42t155 -114t91 -170t29.5 -211q0 -123 -32.5 -222.5t-96 -169t-157 -107.5t-212.5 -38q-127 0 -221 42t-155.5 114t-91 170t-29.5 211zM287 512q0 -72 17.5 -143.5t56 -129t101 -92t152.5 -34.5q164 0 247 101t83 298 q0 74 -17.5 144.5t-57.5 128t-102 92t-153 34.5q-164 0 -245.5 -100t-81.5 -299zM530 1169l134 306h223l-244 -306h-113z" />
<glyph unicode="&#xf4;" d="M117 512q0 248 129 392.5t368 144.5q129 0 222.5 -42t155 -114t91 -170t29.5 -211q0 -123 -32.5 -222.5t-96 -169t-157 -107.5t-212.5 -38q-127 0 -221 42t-155.5 114t-91 170t-29.5 211zM287 512q0 -72 17.5 -143.5t56 -129t101 -92t152.5 -34.5q164 0 247 101t83 298 q0 74 -17.5 144.5t-57.5 128t-102 92t-153 34.5q-164 0 -245.5 -100t-81.5 -299zM295 1126l293 373h76l276 -373h-160l-166 224l-176 -224h-143z" />
<glyph unicode="&#xf5;" d="M117 512q0 248 129 392.5t368 144.5q129 0 222.5 -42t155 -114t91 -170t29.5 -211q0 -123 -32.5 -222.5t-96 -169t-157 -107.5t-212.5 -38q-127 0 -221 42t-155.5 114t-91 170t-29.5 211zM287 512q0 -72 17.5 -143.5t56 -129t101 -92t152.5 -34.5q164 0 247 101t83 298 q0 74 -17.5 144.5t-57.5 128t-102 92t-153 34.5q-164 0 -245.5 -100t-81.5 -299zM301 1339q59 68 122.5 95.5t104.5 27.5q35 0 65 -13t57.5 -28.5t53 -28t54.5 -12.5q45 0 94 50l72 -91q-53 -59 -99.5 -80.5t-101.5 -19.5q-33 0 -61.5 13.5t-56.5 28.5t-55.5 27.5 t-55.5 12.5q-27 0 -54.5 -14.5t-62.5 -49.5z" />
<glyph unicode="&#xf6;" d="M117 512q0 248 129 392.5t368 144.5q129 0 222.5 -42t155 -114t91 -170t29.5 -211q0 -123 -32.5 -222.5t-96 -169t-157 -107.5t-212.5 -38q-127 0 -221 42t-155.5 114t-91 170t-29.5 211zM266 1321q0 53 32 87t85 34q51 0 84 -34t33 -87q0 -49 -33 -83t-84 -34 q-53 0 -85 34t-32 83zM287 512q0 -72 17.5 -143.5t56 -129t101 -92t152.5 -34.5q164 0 247 101t83 298q0 74 -17.5 144.5t-57.5 128t-102 92t-153 34.5q-164 0 -245.5 -100t-81.5 -299zM723 1321q0 53 31.5 87t83.5 34q53 0 87 -34t34 -87q0 -49 -34 -83t-87 -34 q-51 0 -83 34t-32 83z" />
<glyph unicode="&#xf7;" d="M139 618v148h951v-148h-951zM479 326q0 66 37 101.5t98 35.5q66 0 103 -36t37 -101q0 -59 -37 -98.5t-103 -39.5q-61 0 -98 39.5t-37 98.5zM479 1094q0 66 37 101.5t98 35.5q66 0 103 -36t37 -101q0 -59 -37 -98.5t-103 -39.5q-61 0 -98 39.5t-37 98.5z" />
<glyph unicode="&#xf8;" d="M117 512q0 248 129 392.5t368 144.5q129 0 222 -43q16 -6 30 -15l47 64l111 -76l-49 -68l16 -18q61 -72 91 -170t30 -211q0 -123 -32.5 -222.5t-96 -169t-157 -107.5t-212.5 -38q-127 0 -221 41q-23 10 -45 23l-49 -70l-106 76l53 76q-4 4 -8 10q-61 72 -91 170t-30 211z M287 512q0 -72 16 -143q14 -59 43 -109l434 608q-6 4 -14 9q-61 35 -152 34q-164 0 -245.5 -100t-81.5 -299zM436 162l25 -15q63 -35 153 -34q164 0 247 101t83 298q0 74 -18 143q-14 66 -49 119z" />
<glyph unicode="&#xf9;" d="M51 887v137h297v-555q0 -84 7 -150.5t30 -112.5t67 -69.5t117 -23.5q106 0 185.5 69.5t119.5 173.5v531h-131v137h291v-698q0 -100 13 -193h137v-133h-273l-6 174h-8q-53 -88 -141 -143.5t-213 -55.5q-94 0 -161 21.5t-110 75t-63.5 142.5t-20.5 222v451h-137zM303 1475 h224l133 -306h-113z" />
<glyph unicode="&#xfa;" d="M51 887v137h297v-555q0 -84 7 -150.5t30 -112.5t67 -69.5t117 -23.5q106 0 185.5 69.5t119.5 173.5v531h-131v137h291v-698q0 -100 13 -193h137v-133h-273l-6 174h-8q-53 -88 -141 -143.5t-213 -55.5q-94 0 -161 21.5t-110 75t-63.5 142.5t-20.5 222v451h-137zM448 1169 l134 306h223l-244 -306h-113z" />
<glyph unicode="&#xfb;" d="M51 887v137h297v-555q0 -84 7 -150.5t30 -112.5t67 -69.5t117 -23.5q106 0 185.5 69.5t119.5 173.5v531h-131v137h291v-698q0 -100 13 -193h137v-133h-273l-6 174h-8q-53 -88 -141 -143.5t-213 -55.5q-94 0 -161 21.5t-110 75t-63.5 142.5t-20.5 222v451h-137zM283 1126 l293 373h76l276 -373h-160l-166 224l-176 -224h-143z" />
<glyph unicode="&#xfc;" d="M51 887v137h297v-555q0 -84 7 -150.5t30 -112.5t67 -69.5t117 -23.5q106 0 185.5 69.5t119.5 173.5v531h-131v137h291v-698q0 -100 13 -193h137v-133h-273l-6 174h-8q-53 -88 -141 -143.5t-213 -55.5q-94 0 -161 21.5t-110 75t-63.5 142.5t-20.5 222v451h-137zM256 1321 q0 53 32 87t85 34q51 0 84 -34t33 -87q0 -49 -33 -83t-84 -34q-53 0 -85 34t-32 83zM713 1321q0 53 31.5 87t83.5 34q53 0 87 -34t34 -87q0 -49 -34 -83t-87 -34q-51 0 -83 34t-32 83z" />
<glyph unicode="&#xfd;" d="M94 1024h185l358 -866h78l254 866h166l-285 -920q-23 -72 -46.5 -163t-66.5 -170.5t-116.5 -135t-192.5 -55.5q-27 0 -56.5 6t-58 15.5t-53 21.5t-37.5 25l58 147q12 -10 33.5 -20.5t47 -17.5t50 -12t41.5 -5q154 0 209 260h-138zM559 1169l134 306h223l-244 -306h-113z " />
<glyph unicode="&#xfe;" d="M43 1300v134h311v-553q47 66 132 117t208 51q219 0 330 -121t111 -396q0 -129 -38 -232t-107.5 -175t-168 -111t-217.5 -39q-43 0 -76.5 3.5t-61.5 8.5t-54.5 13t-57.5 20v-430h-157v1710h-154zM354 178q45 -31 101.5 -48t148.5 -17q164 0 262.5 107.5t98.5 314.5 q0 174 -68.5 269t-228.5 95q-61 0 -115.5 -22.5t-96.5 -59.5t-69 -82t-33 -90v-467z" />
<glyph unicode="&#xff;" d="M94 1024h185l358 -866h78l254 866h166l-285 -920q-23 -72 -46.5 -163t-66.5 -170.5t-116.5 -135t-192.5 -55.5q-27 0 -56.5 6t-58 15.5t-53 21.5t-37.5 25l58 147q12 -10 33.5 -20.5t47 -17.5t50 -12t41.5 -5q154 0 209 260h-138zM286 1321q0 53 32 87t85 34q51 0 84 -34 t33 -87q0 -49 -33 -83t-84 -34q-53 0 -85 34t-32 83zM743 1321q0 53 31.5 87t83.5 34q53 0 87 -34t34 -87q0 -49 -34 -83t-87 -34q-51 0 -83 34t-32 83z" />
<glyph unicode="&#x100;" d="M33 0l479 1434h201l483 -1434h-178l-135 397h-551l-131 -397h-168zM289 1599v127h647v-127h-647zM385 545h451l-211 674h-25z" />
<glyph unicode="&#x101;" d="M154 272q0 104 46 174t132 107t208 43t273 -16q10 94 3 156.5t-32.5 99t-71.5 52t-114 15.5q-92 0 -176 -25.5t-150 -52.5l-51 119q88 51 198.5 73.5t217.5 22.5q104 0 170.5 -32.5t104.5 -85t51.5 -119t13.5 -133.5q0 -78 -4 -166t-6 -176q0 -102 12 -195h137v-133h-272 l-19 154h-10q-12 -18 -36.5 -47t-64.5 -56.5t-97.5 -48t-135.5 -20.5q-152 0 -239.5 77.5t-87.5 212.5zM322 287q0 -68 45.5 -118t154.5 -50q57 0 106.5 18.5t86.5 47t61.5 62.5t36.5 64v144q-106 18 -196.5 18t-156 -19.5t-102 -60.5t-36.5 -106zM340 1190v127h607v-127 h-607z" />
<glyph unicode="&#x102;" d="M33 0l479 1434h201l483 -1434h-178l-135 397h-551l-131 -397h-168zM246 1720l104 64q35 -70 106.5 -108t168.5 -38q98 0 165.5 43t96.5 103l96 -53q-45 -117 -144.5 -176.5t-215.5 -59.5q-55 0 -110.5 12.5t-107 39t-92.5 69.5t-67 104zM385 545h451l-211 674h-25z" />
<glyph unicode="&#x103;" d="M154 272q0 104 46 174t132 107t208 43t273 -16q10 94 3 156.5t-32.5 99t-71.5 52t-114 15.5q-92 0 -176 -25.5t-150 -52.5l-51 119q88 51 198.5 73.5t217.5 22.5q104 0 170.5 -32.5t104.5 -85t51.5 -119t13.5 -133.5q0 -78 -4 -166t-6 -176q0 -102 12 -195h137v-133h-272 l-19 154h-10q-12 -18 -36.5 -47t-64.5 -56.5t-97.5 -48t-135.5 -20.5q-152 0 -239.5 77.5t-87.5 212.5zM322 287q0 -68 45.5 -118t154.5 -50q57 0 106.5 18.5t86.5 47t61.5 62.5t36.5 64v144q-106 18 -196.5 18t-156 -19.5t-102 -60.5t-36.5 -106zM330 1427l92 48 q37 -74 98.5 -116t131.5 -42t126 41t91 117l86 -37q-6 -49 -32 -97.5t-66 -85t-93 -59t-114 -22.5q-57 0 -108.5 17t-93.5 51t-73 80t-45 105z" />
<glyph unicode="&#x104;" d="M33 0l479 1434h201l483 -1434h-59q-43 -27 -72 -61q-41 -51 -41 -117q0 -41 26.5 -73t77.5 -32q39 0 82 21l23 -88q-31 -25 -82 -37t-94 -12q-92 0 -147.5 49t-55.5 133t55 143q43 45 107 76l-133 395h-551l-131 -397h-168zM385 545h451l-211 674h-25z" />
<glyph unicode="&#x105;" d="M154 272q0 104 46 174t132 107t208 43t273 -16q10 94 3 156.5t-32.5 99t-71.5 52t-114 15.5q-92 0 -176 -25.5t-150 -52.5l-51 119q88 51 198.5 73.5t217.5 22.5q104 0 170.5 -32.5t104.5 -85t51.5 -119t13.5 -133.5q0 -78 -4 -166t-6 -176q0 -102 12 -195h137v-133h-43 q-43 -27 -72 -61q-41 -51 -40 -117q0 -41 26.5 -73t77.5 -32q39 0 82 21l22 -88q-31 -25 -82 -37t-94 -12q-92 0 -147 49t-55 133t55 143q41 43 104 74h-106l-19 154h-10q-12 -18 -36.5 -47t-64.5 -56.5t-97.5 -48t-135.5 -20.5q-152 0 -239.5 77.5t-87.5 212.5zM322 287 q0 -68 45.5 -118t154.5 -50q57 0 106.5 18.5t86.5 47t61.5 62.5t36.5 64v144q-106 18 -196.5 18t-156 -19.5t-102 -60.5t-36.5 -106z" />
<glyph unicode="&#x106;" d="M133 717q0 201 49 341t133 229t196 130t239 41q70 0 121 -5t89.5 -14t68.5 -23.5t58 -33.5h3v-323h-152v219q-35 14 -77 21.5t-101 7.5q-84 0 -165 -31t-143.5 -100.5t-100.5 -182t-38 -276.5q0 -147 34 -258t94.5 -184.5t145.5 -110.5t189 -37q53 0 99.5 9t85.5 26v205 h151v-277l2 -4q-61 -47 -155.5 -79t-229.5 -32q-129 0 -238.5 44t-189.5 134.5t-124 230.5t-44 333zM600 1540l241 242h234v-43l-334 -199h-141z" />
<glyph unicode="&#x107;" d="M123 512q0 129 36 229.5t103.5 168t163.5 103.5t215 36q152 0 247 -27t161 -59l-2 -7v-284h-148v194q-47 16 -101.5 27.5t-107.5 11.5q-201 0 -299 -94t-98 -299q0 -90 28.5 -160.5t82 -120t128 -76t164.5 -26.5q96 0 187.5 33t152.5 86l72 -119q-29 -25 -72 -51.5 t-99 -50t-125 -38t-148 -14.5q-133 0 -234.5 38t-169 109t-102.5 170t-35 220zM559 1169l134 306h223l-244 -306h-113z" />
<glyph unicode="&#x108;" d="M133 717q0 201 49 341t133 229t196 130t239 41q70 0 121 -5t89.5 -14t68.5 -23.5t58 -33.5h3v-323h-152v219q-35 14 -77 21.5t-101 7.5q-84 0 -165 -31t-143.5 -100.5t-100.5 -182t-38 -276.5q0 -147 34 -258t94.5 -184.5t145.5 -110.5t189 -37q53 0 99.5 9t85.5 26v205 h151v-277l2 -4q-61 -47 -155.5 -79t-229.5 -32q-129 0 -238.5 44t-189.5 134.5t-124 230.5t-44 333zM326 1532l317 252h123l297 -252h-203l-158 133l-169 -133h-207z" />
<glyph unicode="&#x109;" d="M123 512q0 129 36 229.5t103.5 168t163.5 103.5t215 36q152 0 247 -27t161 -59l-2 -7v-284h-148v194q-47 16 -101.5 27.5t-107.5 11.5q-201 0 -299 -94t-98 -299q0 -90 28.5 -160.5t82 -120t128 -76t164.5 -26.5q96 0 187.5 33t152.5 86l72 -119q-29 -25 -72 -51.5 t-99 -50t-125 -38t-148 -14.5q-133 0 -234.5 38t-169 109t-102.5 170t-35 220zM275 1126l293 373h76l276 -373h-160l-166 224l-176 -224h-143z" />
<glyph unicode="&#x10c;" d="M133 717q0 201 49 341t133 229t196 130t239 41q70 0 121 -5t89.5 -14t68.5 -23.5t58 -33.5h3v-323h-152v219q-35 14 -77 21.5t-101 7.5q-84 0 -165 -31t-143.5 -100.5t-100.5 -182t-38 -276.5q0 -147 34 -258t94.5 -184.5t145.5 -110.5t189 -37q53 0 99.5 9t85.5 26v205 h151v-277l2 -4q-61 -47 -155.5 -79t-229.5 -32q-129 0 -238.5 44t-189.5 134.5t-124 230.5t-44 333zM346 1782h213l157 -137l166 137h191l-303 -254h-119z" />
<glyph unicode="&#x10d;" d="M123 512q0 129 36 229.5t103.5 168t163.5 103.5t215 36q152 0 247 -27t161 -59l-2 -7v-284h-148v194q-47 16 -101.5 27.5t-107.5 11.5q-201 0 -299 -94t-98 -299q0 -90 28.5 -160.5t82 -120t128 -76t164.5 -26.5q96 0 187.5 33t152.5 86l72 -119q-29 -25 -72 -51.5 t-99 -50t-125 -38t-148 -14.5q-133 0 -234.5 38t-169 109t-102.5 170t-35 220zM289 1499h160l165 -223l177 223h143l-293 -373h-76z" />
<glyph unicode="&#x10e;" d="M164 -2v1436q78 10 163 13t144 3q186 0 312 -53.5t203 -148.5t110.5 -228t33.5 -293q0 -145 -30.5 -279.5t-106 -238t-203.5 -165.5t-321 -62q-27 0 -70 1t-88 4t-86 5t-61 6zM195 1782h213l157 -137l166 137h191l-303 -254h-119zM334 141q10 -2 29.5 -3t40 -2t40 -2 t31.5 -1q150 0 243 49t144 132t69.5 190.5t18.5 222.5q0 100 -16 201.5t-66.5 183.5t-143.5 134t-245 52q-29 0 -73 -2t-72 -8v-1147z" />
<glyph unicode="&#x10f;" d="M115 510q0 129 36.5 228.5t105.5 166t165 101t215 34.5q43 0 77 -2t62.5 -6t54 -11t56.5 -15v290h-172v138h332v-1084q0 -18 2 -46t5 -58.5t7 -60t8 -52.5h137v-133h-272l-21 158h-8q-45 -78 -134 -130.5t-206 -52.5q-231 0 -340.5 130.5t-109.5 404.5zM285 510 q0 -84 15 -156.5t51 -126t95.5 -84t145.5 -30.5q125 0 196.5 64.5t98.5 193.5v475q-45 31 -101.5 45t-148.5 14q-164 0 -258 -95t-94 -300zM1143 1079q35 74 53 167t18 188h164q-4 -59 -24.5 -122t-46 -116t-52 -94t-45.5 -60z" />
<glyph unicode="&#x110;" d="M18 680v123h185v631q78 10 177 13t185 3q172 0 292 -53.5t194.5 -148.5t107.5 -228t33 -293q0 -145 -31 -279.5t-105.5 -238t-199.5 -165.5t-311 -62q-33 0 -82 1t-100.5 4t-95.5 5t-64 6v682h-185zM373 141q10 -2 34.5 -3t52 -2t53.5 -2t36 -1q143 0 234 49t141.5 132 t69 190.5t18.5 222.5q0 100 -16.5 201.5t-64.5 183.5t-134.5 134t-227.5 52q-53 0 -110.5 -2t-85.5 -8v-485h280v-123h-280v-539z" />
<glyph unicode="&#x111;" d="M115 510q0 129 36.5 228.5t105.5 166t165 101t215 34.5q43 0 77 -2t62.5 -6t54 -11t56.5 -15v165h-338v123h338v140h160v-140h153v-123h-153v-821q0 -18 2 -46t5 -58.5t7 -60t8 -52.5h137v-133h-272l-21 158h-8q-45 -78 -134 -130.5t-206 -52.5q-231 0 -340.5 130.5 t-109.5 404.5zM285 510q0 -84 15 -156.5t51 -126t95.5 -84t145.5 -30.5q125 0 196.5 64.5t98.5 193.5v475q-45 31 -101.5 45t-148.5 14q-164 0 -258 -95t-94 -300z" />
<glyph unicode="&#x112;" d="M219 0v1434h842v-152h-672v-469h621v-151h-621v-510h682v-152h-852zM309 1599v127h647v-127h-647z" />
<glyph unicode="&#x113;" d="M129 512q0 129 36 229.5t103.5 168t163.5 103.5t215 36q86 0 170 -22.5t148.5 -85t99.5 -172.5t25 -284h-793q0 -184 99.5 -275t265.5 -91q55 0 109 13t103.5 31.5t87 41t58.5 41.5l63 -117q-37 -33 -87 -61.5t-109.5 -49t-124 -32t-129.5 -11.5q-123 0 -217 38 t-157.5 109t-96.5 169t-33 221zM303 629h637q-10 135 -87 209.5t-202 74.5q-68 0 -128 -14t-106 -48t-76 -88t-38 -134zM334 1190v127h607v-127h-607z" />
<glyph unicode="&#x116;" d="M219 0v1434h842v-152h-672v-469h621v-151h-621v-510h682v-152h-852zM508 1628q0 47 37 82t102 35q66 0 105 -35t39 -82q0 -51 -39 -86t-105 -35t-102.5 35t-36.5 86z" />
<glyph unicode="&#x117;" d="M129 512q0 129 36 229.5t103.5 168t163.5 103.5t215 36q86 0 170 -22.5t148.5 -85t99.5 -172.5t25 -284h-793q0 -184 99.5 -275t265.5 -91q55 0 109 13t103.5 31.5t87 41t58.5 41.5l63 -117q-37 -33 -87 -61.5t-109.5 -49t-124 -32t-129.5 -11.5q-123 0 -217 38 t-157.5 109t-96.5 169t-33 221zM303 629h637q-10 135 -87 209.5t-202 74.5q-68 0 -128 -14t-106 -48t-76 -88t-38 -134zM518 1315q0 55 37 95t94 40q59 0 99.5 -40t40.5 -95q0 -53 -40 -90t-100 -37q-57 0 -94 37t-37 90z" />
<glyph unicode="&#x118;" d="M219 0v1434h842v-152h-672v-469h621v-151h-621v-510h682v-152h-41q-43 -27 -72 -61q-41 -51 -40 -117q0 -41 26.5 -73t77.5 -32q39 0 82 21l22 -88q-31 -25 -82 -37t-94 -12q-92 0 -147 49t-55 133t55 143q41 43 104 74h-688z" />
<glyph unicode="&#x119;" d="M129 512q0 129 36 229.5t103.5 168t163.5 103.5t215 36q86 0 170 -22.5t148.5 -85t99.5 -172.5t25 -284h-793q0 -184 99.5 -275t265.5 -91q55 0 109 13t103.5 31.5t87 41t58.5 41.5l63 -117q-37 -33 -87 -61.5t-109 -49.5q-16 -6 -31 -10q-53 -29 -86 -69 q-41 -51 -41 -117q0 -41 26.5 -73t78.5 -32q39 0 81 21l23 -88q-31 -25 -82 -37t-94 -12q-92 0 -147.5 49t-55.5 133t55 143q27 29 62 51q-23 -2 -43 -2q-123 0 -217 38t-157.5 109t-96.5 169t-33 221zM303 629h637q-10 135 -87 209.5t-202 74.5q-68 0 -128 -14t-106 -48 t-76 -88t-38 -134z" />
<glyph unicode="&#x11a;" d="M219 0v1434h842v-152h-672v-469h621v-151h-621v-510h682v-152h-852zM264 1782h213l157 -137l166 137h191l-303 -254h-119z" />
<glyph unicode="&#x11b;" d="M129 512q0 129 36 229.5t103.5 168t163.5 103.5t215 36q86 0 170 -22.5t148.5 -85t99.5 -172.5t25 -284h-793q0 -184 99.5 -275t265.5 -91q55 0 109 13t103.5 31.5t87 41t58.5 41.5l63 -117q-37 -33 -87 -61.5t-109.5 -49t-124 -32t-129.5 -11.5q-123 0 -217 38 t-157.5 109t-96.5 169t-33 221zM303 629h637q-10 135 -87 209.5t-202 74.5q-68 0 -128 -14t-106 -48t-76 -88t-38 -134zM314 1499h160l165 -223l177 223h143l-293 -373h-76z" />
<glyph unicode="&#x11c;" d="M109 717q0 199 51 340t135 230t192.5 130t223.5 41q123 0 202.5 -13t135.5 -36l-2 -8v-342h-152v233q-70 14 -170 15q-86 0 -165 -30t-139.5 -99.5t-96 -182t-35.5 -278.5q0 -303 111.5 -446.5t322.5 -143.5q131 0 223 51v400h-295v137h441v-631q-33 -25 -79 -45.5 t-98.5 -34.5t-108.5 -21.5t-110 -7.5q-137 0 -245.5 44t-184.5 135.5t-116.5 231.5t-40.5 331zM314 1532l317 252h123l297 -252h-203l-158 133l-169 -133h-207z" />
<glyph unicode="&#x11d;" d="M141 510q0 262 139.5 396t413.5 134q127 0 216 -17t163 -44v-1030q0 -96 -37 -169t-101.5 -120t-150.5 -70.5t-186 -23.5q-121 0 -211 24.5t-156 63.5l78 145q18 -16 48 -31.5t69 -28.5t83 -21.5t87 -8.5q90 0 150.5 16.5t97.5 51.5t53 90t16 135v115h-8 q-47 -68 -120.5 -105t-190.5 -37q-233 0 -343 130.5t-110 404.5zM309 512q0 -88 16.5 -160.5t52.5 -126t94 -83t144 -29.5q125 0 197 64.5t100 197.5v485q-90 43 -251 43q-164 0 -258.5 -96t-94.5 -295zM320 1126l293 373h76l276 -373h-160l-166 224l-176 -224h-143z" />
<glyph unicode="&#x11e;" d="M109 717q0 199 51 340t135 230t192.5 130t223.5 41q123 0 202.5 -13t135.5 -36l-2 -8v-342h-152v233q-70 14 -170 15q-86 0 -165 -30t-139.5 -99.5t-96 -182t-35.5 -278.5q0 -303 111.5 -446.5t322.5 -143.5q131 0 223 51v400h-295v137h441v-631q-33 -25 -79 -45.5 t-98.5 -34.5t-108.5 -21.5t-110 -7.5q-137 0 -245.5 44t-184.5 135.5t-116.5 231.5t-40.5 331zM305 1720l104 64q35 -70 106.5 -108t168.5 -38q98 0 165.5 43t96.5 103l96 -53q-45 -117 -144.5 -176.5t-215.5 -59.5q-55 0 -110.5 12.5t-107 39t-92.5 69.5t-67 104z" />
<glyph unicode="&#x11f;" d="M141 510q0 262 139.5 396t413.5 134q127 0 216 -17t163 -44v-1030q0 -96 -37 -169t-101.5 -120t-150.5 -70.5t-186 -23.5q-121 0 -211 24.5t-156 63.5l78 145q18 -16 48 -31.5t69 -28.5t83 -21.5t87 -8.5q90 0 150.5 16.5t97.5 51.5t53 90t16 135v115h-8 q-47 -68 -120.5 -105t-190.5 -37q-233 0 -343 130.5t-110 404.5zM309 512q0 -88 16.5 -160.5t52.5 -126t94 -83t144 -29.5q125 0 197 64.5t100 197.5v485q-90 43 -251 43q-164 0 -258.5 -96t-94.5 -295zM324 1427l92 48q37 -74 98.5 -116t131.5 -42t126 41t91 117l86 -37 q-6 -49 -32 -97.5t-66 -85t-93 -59t-114 -22.5q-57 0 -108.5 17t-93.5 51t-73 80t-45 105z" />
<glyph unicode="&#x122;" d="M109 717q0 199 51 340t135 230t192.5 130t223.5 41q123 0 202.5 -13t135.5 -36l-2 -8v-342h-152v233q-70 14 -170 15q-86 0 -165 -30t-139.5 -99.5t-96 -182t-35.5 -278.5q0 -303 111.5 -446.5t322.5 -143.5q131 0 223 51v400h-295v137h441v-631q-33 -25 -79 -45.5 t-98.5 -34.5t-108.5 -21.5t-110 -7.5q-137 0 -245.5 44t-184.5 135.5t-116.5 231.5t-40.5 331zM576 -188q0 43 31.5 69.5t72.5 26.5q51 0 91 -36t40 -118q0 -53 -18.5 -93t-44 -69.5t-53 -47t-48.5 -25.5l-57 65q41 23 65.5 57.5t24.5 84.5q-8 -2 -20 -2q-37 0 -60.5 24.5 t-23.5 63.5z" />
<glyph unicode="&#x123;" d="M141 510q0 262 139.5 396t413.5 134q127 0 216 -17t163 -44v-1030q0 -96 -37 -169t-101.5 -120t-150.5 -70.5t-186 -23.5q-121 0 -211 24.5t-156 63.5l78 145q18 -16 48 -31.5t69 -28.5t83 -21.5t87 -8.5q90 0 150.5 16.5t97.5 51.5t53 90t16 135v115h-8 q-47 -68 -120.5 -105t-190.5 -37q-233 0 -343 130.5t-110 404.5zM309 512q0 -88 16.5 -160.5t52.5 -126t94 -83t144 -29.5q125 0 197 64.5t100 197.5v485q-90 43 -251 43q-164 0 -258.5 -96t-94.5 -295zM530 1284q0 53 18.5 93t44 69.5t53 47t48.5 25.5l57 -65 q-41 -23 -65.5 -57.5t-24.5 -84.5q8 2 20 2q37 0 60.5 -24.5t23.5 -63.5q0 -43 -31.5 -69.5t-72.5 -26.5q-51 0 -91 36t-40 118z" />
<glyph unicode="&#x124;" d="M123 0v1434h170v-625h643v625h170v-1434h-170v657h-643v-657h-170zM240 1532l317 252h123l297 -252h-203l-158 133l-169 -133h-207z" />
<glyph unicode="&#x125;" d="M-73 1532l317 252h123l297 -252h-203l-158 133l-169 -133h-207zM8 1296v138h320v-537h10q63 72 147 112t209 40q98 0 171 -20.5t119 -72t68.5 -140.5t22.5 -226v-590h-160v559q0 88 -10 153.5t-39.5 109.5t-81 66.5t-131.5 22.5q-55 0 -108 -19.5t-97.5 -53t-76 -81.5 t-43.5 -106v-651h-158v1296h-162z" />
<glyph unicode="&#x126;" d="M20 1071v131h162v232h170v-232h525v232h170v-232h161v-131h-161v-1071h-170v657h-525v-657h-170v1071h-162zM352 809h525v262h-525v-262z" />
<glyph unicode="&#x127;" d="M6 1171v123h164v140h158v-140h334v-123h-334v-274h10q63 72 147 112t209 40q98 0 171 -20.5t119 -72t68.5 -140.5t22.5 -226v-590h-160v559q0 88 -10 153.5t-39.5 109.5t-81 66.5t-131.5 22.5q-55 0 -108 -19.5t-97.5 -53t-76 -81.5t-43.5 -106v-651h-158v1171h-164z" />
<glyph unicode="&#x12a;" d="M123 0v152h405v1130h-405v152h983v-152h-408v-1130h408v-152h-983zM291 1599v127h647v-127h-647z" />
<glyph unicode="&#x12b;" d="M215 0v137h356v750h-356v137h520v-887h348v-137h-868zM311 1190v127h607v-127h-607z" />
<glyph unicode="&#x12e;" d="M123 0v152h405v1130h-405v152h983v-152h-408v-1130h408v-152h-154q-43 -27 -71 -61q-41 -51 -41 -117q0 -41 26.5 -73t77.5 -32q39 0 82 21l23 -88q-31 -25 -82.5 -37t-94.5 -12q-92 0 -147 49t-55 133t55 143q41 43 104 74h-706z" />
<glyph unicode="&#x12f;" d="M215 0v137h356v750h-356v137h520v-887h348v-137h-151q-43 -27 -72 -61q-41 -51 -41 -117q0 -41 26.5 -73t78.5 -32q39 0 82 21l22 -88q-31 -25 -82 -37t-94 -12q-92 0 -147.5 49t-55.5 133t56 143q41 43 104 74h-594zM516 1315q0 55 37 95t94 40q59 0 99 -40t40 -95 q0 -53 -39.5 -90t-99.5 -37q-57 0 -94 37t-37 90z" />
<glyph unicode="&#x130;" d="M123 0v152h405v1130h-405v152h983v-152h-408v-1130h408v-152h-983zM475 1628q0 47 37 82t102 35q66 0 105 -35t39 -82q0 -51 -39 -86t-105 -35t-102.5 35t-36.5 86z" />
<glyph unicode="&#x131;" d="M215 0v137h356v750h-356v137h520v-887h348v-137h-868z" />
<glyph unicode="&#x134;" d="M172 94l74 135q23 -14 50.5 -30.5t61 -31.5t75.5 -25.5t95 -10.5q154 0 233 96.5t79 311.5v743h-641v152h811v-926q0 -258 -123 -393t-355 -135q-59 0 -116.5 10t-106.5 27.5t-85 38t-52 38.5zM260 1532l317 252h123l297 -252h-203l-158 133l-169 -133h-207z" />
<glyph unicode="&#x135;" d="M219 -313l67 133q55 -41 126 -72t147 -31q123 0 175 77t52 212v881h-495v137h659v-1049q0 -207 -105.5 -308t-291.5 -101q-55 0 -107.5 14t-97.5 33.5t-79 40t-50 33.5zM303 1126l293 373h76l276 -373h-160l-166 224l-176 -224h-143z" />
<glyph unicode="&#x136;" d="M174 0v1434h170v-639h154l460 639h197l-506 -682l570 -752h-215l-502 664h-158v-664h-170zM478 -188q0 43 31.5 69.5t72.5 26.5q51 0 91 -36t40 -118q0 -53 -18.5 -93t-44 -69.5t-53 -47t-48.5 -25.5l-57 65q41 23 65.5 57.5t24.5 84.5q-8 -2 -20 -2q-37 0 -60.5 24.5 t-23.5 63.5z" />
<glyph unicode="&#x137;" d="M49 1296v138h332v-848h113l403 438h193l-453 -485l373 -402h133v-137h-211l-438 463h-113v-463h-158v1296h-174zM482 -188q0 43 31.5 69.5t72.5 26.5q51 0 91 -36t40 -118q0 -53 -18.5 -93t-44 -69.5t-53 -47t-48.5 -25.5l-57 65q41 23 65.5 57.5t24.5 84.5q-8 -2 -20 -2 q-37 0 -60.5 24.5t-23.5 63.5z" />
<glyph unicode="&#x139;" d="M184 0v1434h170v-1282h580v356h151v-508h-901zM324 1540l241 242h234v-43l-334 -199h-141z" />
<glyph unicode="&#x13a;" d="M143 1296v138h340v-1090q0 -125 42 -176t124 -51q57 0 116.5 22.5t108.5 63.5l74 -109q-33 -29 -71.5 -51.5t-79.5 -37.5t-82 -23.5t-76 -8.5q-76 0 -135.5 19.5t-99 62.5t-60 114t-20.5 175v952h-181zM348 1540l241 242h234v-43l-334 -199h-141z" />
<glyph unicode="&#x13b;" d="M184 0v1434h170v-1282h580v356h151v-508h-901zM486 -188q0 43 31.5 69.5t72.5 26.5q51 0 91 -36t40 -118q0 -53 -18.5 -93t-44 -69.5t-53 -47t-48.5 -25.5l-57 65q41 23 65.5 57.5t24.5 84.5q-8 -2 -20 -2q-37 0 -60.5 24.5t-23.5 63.5z" />
<glyph unicode="&#x13c;" d="M143 1296v138h340v-1090q0 -125 42 -176t124 -51q57 0 116.5 22.5t108.5 63.5l74 -109q-33 -29 -71.5 -51.5t-79.5 -37.5t-82 -23.5t-76 -8.5q-76 0 -135.5 19.5t-99 62.5t-60 114t-20.5 175v952h-181zM504 -188q0 43 31.5 69.5t72.5 26.5q51 0 91 -36t40 -118 q0 -53 -18.5 -93t-44 -69.5t-53 -47t-48.5 -25.5l-57 65q41 23 65.5 57.5t24.5 84.5q-8 -2 -20 -2q-37 0 -60.5 24.5t-23.5 63.5z" />
<glyph unicode="&#x13d;" d="M184 0v1434h170v-1282h580v356h151v-508h-901zM734 1079q35 74 53 167t18 188h164q-4 -59 -24.5 -122t-46 -116t-52 -94t-45.5 -60z" />
<glyph unicode="&#x13e;" d="M143 1296v138h340v-1090q0 -125 42 -176t124 -51q57 0 116.5 22.5t108.5 63.5l74 -109q-33 -29 -71.5 -51.5t-79.5 -37.5t-82 -23.5t-76 -8.5q-76 0 -135.5 19.5t-99 62.5t-60 114t-20.5 175v952h-181zM625 1079q35 74 53 167t18 188h164q-4 -59 -24.5 -122t-46 -116 t-52 -94t-45.5 -60z" />
<glyph unicode="&#x141;" d="M37 432v156l147 114v732h170v-598l215 170v-164l-215 -166v-524h580v356h151v-508h-901v545z" />
<glyph unicode="&#x142;" d="M121 362v156l203 160v618h-181v138h340v-631l301 239v-163l-301 -236v-299q0 -125 42 -176t124 -51q57 0 116.5 22.5t108.5 63.5l74 -109q-33 -29 -71.5 -51.5t-79.5 -37.5t-82 -23.5t-76 -8.5q-76 0 -135.5 19.5t-99 62.5t-60 114t-20.5 175v176z" />
<glyph unicode="&#x143;" d="M143 0v1434h111l577 -893l107 -197h10l-22 197v893h159v-1434h-110l-574 897l-110 207h-8l20 -207v-897h-160zM516 1540l241 242h234v-43l-334 -199h-141z" />
<glyph unicode="&#x144;" d="M37 891v133h274l19 -166h10q20 35 54 69t79 61.5t100.5 44t116.5 16.5q94 0 167 -20.5t121 -73t72.5 -141.5t24.5 -226v-588h-160v557q0 170 -55 256t-201 86q-53 0 -103 -21.5t-91 -56.5t-72 -81t-45 -97v-643h-158v666q0 18 -1 47.5t-3 61.5t-5 62.5t-7 53.5h-137z M505 1169l134 306h223l-244 -306h-113z" />
<glyph unicode="&#x145;" d="M143 0v1434h111l577 -893l107 -197h10l-22 197v893h159v-1434h-110l-574 897l-110 207h-8l20 -207v-897h-160zM496 -188q0 43 31.5 69.5t72.5 26.5q51 0 91 -36t40 -118q0 -53 -18.5 -93t-44 -69.5t-53 -47t-48.5 -25.5l-57 65q41 23 65.5 57.5t24.5 84.5q-8 -2 -20 -2 q-37 0 -60.5 24.5t-23.5 63.5z" />
<glyph unicode="&#x146;" d="M37 891v133h274l19 -166h10q20 35 54 69t79 61.5t100.5 44t116.5 16.5q94 0 167 -20.5t121 -73t72.5 -141.5t24.5 -226v-588h-160v557q0 170 -55 256t-201 86q-53 0 -103 -21.5t-91 -56.5t-72 -81t-45 -97v-643h-158v666q0 18 -1 47.5t-3 61.5t-5 62.5t-7 53.5h-137z M516 -188q0 43 31.5 69.5t72.5 26.5q51 0 91 -36t40 -118q0 -53 -18.5 -93t-44 -69.5t-53 -47t-48.5 -25.5l-57 65q41 23 65.5 57.5t24.5 84.5q-8 -2 -20 -2q-37 0 -60.5 24.5t-23.5 63.5z" />
<glyph unicode="&#x147;" d="M143 0v1434h111l577 -893l107 -197h10l-22 197v893h159v-1434h-110l-574 897l-110 207h-8l20 -207v-897h-160zM246 1782h213l157 -137l166 137h191l-303 -254h-119z" />
<glyph unicode="&#x148;" d="M37 891v133h274l19 -166h10q20 35 54 69t79 61.5t100.5 44t116.5 16.5q94 0 167 -20.5t121 -73t72.5 -141.5t24.5 -226v-588h-160v557q0 170 -55 256t-201 86q-53 0 -103 -21.5t-91 -56.5t-72 -81t-45 -97v-643h-158v666q0 18 -1 47.5t-3 61.5t-5 62.5t-7 53.5h-137z M314 1499h160l165 -223l177 223h143l-293 -373h-76z" />
<glyph unicode="&#x14c;" d="M98 717q0 356 126 548.5t388 192.5q143 0 242.5 -53t161 -150.5t88 -233.5t26.5 -304q0 -356 -125.5 -549t-392.5 -193q-141 0 -239.5 53.5t-159.5 150.5t-88 233.5t-27 304.5zM279 717q0 -119 15 -225.5t54 -187.5t102.5 -129t161.5 -48q176 0 257 143.5t81 446.5 q0 117 -15 224.5t-54 188t-104.5 129t-164.5 48.5q-174 0 -253.5 -144.5t-79.5 -445.5zM303 1599v127h647v-127h-647z" />
<glyph unicode="&#x14d;" d="M117 512q0 248 129 392.5t368 144.5q129 0 222.5 -42t155 -114t91 -170t29.5 -211q0 -123 -32.5 -222.5t-96 -169t-157 -107.5t-212.5 -38q-127 0 -221 42t-155.5 114t-91 170t-29.5 211zM287 512q0 -72 17.5 -143.5t56 -129t101 -92t152.5 -34.5q164 0 247 101t83 298 q0 74 -17.5 144.5t-57.5 128t-102 92t-153 34.5q-164 0 -245.5 -100t-81.5 -299zM311 1190v127h607v-127h-607z" />
<glyph unicode="&#x150;" d="M98 717q0 356 126 548.5t388 192.5q143 0 242.5 -53t161 -150.5t88 -233.5t26.5 -304q0 -356 -125.5 -549t-392.5 -193q-141 0 -239.5 53.5t-159.5 150.5t-88 233.5t-27 304.5zM279 717q0 -119 15 -225.5t54 -187.5t102.5 -129t161.5 -48q176 0 257 143.5t81 446.5 q0 117 -15 224.5t-54 188t-104.5 129t-164.5 48.5q-174 0 -253.5 -144.5t-79.5 -445.5zM410 1518l131 223h190v-33l-205 -190h-116zM664 1518l208 223h203v-33l-293 -190h-118z" />
<glyph unicode="&#x151;" d="M117 512q0 248 129 392.5t368 144.5q129 0 222.5 -42t155 -114t91 -170t29.5 -211q0 -123 -32.5 -222.5t-96 -169t-157 -107.5t-212.5 -38q-127 0 -221 42t-155.5 114t-91 170t-29.5 211zM287 512q0 -72 17.5 -143.5t56 -129t101 -92t152.5 -34.5q164 0 247 101t83 298 q0 74 -17.5 144.5t-57.5 128t-102 92t-153 34.5q-164 0 -245.5 -100t-81.5 -299zM426 1169l72 306h176l-162 -306h-86zM647 1169l150 306h211l-269 -306h-92z" />
<glyph unicode="&#x152;" d="M57 717q0 362 106.5 551.5t301.5 189.5q59 0 99 -7t79 -17h533v-154h-369v-467h334v-154h-334v-505h375v-154h-539q-33 -10 -79 -17.5t-99 -7.5q-104 0 -180 52.5t-127.5 148.5t-76 233.5t-24.5 307.5zM225 717q0 -121 13.5 -228.5t43 -188.5t78 -128t117.5 -47 q39 0 78 5t88 28v1108q-35 23 -80 33t-96 10q-119 0 -180.5 -143.5t-61.5 -448.5z" />
<glyph unicode="&#x153;" d="M88 512q0 262 84 399.5t231 137.5q86 0 142.5 -42t89.5 -124q33 72 90 119t141 47q49 0 97.5 -14.5t87.5 -56.5t63.5 -114.5t24.5 -189.5q0 -37 -2 -89.5t-9 -99.5h-423q2 -180 47 -277t155 -97q45 0 91 19.5t71 47.5l49 -112q-41 -45 -110.5 -68t-137.5 -23 q-86 0 -146 47t-89 121q-37 -90 -95.5 -129t-138.5 -39q-154 0 -233.5 133.5t-79.5 403.5zM238 512q0 -80 9 -152.5t28.5 -127t51 -87t76.5 -32.5q82 0 118 98t36 301q0 80 -7 152.5t-24.5 128t-47 87t-75.5 31.5q-80 0 -122.5 -97t-42.5 -302zM707 610h292q0 303 -133 303 q-145 0 -159 -303z" />
<glyph unicode="&#x154;" d="M205 0v1419q78 14 179 22.5t185 8.5q94 0 179.5 -20.5t150 -67.5t103 -123t38.5 -184q0 -84 -27.5 -148.5t-67.5 -110.5t-83 -75t-74 -41l379 -680h-198l-338 631h-256v-631h-170zM375 762h160q141 0 233 69.5t92 217.5q0 111 -76 182.5t-211 71.5h-55.5t-55 -2.5 t-50 -4.5t-37.5 -6v-528zM445 1540l241 242h234v-43l-334 -199h-141z" />
<glyph unicode="&#x155;" d="M135 0v137h277v750h-277v137h383l33 -133h10q70 63 156 108t205 45q70 0 111.5 -26.5t65 -77.5t32 -124t8.5 -165l-144 -2q0 131 -25.5 192.5t-92.5 61.5q-63 0 -114.5 -18.5t-89.5 -45t-64.5 -53t-39.5 -45.5v-604h394v-137h-828zM553 1169l134 306h223l-244 -306h-113z " />
<glyph unicode="&#x156;" d="M205 0v1419q78 14 179 22.5t185 8.5q94 0 179.5 -20.5t150 -67.5t103 -123t38.5 -184q0 -84 -27.5 -148.5t-67.5 -110.5t-83 -75t-74 -41l379 -680h-198l-338 631h-256v-631h-170zM375 762h160q141 0 233 69.5t92 217.5q0 111 -76 182.5t-211 71.5h-55.5t-55 -2.5 t-50 -4.5t-37.5 -6v-528zM521 -188q0 43 31.5 69.5t72.5 26.5q51 0 91 -36t40 -118q0 -53 -18.5 -93t-44 -69.5t-53 -47t-48.5 -25.5l-57 65q41 23 65.5 57.5t24.5 84.5q-8 -2 -20 -2q-37 0 -60.5 24.5t-23.5 63.5z" />
<glyph unicode="&#x157;" d="M135 0v137h277v750h-277v137h383l33 -133h10q70 63 156 108t205 45q70 0 111.5 -26.5t65 -77.5t32 -124t8.5 -165l-144 -2q0 131 -25.5 192.5t-92.5 61.5q-63 0 -114.5 -18.5t-89.5 -45t-64.5 -53t-39.5 -45.5v-604h394v-137h-828zM471 -188q0 43 31.5 69.5t72.5 26.5 q51 0 91 -36t40 -118q0 -53 -18.5 -93t-44 -69.5t-53 -47t-48.5 -25.5l-57 65q41 23 65.5 57.5t24.5 84.5q-8 -2 -20 -2q-37 0 -60.5 24.5t-23.5 63.5z" />
<glyph unicode="&#x158;" d="M176 1782h213l157 -137l166 137h191l-303 -254h-119zM205 0v1419q78 14 179 22.5t185 8.5q94 0 179.5 -20.5t150 -67.5t103 -123t38.5 -184q0 -84 -27.5 -148.5t-67.5 -110.5t-83 -75t-74 -41l379 -680h-198l-338 631h-256v-631h-170zM375 762h160q141 0 233 69.5 t92 217.5q0 111 -76 182.5t-211 71.5h-55.5t-55 -2.5t-50 -4.5t-37.5 -6v-528z" />
<glyph unicode="&#x159;" d="M135 0v137h277v750h-277v137h383l33 -133h10q70 63 156 108t205 45q70 0 111.5 -26.5t65 -77.5t32 -124t8.5 -165l-144 -2q0 131 -25.5 192.5t-92.5 61.5q-63 0 -114.5 -18.5t-89.5 -45t-64.5 -53t-39.5 -45.5v-604h394v-137h-828zM322 1499h160l165 -223l177 223h143 l-293 -373h-76z" />
<glyph unicode="&#x15a;" d="M154 92l2 6v332h151v-227q61 -33 138 -54.5t155 -21.5q68 0 127 13.5t103 43t70 74.5t26 107q0 84 -56.5 137t-140.5 94t-182 80t-182 92t-140.5 130t-56.5 196q0 84 34 151.5t95 114.5t148 72.5t194 25.5q123 0 223.5 -17.5t159.5 -45.5l4 2v-4h2l-2 -7v-327h-152v219 q-51 12 -112.5 20.5t-130.5 8.5q-68 0 -122 -16.5t-92 -44t-58.5 -64.5t-20.5 -78q0 -80 56.5 -133t140 -95t182 -83t182.5 -95.5t140.5 -130t56.5 -188.5q0 -92 -34 -166t-96.5 -127t-153.5 -82t-206 -29q-78 0 -147.5 12.5t-128 31t-104.5 39t-72 34.5zM529 1540l241 242 h234v-43l-334 -199h-141z" />
<glyph unicode="&#x15b;" d="M172 119l82 133q25 -25 65.5 -50.5t90 -46t105.5 -32.5t114 -12q55 0 103 9t85 28.5t58.5 51t21.5 76.5q0 66 -51 102t-127 57.5t-165 40t-165 49t-127 82.5t-51 147q0 78 34 133t89 91t129 53.5t153 17.5q143 0 247 -36t165 -75l-65 -129q-68 37 -147 70.5t-198 33.5 q-45 0 -89 -9t-79.5 -27.5t-57 -48t-21.5 -72.5q0 -53 51 -82t127 -48.5t165 -37t164.5 -50t127 -88t51.5 -149.5q0 -141 -111.5 -233.5t-335.5 -92.5q-68 0 -133 12.5t-122.5 33t-104.5 46t-78 52.5zM489 1169l134 306h223l-244 -306h-113z" />
<glyph unicode="&#x15c;" d="M154 92l2 6v332h151v-227q61 -33 138 -54.5t155 -21.5q68 0 127 13.5t103 43t70 74.5t26 107q0 84 -56.5 137t-140.5 94t-182 80t-182 92t-140.5 130t-56.5 196q0 84 34 151.5t95 114.5t148 72.5t194 25.5q123 0 223.5 -17.5t159.5 -45.5l4 2v-4h2l-2 -7v-327h-152v219 q-51 12 -112.5 20.5t-130.5 8.5q-68 0 -122 -16.5t-92 -44t-58.5 -64.5t-20.5 -78q0 -80 56.5 -133t140 -95t182 -83t182.5 -95.5t140.5 -130t56.5 -188.5q0 -92 -34 -166t-96.5 -127t-153.5 -82t-206 -29q-78 0 -147.5 12.5t-128 31t-104.5 39t-72 34.5zM260 1532l317 252 h123l297 -252h-203l-158 133l-169 -133h-207z" />
<glyph unicode="&#x15d;" d="M172 119l82 133q25 -25 65.5 -50.5t90 -46t105.5 -32.5t114 -12q55 0 103 9t85 28.5t58.5 51t21.5 76.5q0 66 -51 102t-127 57.5t-165 40t-165 49t-127 82.5t-51 147q0 78 34 133t89 91t129 53.5t153 17.5q143 0 247 -36t165 -75l-65 -129q-68 37 -147 70.5t-198 33.5 q-45 0 -89 -9t-79.5 -27.5t-57 -48t-21.5 -72.5q0 -53 51 -82t127 -48.5t165 -37t164.5 -50t127 -88t51.5 -149.5q0 -141 -111.5 -233.5t-335.5 -92.5q-68 0 -133 12.5t-122.5 33t-104.5 46t-78 52.5zM301 1126l293 373h76l276 -373h-160l-166 224l-176 -224h-143z" />
<glyph unicode="&#x15e;" d="M154 92l2 6v332h151v-227q61 -33 138 -54.5t155 -21.5q68 0 127 13.5t103 43t70 74.5t26 107q0 84 -56.5 137t-140.5 94t-182 80t-182 92t-140.5 130t-56.5 196q0 84 34 151.5t95 114.5t148 72.5t194 25.5q123 0 223.5 -17.5t159.5 -45.5l4 2v-4h2l-2 -7v-327h-152v219 q-51 12 -112.5 20.5t-130.5 8.5q-68 0 -122 -16.5t-92 -44t-58.5 -64.5t-20.5 -78q0 -80 56.5 -133t140 -95t182 -83t182.5 -95.5t140.5 -130t56.5 -188.5q0 -92 -34 -166t-96.5 -127t-154.5 -82q-59 -18 -131 -24l-37 -68q86 -16 124 -53t38 -101q0 -80 -65.5 -132 t-184.5 -52q-23 0 -45.5 2t-46.5 6l18 80q12 -2 23 -2h20q45 0 71 8t39 19.5t16 26t3 26.5q0 57 -176 76l86 161q-55 2 -104 11q-70 12 -128.5 30.5t-104.5 39t-72 34.5z" />
<glyph unicode="&#x15f;" d="M172 119l82 133q25 -25 65.5 -50.5t90 -46t105.5 -32.5t114 -12q55 0 103 9t85 28.5t58.5 51t21.5 76.5q0 66 -51 102t-127 57.5t-165 40t-165 49t-127 82.5t-51 147q0 78 34 133t89 91t129 53.5t153 17.5q143 0 247 -36t165 -75l-65 -129q-68 37 -147 70.5t-198 33.5 q-45 0 -89 -9t-79.5 -27.5t-57 -48t-21.5 -72.5q0 -53 51 -82t127 -48.5t165 -37t164.5 -50t127 -88t51.5 -149.5q0 -141 -113 -233q-92 -76 -264 -91l-37 -65q86 -16 124 -53t38 -101q0 -80 -65.5 -132t-184.5 -52q-23 0 -45.5 2t-46.5 6l18 80q12 -2 23 -2h20q45 0 71 8 t39 19.5t16 26t3 26.5q0 57 -176 76l86 161q-43 2 -86 11q-66 12 -123 32.5t-104 46t-78 52.5z" />
<glyph unicode="&#x160;" d="M154 92l2 6v332h151v-227q61 -33 138 -54.5t155 -21.5q68 0 127 13.5t103 43t70 74.5t26 107q0 84 -56.5 137t-140.5 94t-182 80t-182 92t-140.5 130t-56.5 196q0 84 34 151.5t95 114.5t148 72.5t194 25.5q123 0 223.5 -17.5t159.5 -45.5l4 2v-4h2l-2 -7v-327h-152v219 q-51 12 -112.5 20.5t-130.5 8.5q-68 0 -122 -16.5t-92 -44t-58.5 -64.5t-20.5 -78q0 -80 56.5 -133t140 -95t182 -83t182.5 -95.5t140.5 -130t56.5 -188.5q0 -92 -34 -166t-96.5 -127t-153.5 -82t-206 -29q-78 0 -147.5 12.5t-128 31t-104.5 39t-72 34.5zM256 1782h213 l157 -137l166 137h191l-303 -254h-119z" />
<glyph unicode="&#x161;" d="M172 119l82 133q25 -25 65.5 -50.5t90 -46t105.5 -32.5t114 -12q55 0 103 9t85 28.5t58.5 51t21.5 76.5q0 66 -51 102t-127 57.5t-165 40t-165 49t-127 82.5t-51 147q0 78 34 133t89 91t129 53.5t153 17.5q143 0 247 -36t165 -75l-65 -129q-68 37 -147 70.5t-198 33.5 q-45 0 -89 -9t-79.5 -27.5t-57 -48t-21.5 -72.5q0 -53 51 -82t127 -48.5t165 -37t164.5 -50t127 -88t51.5 -149.5q0 -141 -111.5 -233.5t-335.5 -92.5q-68 0 -133 12.5t-122.5 33t-104.5 46t-78 52.5zM297 1499h160l165 -223l177 223h143l-293 -373h-76z" />
<glyph unicode="&#x162;" d="M82 1059v375h1065v-375h-152v223h-297v-1130h226v-152h-252l-49 -88q86 -16 123.5 -53t37.5 -101q0 -80 -65.5 -132t-183.5 -52q-23 0 -45.5 2t-47.5 6l19 80q12 -2 22 -2h21q45 0 70.5 8t39 19.5t16.5 26t3 26.5q0 57 -176 76l98 184h-252v152h225v1130h-295v-223h-151z " />
<glyph unicode="&#x163;" d="M63 887v137h244v203l160 45v-248h547v-137h-547v-484q0 -150 72.5 -221t208.5 -71q92 0 160.5 34.5t123.5 75.5l53 -121q-72 -57 -171 -92t-203 -35h-15l-32 -61q86 -16 123.5 -53t37.5 -101q0 -80 -65.5 -132t-184.5 -52q-23 0 -45 2t-47 6l19 80q12 -2 22 -2h21 q45 0 70.5 8t39 19.5t16.5 26t3 26.5q0 57 -176 76l92 172q-18 4 -35 10q-72 23 -127 72t-88 125.5t-33 183.5v508h-244z" />
<glyph unicode="&#x164;" d="M82 1059v375h1065v-375h-152v223h-297v-1130h226v-152h-621v152h225v1130h-295v-223h-151zM244 1782h213l157 -137l166 137h191l-303 -254h-119z" />
<glyph unicode="&#x165;" d="M63 887v137h244v203l160 45v-248h547v-137h-547v-484q0 -150 72.5 -221t208.5 -71q92 0 160.5 34.5t123.5 75.5l53 -121q-72 -57 -171 -92t-203 -35q-82 0 -155 23.5t-128 73t-88 126t-33 183.5v508h-244zM662 1108q35 74 53 167t18 188h164q-4 -59 -24.5 -122t-46 -116 t-52 -94t-45.5 -60z" />
<glyph unicode="&#x16a;" d="M123 444v990h170v-910q0 -109 21.5 -183.5t63.5 -120.5t106.5 -66.5t150.5 -20.5q166 0 236.5 91t70.5 300v910h164v-957q0 -129 -34 -223t-95.5 -154.5t-149.5 -89t-194 -28.5q-254 0 -382 114.5t-128 347.5zM295 1599v127h647v-127h-647z" />
<glyph unicode="&#x16b;" d="M51 887v137h297v-555q0 -84 7 -150.5t30 -112.5t67 -69.5t117 -23.5q106 0 185.5 69.5t119.5 173.5v531h-131v137h291v-698q0 -100 13 -193h137v-133h-273l-6 174h-8q-53 -88 -141 -143.5t-213 -55.5q-94 0 -161 21.5t-110 75t-63.5 142.5t-20.5 222v451h-137zM299 1190 v127h607v-127h-607z" />
<glyph unicode="&#x16c;" d="M123 444v990h170v-910q0 -109 21.5 -183.5t63.5 -120.5t106.5 -66.5t150.5 -20.5q166 0 236.5 91t70.5 300v910h164v-957q0 -129 -34 -223t-95.5 -154.5t-149.5 -89t-194 -28.5q-254 0 -382 114.5t-128 347.5zM246 1720l104 64q35 -70 106.5 -108t168.5 -38 q98 0 165.5 43t96.5 103l96 -53q-45 -117 -144.5 -176.5t-215.5 -59.5q-55 0 -110.5 12.5t-107 39t-92.5 69.5t-67 104z" />
<glyph unicode="&#x16d;" d="M51 887v137h297v-555q0 -84 7 -150.5t30 -112.5t67 -69.5t117 -23.5q106 0 185.5 69.5t119.5 173.5v531h-131v137h291v-698q0 -100 13 -193h137v-133h-273l-6 174h-8q-53 -88 -141 -143.5t-213 -55.5q-94 0 -161 21.5t-110 75t-63.5 142.5t-20.5 222v451h-137zM289 1427 l92 48q37 -74 98.5 -116t131.5 -42t126 41t91 117l86 -37q-6 -49 -32 -97.5t-66 -85t-93 -59t-114 -22.5q-57 0 -108.5 17t-93.5 51t-73 80t-45 105z" />
<glyph unicode="&#x16e;" d="M123 444v990h170v-910q0 -109 21.5 -183.5t63.5 -120.5t106.5 -66.5t150.5 -20.5q166 0 236.5 91t70.5 300v910h164v-957q0 -129 -34 -223t-95.5 -154.5t-149.5 -89t-194 -28.5q-254 0 -382 114.5t-128 347.5zM407 1573q0 76 51.5 125t163.5 49q102 0 159.5 -44 t57.5 -130q0 -74 -54 -122t-163 -48q-104 0 -159.5 46t-55.5 124zM532 1573q0 -35 21.5 -58.5t68.5 -23.5q45 0 69 22.5t24 59.5q0 39 -23 62.5t-70 23.5q-45 0 -67.5 -23.5t-22.5 -62.5z" />
<glyph unicode="&#x16f;" d="M51 887v137h297v-555q0 -84 7 -150.5t30 -112.5t67 -69.5t117 -23.5q106 0 185.5 69.5t119.5 173.5v531h-131v137h291v-698q0 -100 13 -193h137v-133h-273l-6 174h-8q-53 -88 -141 -143.5t-213 -55.5q-94 0 -161 21.5t-110 75t-63.5 142.5t-20.5 222v451h-137zM402 1317 q0 86 54 136t144 50q86 0 143.5 -45t57.5 -141q0 -80 -57.5 -132t-143.5 -52t-142 48t-56 136zM512 1317q0 -41 27 -63.5t61 -22.5q39 0 64.5 20.5t25.5 65.5t-27.5 66.5t-62.5 21.5t-61.5 -20.5t-26.5 -67.5z" />
<glyph unicode="&#x170;" d="M123 444v990h170v-910q0 -109 21.5 -183.5t63.5 -120.5t106.5 -66.5t150.5 -20.5q166 0 236.5 91t70.5 300v910h164v-957q0 -129 -34 -223t-95.5 -154.5t-149.5 -89t-194 -28.5q-254 0 -382 114.5t-128 347.5zM383 1518l131 223h190v-33l-205 -190h-116zM637 1518 l208 223h203v-33l-293 -190h-118z" />
<glyph unicode="&#x171;" d="M51 887v137h297v-555q0 -84 7 -150.5t30 -112.5t67 -69.5t117 -23.5q106 0 185.5 69.5t119.5 173.5v531h-131v137h291v-698q0 -100 13 -193h137v-133h-273l-6 174h-8q-53 -88 -141 -143.5t-213 -55.5q-94 0 -161 21.5t-110 75t-63.5 142.5t-20.5 222v451h-137zM406 1169 l72 306h176l-162 -306h-86zM627 1169l150 306h211l-269 -306h-92z" />
<glyph unicode="&#x172;" d="M123 444v990h170v-910q0 -109 21.5 -183.5t63.5 -120.5t106.5 -66.5t150.5 -20.5q166 0 236.5 91t70.5 300v910h164v-957q0 -129 -34 -223t-95.5 -154.5t-149.5 -89.5q-55 -31 -90 -71q-41 -51 -41 -117q0 -41 27 -73t78 -32q39 0 82 21l22 -88q-31 -25 -82 -37t-94 -12 q-92 0 -147.5 49t-55.5 133t56 143q29 31 69 56h-18q-254 0 -382 114.5t-128 347.5z" />
<glyph unicode="&#x173;" d="M51 887v137h297v-555q0 -84 7 -150.5t30 -112.5t67 -69.5t117 -23.5q106 0 185.5 69.5t119.5 173.5v531h-131v137h291v-698q0 -100 13 -193h137v-133h-43q-43 -27 -72 -61q-41 -51 -41 -117q0 -41 26.5 -73t78.5 -32q39 0 81 21l23 -88q-31 -25 -82 -37t-94 -12 q-92 0 -147.5 49t-55.5 133t55 143q41 43 105 74h-107l-6 174h-8q-53 -88 -141 -143.5t-213 -55.5q-94 0 -161 21.5t-110 75t-63.5 142.5t-20.5 222v451h-137z" />
<glyph unicode="&#x178;" d="M18 1434h199l410 -709h2l399 709h182l-510 -883v-551h-170v549zM262 1638q0 47 36 77t93 30q53 0 89 -29.5t36 -77.5q0 -47 -36 -75.5t-89 -28.5q-57 0 -93 28.5t-36 75.5zM723 1638q0 47 34.5 77t88.5 30q59 0 94 -29.5t35 -77.5q0 -47 -35 -75.5t-94 -28.5 q-53 0 -88 28.5t-35 75.5z" />
<glyph unicode="&#x179;" d="M113 0v154l809 1128h-809v152h1003v-154l-813 -1128h813v-152h-1003zM488 1540l241 242h234v-43l-334 -199h-141z" />
<glyph unicode="&#x17a;" d="M172 0v137l694 750h-694v137h885v-137l-701 -750h701v-137h-885zM485 1169l134 306h223l-244 -306h-113z" />
<glyph unicode="&#x17b;" d="M113 0v154l809 1128h-809v152h1003v-154l-813 -1128h813v-152h-1003zM475 1628q0 47 37 82t102 35q66 0 105 -35t39 -82q0 -51 -39 -86t-105 -35t-102.5 35t-36.5 86z" />
<glyph unicode="&#x17c;" d="M172 0v137l694 750h-694v137h885v-137l-701 -750h701v-137h-885zM499 1315q0 55 37 95t94 40q59 0 99.5 -40t40.5 -95q0 -53 -40 -90t-100 -37q-57 0 -94 37t-37 90z" />
<glyph unicode="&#x17d;" d="M113 0v154l809 1128h-809v152h1003v-154l-813 -1128h813v-152h-1003zM219 1782h213l157 -137l166 137h191l-303 -254h-119z" />
<glyph unicode="&#x17e;" d="M172 0v137l694 750h-694v137h885v-137l-701 -750h701v-137h-885zM293 1499h160l165 -223l177 223h143l-293 -373h-76z" />
<glyph unicode="&#x17f;" d="M195 881v143h241v57q0 193 98.5 279t278.5 86q92 0 177 -21.5t147 -58.5l-60 -135q-53 25 -114.5 48.5t-155.5 23.5q-100 0 -153.5 -55.5t-53.5 -164.5v-1083h-164v881h-241z" />
<glyph unicode="&#x192;" d="M43 -377l43 133q47 -20 89 -29.5t91 -9.5q78 0 118 69t67 230l139 865h-174v143h196l23 137q25 152 89 224.5t212 72.5q68 0 132.5 -14t115.5 -37l-47 -131q-92 39 -189 39q-39 0 -63.5 -11.5t-41 -36t-27.5 -63.5t-19 -96l-15 -84h246v-143h-268l-162 -951 q-12 -76 -34.5 -140t-60.5 -112.5t-93.5 -76t-130.5 -27.5q-59 0 -123 14.5t-113 34.5z" />
<glyph unicode="&#x1f4;" d="M109 717q0 199 51 340t135 230t192.5 130t223.5 41q123 0 202.5 -13t135.5 -36l-2 -8v-342h-152v233q-70 14 -170 15q-86 0 -165 -30t-139.5 -99.5t-96 -182t-35.5 -278.5q0 -303 111.5 -446.5t322.5 -143.5q131 0 223 51v400h-295v137h441v-631q-33 -25 -79 -45.5 t-98.5 -34.5t-108.5 -21.5t-110 -7.5q-137 0 -245.5 44t-184.5 135.5t-116.5 231.5t-40.5 331zM588 1540l241 242h234v-43l-334 -199h-141z" />
<glyph unicode="&#x1f5;" d="M141 510q0 262 139.5 396t413.5 134q127 0 216 -17t163 -44v-1030q0 -96 -37 -169t-101.5 -120t-150.5 -70.5t-186 -23.5q-121 0 -211 24.5t-156 63.5l78 145q18 -16 48 -31.5t69 -28.5t83 -21.5t87 -8.5q90 0 150.5 16.5t97.5 51.5t53 90t16 135v115h-8 q-47 -68 -120.5 -105t-190.5 -37q-233 0 -343 130.5t-110 404.5zM309 512q0 -88 16.5 -160.5t52.5 -126t94 -83t144 -29.5q125 0 197 64.5t100 197.5v485q-90 43 -251 43q-164 0 -258.5 -96t-94.5 -295zM567 1169l134 306h223l-244 -306h-113z" />
<glyph unicode="&#x218;" d="M154 92l2 6v332h151v-227q61 -33 138 -54.5t155 -21.5q68 0 127 13.5t103 43t70 74.5t26 107q0 84 -56.5 137t-140.5 94t-182 80t-182 92t-140.5 130t-56.5 196q0 84 34 151.5t95 114.5t148 72.5t194 25.5q123 0 223.5 -17.5t159.5 -45.5l4 2v-4h2l-2 -7v-327h-152v219 q-51 12 -112.5 20.5t-130.5 8.5q-68 0 -122 -16.5t-92 -44t-58.5 -64.5t-20.5 -78q0 -80 56.5 -133t140 -95t182 -83t182.5 -95.5t140.5 -130t56.5 -188.5q0 -92 -34 -166t-96.5 -127t-153.5 -82t-206 -29q-78 0 -147.5 12.5t-128 31t-104.5 39t-72 34.5zM480 -188 q0 43 31.5 69.5t72.5 26.5q51 0 91 -36t40 -118q0 -53 -18.5 -93t-44 -69.5t-53 -47t-48.5 -25.5l-57 65q41 23 65.5 57.5t24.5 84.5q-8 -2 -20 -2q-37 0 -60.5 24.5t-23.5 63.5z" />
<glyph unicode="&#x219;" d="M172 119l82 133q25 -25 65.5 -50.5t90 -46t105.5 -32.5t114 -12q55 0 103 9t85 28.5t58.5 51t21.5 76.5q0 66 -51 102t-127 57.5t-165 40t-165 49t-127 82.5t-51 147q0 78 34 133t89 91t129 53.5t153 17.5q143 0 247 -36t165 -75l-65 -129q-68 37 -147 70.5t-198 33.5 q-45 0 -89 -9t-79.5 -27.5t-57 -48t-21.5 -72.5q0 -53 51 -82t127 -48.5t165 -37t164.5 -50t127 -88t51.5 -149.5q0 -141 -111.5 -233.5t-335.5 -92.5q-68 0 -133 12.5t-122.5 33t-104.5 46t-78 52.5zM504 -188q0 43 31.5 69.5t72.5 26.5q51 0 91 -36t40 -118 q0 -53 -18.5 -93t-44 -69.5t-53 -47t-48.5 -25.5l-57 65q41 23 65.5 57.5t24.5 84.5q-8 -2 -20 -2q-37 0 -60.5 24.5t-23.5 63.5z" />
<glyph unicode="&#x21a;" d="M82 1059v375h1065v-375h-152v223h-297v-1130h226v-152h-621v152h225v1130h-295v-223h-151zM494 -188q0 43 31.5 69.5t72.5 26.5q51 0 91 -36t40 -118q0 -53 -18.5 -93t-44 -69.5t-53 -47t-48.5 -25.5l-57 65q41 23 65.5 57.5t24.5 84.5q-8 -2 -20 -2q-37 0 -60.5 24.5 t-23.5 63.5z" />
<glyph unicode="&#x21b;" d="M63 887v137h244v203l160 45v-248h547v-137h-547v-484q0 -150 72.5 -221t208.5 -71q92 0 160.5 34.5t123.5 75.5l53 -121q-72 -57 -171 -92t-203 -35q-82 0 -155 23.5t-128 73t-88 126t-33 183.5v508h-244zM547 -188q0 43 31.5 69.5t72.5 26.5q51 0 91 -36t40 -118 q0 -53 -18.5 -93t-44 -69.5t-53 -47t-48.5 -25.5l-57 65q41 23 65.5 57.5t24.5 84.5q-8 -2 -20 -2q-37 0 -60.5 24.5t-23.5 63.5z" />
<glyph unicode="&#x237;" d="M121 -313l67 133q55 -41 126 -72t147 -31q123 0 175 77t52 212v881h-495v137h659v-1049q0 -207 -105.5 -308t-291.5 -101q-55 0 -107.5 14t-97.5 33.5t-79 40t-50 33.5z" />
<glyph unicode="&#x2bc;" d="M323 1391q0 55 37 87.5t90 32.5q72 0 115 -43t43 -129q0 -82 -23.5 -142t-57.5 -101t-71 -64.5t-65 -34.5l-62 84q57 29 99.5 74t42.5 115q-8 -2 -25 -2q-47 0 -85 35t-38 88z" />
<glyph unicode="&#x2c6;" d="M295 1126l293 373h76l276 -373h-160l-166 224l-176 -224h-143z" />
<glyph unicode="&#x2c7;" d="M291 1499h160l165 -223l177 223h143l-293 -373h-76z" />
<glyph unicode="&#x2d8;" d="M301 1427l92 48q37 -74 98.5 -116t131.5 -42t126 41t91 117l86 -37q-6 -49 -32 -97.5t-66 -85t-93 -59t-114 -22.5q-57 0 -108.5 17t-93.5 51t-73 80t-45 105z" />
<glyph unicode="&#x2d9;" d="M479 1315q0 55 37 95t94 40q59 0 99.5 -40t40.5 -95q0 -53 -40 -90t-100 -37q-57 0 -94 37t-37 90z" />
<glyph unicode="&#x2da;" d="M414 1317q0 86 54 136t144 50q86 0 143.5 -45t57.5 -141q0 -80 -57.5 -132t-143.5 -52t-142 48t-56 136zM524 1317q0 -41 27 -63.5t61 -22.5q39 0 64.5 20.5t25.5 65.5t-27.5 66.5t-62.5 21.5t-61.5 -20.5t-26.5 -67.5z" />
<glyph unicode="&#x2db;" d="M424 -217q0 84 56.5 143.5t154.5 93.5h113q-72 -33 -113 -83t-41 -115q0 -41 26.5 -73t77.5 -32q39 0 82 21l23 -88q-31 -25 -82 -37t-94 -12q-92 0 -147.5 49t-55.5 133z" />
<glyph unicode="&#x2dc;" d="M299 1339q59 68 122.5 95.5t104.5 27.5q35 0 65 -13t57.5 -28.5t53 -28t54.5 -12.5q45 0 94 50l72 -91q-53 -59 -99.5 -80.5t-101.5 -19.5q-33 0 -61.5 13.5t-56.5 28.5t-55.5 27.5t-55.5 12.5q-27 0 -54.5 -14.5t-62.5 -49.5z" />
<glyph unicode="&#x2dd;" d="M340 1169l72 306h176l-162 -306h-86zM561 1169l150 306h211l-269 -306h-92z" />
<glyph unicode="&#x301;" d="M401 1169l134 306h223l-244 -306h-113z" />
<glyph unicode="&#x394;" d="M57 0v76l521 1380h69l524 -1380v-76h-1114zM246 147h727l-369 965h-2z" />
<glyph unicode="&#x3a9;" d="M51 0v143h328v33q-88 20 -149.5 76.5t-101.5 136.5t-58.5 177.5t-18.5 203.5q0 160 31 287t98.5 216t174 137t257.5 48q160 0 268.5 -51t174 -143.5t94.5 -220.5t29 -281q0 -111 -22.5 -206t-65.5 -170t-104.5 -129t-139.5 -81v-33h332v-143h-486v256q61 12 116.5 45 t97.5 93.5t66.5 153.5t24.5 224q0 98 -12 193.5t-52 171t-117 123t-206 47.5q-115 0 -188.5 -35t-115.5 -102.5t-58.5 -169t-16.5 -234.5q0 -129 21.5 -220t61.5 -152.5t96.5 -94.5t124.5 -43v-256h-484z" />
<glyph unicode="&#x3bc;" d="M172 -410v1434h164v-580q0 -162 50 -243.5t175 -81.5q113 0 190.5 66.5t108.5 174.5v664h164v-690q0 -80 5 -124t9 -77h131v-133h-262l-22 152h-8q-41 -72 -126 -124.5t-208 -52.5q-63 0 -116.5 16.5t-90.5 61.5h-10l10 -190v-273h-164z" />
<glyph unicode="&#x3c0;" d="M27 854q39 78 96 124t166 46h887v-143h-170v-643q0 -57 18 -80t47 -23q20 0 46 4t44 8l39 -110q-33 -14 -81 -29.5t-109 -15.5q-102 0 -135 59.5t-33 165.5v664h-389v-881h-164v881h-29q-43 0 -69.5 -23.5t-55.5 -69.5z" />
<glyph unicode="&#x401;" d="M219 0v1434h842v-152h-672v-469h621v-151h-621v-510h682v-152h-852zM281 1638q0 47 36 77t93 30q53 0 89 -29.5t36 -77.5q0 -47 -36 -75.5t-89 -28.5q-57 0 -93 28.5t-36 75.5zM742 1638q0 47 34.5 77t88.5 30q59 0 94 -29.5t35 -77.5q0 -47 -35 -75.5t-94 -28.5 q-53 0 -88 28.5t-35 75.5z" />
<glyph unicode="&#x402;" d="M47 1282v152h920v-152h-406v-432q25 8 87.5 25.5t176.5 17.5q66 0 133.5 -19.5t122 -68.5t88 -132t33.5 -210q0 -248 -98 -363.5t-297 -115.5q-68 0 -97.5 1t-45.5 5v147q27 -4 58.5 -5t90.5 -1q113 0 161 80t48 240q0 86 -20.5 143t-54.5 91t-80 47t-95 13 q-72 0 -130 -17t-81 -28v-700h-170v1282h-344z" />
<glyph unicode="&#x403;" d="M143 0v152h197v1130h-197v152h983v-375h-151v223h-465v-1130h321v-152h-688zM547 1540l241 242h234v-43l-334 -199h-141z" />
<glyph unicode="&#x404;" d="M113 717q0 201 52 341t139 229t203 130t243 41q70 0 121 -5t89.5 -14t68.5 -23.5t58 -33.5h3v-323h-152v219q-35 14 -77 21.5t-101 7.5q-78 0 -156 -26t-142.5 -84t-108.5 -152.5t-56 -229.5h627v-151h-631q6 -135 46 -235.5t103.5 -167t149.5 -100.5t184 -34 q53 0 99.5 9t85.5 26v205h151v-277l2 -4q-61 -47 -155.5 -79t-229.5 -32q-129 0 -241.5 44t-195.5 134.5t-131 230.5t-48 333z" />
<glyph unicode="&#x405;" d="M154 92l2 6v332h151v-227q61 -33 138 -54.5t155 -21.5q68 0 127 13.5t103 43t70 74.5t26 107q0 84 -56.5 137t-140.5 94t-182 80t-182 92t-140.5 130t-56.5 196q0 84 34 151.5t95 114.5t148 72.5t194 25.5q123 0 223.5 -17.5t159.5 -45.5l4 2v-4h2l-2 -7v-327h-152v219 q-51 12 -112.5 20.5t-130.5 8.5q-68 0 -122 -16.5t-92 -44t-58.5 -64.5t-20.5 -78q0 -80 56.5 -133t140 -95t182 -83t182.5 -95.5t140.5 -130t56.5 -188.5q0 -92 -34 -166t-96.5 -127t-153.5 -82t-206 -29q-78 0 -147.5 12.5t-128 31t-104.5 39t-72 34.5z" />
<glyph unicode="&#x406;" d="M123 0v152h405v1130h-405v152h983v-152h-408v-1130h408v-152h-983z" />
<glyph unicode="&#x407;" d="M123 0v152h405v1130h-405v152h983v-152h-408v-1130h408v-152h-983zM258 1638q0 47 36 77t93 30q53 0 89 -29.5t36 -77.5q0 -47 -36 -75.5t-89 -28.5q-57 0 -93 28.5t-36 75.5zM719 1638q0 47 34.5 77t88.5 30q59 0 94 -29.5t35 -77.5q0 -47 -35 -75.5t-94 -28.5 q-53 0 -88 28.5t-35 75.5z" />
<glyph unicode="&#x408;" d="M172 94l74 135q23 -14 50.5 -30.5t61 -31.5t75.5 -25.5t95 -10.5q154 0 233 96.5t79 311.5v743h-641v152h811v-926q0 -258 -123 -393t-355 -135q-59 0 -116.5 10t-106.5 27.5t-85 38t-52 38.5z" />
<glyph unicode="&#x409;" d="M2 10l18 152q14 -6 29 -6q27 0 47.5 14t38.5 74q18 55 33.5 150t28 238.5t19.5 341t11 460.5h545v-557q25 8 55.5 13t61.5 5q70 0 131 -19.5t106 -68.5t72 -132t27 -210q0 -250 -93.5 -365.5t-283.5 -115.5q-18 0 -47 1t-61.5 4t-67.5 8t-64 13v1272h-223 q-12 -410 -32.5 -683t-67.5 -421q-29 -98 -82 -143t-113 -45q-47 0 -88 20zM772 147q37 -12 88 -12q109 0 153 73t44 243q0 88 -12.5 145t-37 90t-61.5 45t-86 12q-23 0 -49.5 -6t-38.5 -12v-578z" />
<glyph unicode="&#x40a;" d="M33 0v1434h164v-605h362v605h164v-605q6 2 23.5 5.5t37 6.5t38 5t28.5 2q72 0 135.5 -16.5t110.5 -61.5t73.5 -124t26.5 -204q0 -248 -96 -353t-277 -105q-18 0 -51 1t-70.5 4t-75.5 9t-67 14v666h-362v-678h-164zM723 147q18 -8 52 -10t63 -2q102 0 146 66.5t44 226.5 q0 86 -12 139.5t-37 82t-60.5 37.5t-80.5 9q-12 0 -28.5 -2t-34 -4t-32 -6t-20.5 -6v-531z" />
<glyph unicode="&#x40b;" d="M37 1282v152h919v-152h-405v-473q27 14 58.5 30.5t68.5 31t82 22.5t102 8q86 0 148.5 -19.5t102.5 -65.5t59.5 -124t19.5 -192v-500h-170v469q0 72 -6 124t-26.5 87t-58.5 52.5t-102 17.5q-98 0 -161.5 -26t-116.5 -69v-655h-170v1282h-344z" />
<glyph unicode="&#x40c;" d="M174 0v1434h170v-639h154l460 639h197l-506 -682l570 -752h-215l-502 664h-158v-664h-170zM457 1540l241 242h234v-43l-334 -199h-141z" />
<glyph unicode="&#x40e;" d="M61 1434h197l354 -852h131l250 852h174l-290 -932q-41 -141 -81 -239.5t-86 -159t-101.5 -87t-127.5 -26.5q-68 0 -107.5 11t-74.5 34l51 141q41 -23 76 -29t63 -6q57 0 110.5 67.5t88.5 221.5l-184 2zM282 1741l162 41q8 -76 57.5 -117t131.5 -41t130 41t58 115l145 -35 q-23 -111 -103.5 -175.5t-231.5 -64.5q-145 0 -238.5 56.5t-110.5 179.5z" />
<glyph unicode="&#x40f;" d="M154 0v1434h170v-1282h579v1282h170v-1434h-385v-371h-143v371h-391z" />
<glyph unicode="&#x410;" d="M33 0l479 1434h201l483 -1434h-178l-135 397h-551l-131 -397h-168zM385 545h451l-211 674h-25z" />
<glyph unicode="&#x411;" d="M221 14v1420h778v-152h-608v-430q35 6 86 12t98 6q104 0 198.5 -19.5t166.5 -66.5t114 -128t42 -203q0 -123 -43 -212t-115 -145.5t-167 -84t-200 -27.5q-35 0 -78.5 1t-92 5t-94.5 9t-85 15zM391 143q14 -4 38 -6t51.5 -4t56 -2h55.5q66 0 125 17.5t103 54.5t69.5 92 t25.5 129q0 94 -29.5 153.5t-78.5 91t-113.5 43t-134.5 11.5q-18 0 -42.5 -2t-49.5 -4t-45.5 -5t-30.5 -5v-564z" />
<glyph unicode="&#x412;" d="M205 10v1411q76 12 176 20.5t219 8.5q80 0 163 -13.5t150.5 -51t111.5 -105.5t44 -174q0 -51 -16.5 -104.5t-49 -99.5t-84 -81t-120.5 -53v-8q61 -10 117.5 -35t99.5 -68t69.5 -104t26.5 -145q0 -111 -46 -192t-121 -132t-171 -75.5t-196 -24.5h-82t-98.5 3t-102.5 8 t-90 15zM375 145q14 -4 40.5 -6t57.5 -4t63.5 -3t57.5 -1q66 0 127 16.5t108.5 49t75 82t27.5 116.5q0 84 -34 135.5t-88 80t-121.5 38.5t-135.5 10h-178v-514zM375 803h106q35 0 84 2t82 6q49 16 92 39.5t77 56.5t53.5 74t19.5 90q0 68 -25.5 113t-68.5 71.5t-98.5 37 t-112.5 10.5q-68 0 -124.5 -3.5t-84.5 -9.5v-487z" />
<glyph unicode="&#x413;" d="M143 0v152h197v1130h-197v152h983v-375h-151v223h-465v-1130h321v-152h-688z" />
<glyph unicode="&#x414;" d="M16 152h138q8 25 37.5 108.5t61.5 237t58.5 385t26.5 551.5h704v-1282h154v-441h-143v289h-893v-289h-144v441zM334 152h538v1130h-374q-6 -225 -25.5 -405.5t-44.5 -319.5t-50.5 -239.5t-43.5 -165.5z" />
<glyph unicode="&#x415;" d="M219 0v1434h842v-152h-672v-469h621v-151h-621v-510h682v-152h-852z" />
<glyph unicode="&#x416;" d="M0 0l268 723l-231 711h178l195 -643h120v643h164v-643h103l225 643h168l-248 -701l287 -733h-189l-239 664h-107v-664h-164v664h-112l-242 -664h-176z" />
<glyph unicode="&#x417;" d="M164 49v2v324h151v-215q49 -16 110.5 -28.5t133.5 -12.5q156 0 251 73.5t95 221.5q0 129 -88 191.5t-233 72.5h-123v143h141q53 6 100.5 27.5t83 54.5t56 76t20.5 92q0 68 -23.5 114t-64.5 74.5t-98.5 42t-126.5 13.5q-59 0 -116.5 -8.5t-104.5 -20.5v-203h-152v303v3 q20 12 59 24t92.5 22.5t117 16.5t133.5 6q92 0 176 -17.5t148.5 -57.5t102 -108.5t37.5 -168.5q0 -102 -66.5 -195.5t-201.5 -134.5v-8q145 -20 228 -108.5t83 -235.5q0 -117 -45 -202t-119.5 -140t-169 -81t-192.5 -26q-141 0 -239.5 26t-155.5 48z" />
<glyph unicode="&#x418;" d="M123 0v1434h170v-963l-10 -203h12l117 230l532 936h162v-1434h-170v950l12 205h-12l-119 -229l-532 -926h-162z" />
<glyph unicode="&#x419;" d="M123 0v1434h170v-963l-10 -203h12l117 230l532 936h162v-1434h-170v950l12 205h-12l-119 -229l-532 -926h-162zM295 1741l162 41q8 -76 57.5 -117t131.5 -41t130 41t58 115l145 -35q-23 -111 -103.5 -175.5t-231.5 -64.5q-145 0 -238.5 56.5t-110.5 179.5z" />
<glyph unicode="&#x41a;" d="M174 0v1434h170v-639h154l460 639h197l-506 -682l570 -752h-215l-502 664h-158v-664h-170z" />
<glyph unicode="&#x41b;" d="M6 10l23 148q20 -6 43 -6q35 0 68.5 22.5t66.5 83.5q29 55 54.5 147.5t45 233.5t31.5 336.5t18 458.5h717v-1434h-170v1282h-387q-20 -410 -54 -681t-102 -423q-45 -98 -106 -143t-133 -45q-37 0 -63.5 5t-51.5 15z" />
<glyph unicode="&#x41c;" d="M123 0v1434h158l340 -545h4l327 545h154v-1434h-170v952l20 195h-10l-98 -176l-209 -350h-51l-219 352l-95 174h-10l25 -193v-954h-166z" />
<glyph unicode="&#x41d;" d="M123 0v1434h170v-625h643v625h170v-1434h-170v657h-643v-657h-170z" />
<glyph unicode="&#x41e;" d="M98 717q0 356 126 548.5t388 192.5q143 0 242.5 -53t161 -150.5t88 -233.5t26.5 -304q0 -356 -125.5 -549t-392.5 -193q-141 0 -239.5 53.5t-159.5 150.5t-88 233.5t-27 304.5zM279 717q0 -119 15 -225.5t54 -187.5t102.5 -129t161.5 -48q176 0 257 143.5t81 446.5 q0 117 -15 224.5t-54 188t-104.5 129t-164.5 48.5q-174 0 -253.5 -144.5t-79.5 -445.5z" />
<glyph unicode="&#x41f;" d="M143 0v1434h942v-1434h-170v1282h-602v-1282h-170z" />
<glyph unicode="&#x420;" d="M205 0v1419q78 18 168 24.5t178 6.5q94 0 191.5 -18.5t177 -67.5t130 -135t50.5 -219q0 -131 -47 -221.5t-125 -146.5t-178.5 -80.5t-206.5 -24.5h-34t-49.5 1t-50 3t-34.5 4v-545h-170zM375 696q10 -4 32.5 -5t47 -2t47 -1h33.5q70 0 138 13.5t123.5 48t89.5 98 t34 162.5q0 84 -32 140t-84 90t-117.5 48.5t-131.5 14.5q-53 0 -102.5 -2.5t-77.5 -10.5v-594z" />
<glyph unicode="&#x421;" d="M133 717q0 201 49 341t133 229t196 130t239 41q70 0 121 -5t89.5 -14t68.5 -23.5t58 -33.5h3v-323h-152v219q-35 14 -77 21.5t-101 7.5q-84 0 -165 -31t-143.5 -100.5t-100.5 -182t-38 -276.5q0 -147 34 -258t94.5 -184.5t145.5 -110.5t189 -37q53 0 99.5 9t85.5 26v205 h151v-277l2 -4q-61 -47 -155.5 -79t-229.5 -32q-129 0 -238.5 44t-189.5 134.5t-124 230.5t-44 333z" />
<glyph unicode="&#x422;" d="M82 1059v375h1065v-375h-152v223h-297v-1130h226v-152h-621v152h225v1130h-295v-223h-151z" />
<glyph unicode="&#x423;" d="M61 1434h197l354 -852h131l250 852h174l-290 -932q-41 -141 -81 -239.5t-86 -159t-101.5 -87t-127.5 -26.5q-68 0 -107.5 11t-74.5 34l51 141q41 -23 76 -29t63 -6q57 0 110.5 67.5t88.5 221.5l-184 2z" />
<glyph unicode="&#x424;" d="M45 717q0 166 39 282.5t104.5 189.5t153.5 105.5t186 32.5v148h170v-148q88 0 174 -25.5t156 -92t113 -180.5t43 -292q0 -174 -42 -290.5t-110.5 -186.5t-156 -98.5t-177.5 -28.5v-174h-170v174q-90 0 -177 22.5t-154.5 85t-109.5 177t-42 299.5zM215 717 q0 -123 19.5 -207t58.5 -136t99.5 -76t139.5 -24v910q-70 0 -128 -21.5t-100 -76t-65.5 -144.5t-23.5 -225zM692 274q74 0 134.5 21.5t101.5 75t63.5 142.5t22.5 224q0 119 -22.5 204t-64.5 138.5t-101.5 79t-133.5 25.5v-910z" />
<glyph unicode="&#x425;" d="M41 0l473 729l-432 705h205l286 -486l52 -96l49 96l305 486h188l-448 -691l469 -743h-199l-321 514l-56 102l-53 -102l-328 -514h-190z" />
<glyph unicode="&#x426;" d="M143 0v1434h170v-1282h564v1282h170v-1282h170v-441h-144v289h-930z" />
<glyph unicode="&#x427;" d="M168 928v506h170v-476q0 -281 254 -280q96 0 180 25.5t137 68.5v662h170v-1434h-170v618q-55 -31 -145 -61.5t-207 -30.5q-86 0 -157.5 19.5t-123 65.5t-80 124t-28.5 193z" />
<glyph unicode="&#x428;" d="M104 0v1434h160v-1282h271v1282h159v-1282h271v1282h159v-1434h-1020z" />
<glyph unicode="&#x429;" d="M86 0v1434h160v-1282h268v1282h160v-1282h270v1282h160v-1282h125v-441h-144v289h-999z" />
<glyph unicode="&#x42a;" d="M43 1282v152h457v-557q23 4 69.5 10t94.5 6q113 0 205 -25.5t157.5 -78t101 -134.5t35.5 -192q0 -109 -33.5 -197t-100 -150.5t-164 -97t-226.5 -34.5q-18 0 -54 1t-79 4t-90 9t-86 16v1268h-287zM500 143q14 -4 34.5 -6t43 -3t44 -2t37.5 -1q168 0 246 86t78 234 q0 143 -85 218.5t-247 75.5q-47 0 -89 -6t-62 -12v-584z" />
<glyph unicode="&#x42b;" d="M102 10v1424h170v-539q14 4 51 11t85 7q76 0 149.5 -20.5t133 -71.5t96 -138t36.5 -218q0 -127 -32.5 -217t-92 -149.5t-143.5 -87t-184 -27.5q-27 0 -62 1t-71.5 4t-72.5 8t-63 13zM272 150q16 -8 47 -11.5t64 -3.5q59 0 109.5 17.5t86 55.5t55 97.5t19.5 145.5 q0 92 -21.5 152.5t-57 96t-84 49t-101.5 13.5q-35 0 -69.5 -5t-47.5 -14v-593zM956 0v1434h170v-1434h-170z" />
<glyph unicode="&#x42c;" d="M242 14v1420h170v-557q10 2 34.5 5t53 5t59.5 4t55 2q98 0 191.5 -19.5t166 -68.5t118 -132t45.5 -210q0 -123 -43 -213t-119 -149.5t-177.5 -88t-220.5 -28.5q-29 0 -69.5 1t-86.5 4t-92 9t-85 16zM412 143q29 -6 82 -9t104 -3q74 0 138.5 19.5t113.5 59.5t76.5 100.5 t27.5 140.5q0 86 -30.5 143t-80.5 91t-115.5 47t-135.5 13q-18 0 -45 -2t-53.5 -4t-49 -6t-32.5 -6v-584z" />
<glyph unicode="&#x42d;" d="M123 63v304h151v-205q45 -16 101.5 -29.5t126.5 -13.5q80 0 157.5 28.5t139 92t99.5 166t38 251.5h-508v152h506q-4 133 -39 228.5t-94.5 156.5t-138 91t-173.5 30q-53 0 -98 -7.5t-84 -17.5v-215h-151v297l-2 6q63 37 156 58.5t200 21.5q131 0 240.5 -41t188.5 -130 t123 -230.5t44 -339.5q0 -201 -50 -342.5t-137.5 -230.5t-204 -129t-247.5 -40q-51 0 -103.5 9.5t-98.5 22.5t-84 28.5t-58 27.5z" />
<glyph unicode="&#x42e;" d="M72 0v1434h170v-625h170q4 143 27.5 262t69.5 205t117.5 134t170.5 48q104 0 177 -51t119 -147.5t66.5 -233.5t20.5 -309q0 -367 -97.5 -554.5t-306.5 -187.5q-96 0 -163.5 47.5t-112.5 136.5t-66.5 215t-23.5 285h-168v-659h-170zM582 717q0 -287 55 -438.5t154 -151.5 q121 0 170 139.5t49 450.5q0 123 -9.5 230.5t-34 187t-68.5 126t-114 46.5q-57 0 -96 -41t-62.5 -117t-33.5 -185.5t-10 -246.5z" />
<glyph unicode="&#x42f;" d="M86 0l397 618q-59 14 -112.5 45t-94 80.5t-64.5 116t-24 156.5q0 125 42 208t115 133t170 71.5t206 21.5q70 0 148.5 -6t154.5 -25v-1419h-170v592h-211l-356 -592h-201zM369 1016q0 -78 27.5 -133.5t74.5 -91t109.5 -52t134.5 -16.5h139v567q-29 6 -59.5 9.5t-81.5 3.5 q-68 0 -129.5 -13.5t-109.5 -46.5t-76.5 -88t-28.5 -139z" />
<glyph unicode="&#x430;" d="M154 272q0 104 46 174t132 107t208 43t273 -16q10 94 3 156.5t-32.5 99t-71.5 52t-114 15.5q-92 0 -176 -25.5t-150 -52.5l-51 119q88 51 198.5 73.5t217.5 22.5q104 0 170.5 -32.5t104.5 -85t51.5 -119t13.5 -133.5q0 -78 -4 -166t-6 -176q0 -102 12 -195h137v-133h-272 l-19 154h-10q-12 -18 -36.5 -47t-64.5 -56.5t-97.5 -48t-135.5 -20.5q-152 0 -239.5 77.5t-87.5 212.5zM322 287q0 -68 45.5 -118t154.5 -50q57 0 106.5 18.5t86.5 47t61.5 62.5t36.5 64v144q-106 18 -196.5 18t-156 -19.5t-102 -60.5t-36.5 -106z" />
<glyph unicode="&#x431;" d="M117 621q0 176 19.5 301t56 211t90 137t121 80.5t147.5 42t172 20.5q119 8 182.5 22.5t104.5 49.5l24 -142q-23 -18 -49.5 -30.5t-65 -20.5t-91 -14t-123.5 -10q-100 -6 -178 -20.5t-132.5 -58.5t-86.5 -127t-42 -224h6q78 102 171.5 143t232.5 41q211 0 323.5 -127 t112.5 -360q0 -270 -131 -415t-367 -145q-498 0 -497 646zM287 510q0 -76 19.5 -147.5t59.5 -127t101 -89t147 -33.5q164 0 246 106.5t82 302.5q0 76 -17.5 141.5t-52 114.5t-91 78t-132.5 29q-190 0 -276 -95.5t-86 -279.5z" />
<glyph unicode="&#x432;" d="M246 2v1020q39 2 77.5 5t84 5t97.5 4t118 2q221 0 319 -62.5t98 -187.5q0 -72 -47 -142.5t-153 -100.5v-8q135 -23 190 -83.5t55 -164.5q0 -160 -130 -231.5t-377 -71.5q-98 0 -176 5t-156 11zM403 129q47 -4 94.5 -6t106.5 -2q160 0 239 40t79 138q0 39 -15.5 69.5 t-51.5 53t-93 35t-144 12.5h-215v-340zM403 592h244q41 0 82 13t75 35t54.5 51.5t20.5 62.5q0 84 -60.5 116.5t-202.5 32.5q-78 0 -124 -2t-89 -4v-305z" />
<glyph unicode="&#x433;" d="M209 0v137h131v748h-131v139h827v-383h-139v244h-397v-748h311v-137h-602z" />
<glyph unicode="&#x434;" d="M57 139h115q18 23 49 81.5t59.5 163.5t51 262t26.5 378h643v-885h158v-385h-139v246h-823v-246h-140v385zM338 137h504v750h-338q-4 -88 -15.5 -190.5t-32 -204t-50 -193.5t-68.5 -162z" />
<glyph unicode="&#x435;" d="M129 512q0 129 36 229.5t103.5 168t163.5 103.5t215 36q86 0 170 -22.5t148.5 -85t99.5 -172.5t25 -284h-793q0 -184 99.5 -275t265.5 -91q55 0 109 13t103.5 31.5t87 41t58.5 41.5l63 -117q-37 -33 -87 -61.5t-109.5 -49t-124 -32t-129.5 -11.5q-123 0 -217 38 t-157.5 109t-96.5 169t-33 221zM303 629h637q-10 135 -87 209.5t-202 74.5q-68 0 -128 -14t-106 -48t-76 -88t-38 -134z" />
<glyph unicode="&#x436;" d="M12 0l262 524l-235 500h178l186 -442h129v442h160v-442h111l217 442h168l-242 -475l271 -549h-183l-219 459h-123v-459h-160v459h-124l-220 -459h-176z" />
<glyph unicode="&#x437;" d="M162 145l82 129q23 -25 55.5 -52t80.5 -49.5t110.5 -38t144.5 -15.5q57 0 107.5 11t88 32.5t60 55.5t22.5 79q0 78 -70.5 119t-232.5 41h-116v133h145q41 0 82 13t73.5 34.5t53 51.5t20.5 63q0 41 -20.5 70.5t-56 48t-84 27.5t-101.5 9q-82 0 -143.5 -15t-104.5 -38v-170 h-139v244l-2 6q35 20 75 39.5t90 35t113.5 25.5t145.5 10q84 0 155.5 -17t125 -50t83 -81t29.5 -110q0 -33 -13 -68.5t-40 -68.5t-63.5 -59.5t-83.5 -40.5v-8q135 -23 189 -86.5t54 -167.5q0 -66 -30.5 -121t-91 -96t-149.5 -64.5t-208 -23.5q-88 0 -159.5 16t-126 40.5 t-92.5 53.5t-58 53z" />
<glyph unicode="&#x438;" d="M174 0v1024h160v-662l-6 -129h8l571 791h148v-1024h-160v643l6 135h-6l-576 -778h-145z" />
<glyph unicode="&#x439;" d="M174 0v1024h160v-662l-6 -129h8l571 791h148v-1024h-160v643l6 135h-6l-576 -778h-145zM301 1389l139 49q20 -94 70.5 -131t116.5 -37t117 39t69 127l123 -39q-18 -119 -105.5 -182.5t-208.5 -63.5q-55 0 -109 14.5t-97 43t-74 73.5t-41 107z" />
<glyph unicode="&#x43a;" d="M223 0v1024h158v-438h113l403 438h193l-453 -485l373 -402h133v-137h-211l-438 463h-113v-463h-158z" />
<glyph unicode="&#x43b;" d="M82 10l27 152q39 -10 72.5 -10t60 24.5t48 78.5t37 153.5t25.5 250t17 365.5h663v-1024h-160v885h-354q-8 -186 -20.5 -349t-46 -284t-96 -190.5t-169.5 -69.5q-41 0 -59 4t-45 14z" />
<glyph unicode="&#x43c;" d="M131 0v1024h162l325 -514h5l311 514h164v-1024h-160v608l4 146h-10l-295 -469h-57l-299 469h-9l11 -144v-610h-152z" />
<glyph unicode="&#x43d;" d="M180 0v1024h158v-426h551v426h160v-1024h-160v455h-551v-455h-158z" />
<glyph unicode="&#x43e;" d="M117 512q0 248 129 392.5t368 144.5q129 0 222.5 -42t155 -114t91 -170t29.5 -211q0 -123 -32.5 -222.5t-96 -169t-157 -107.5t-212.5 -38q-127 0 -221 42t-155.5 114t-91 170t-29.5 211zM287 512q0 -72 17.5 -143.5t56 -129t101 -92t152.5 -34.5q164 0 247 101t83 298 q0 74 -17.5 144.5t-57.5 128t-102 92t-153 34.5q-164 0 -245.5 -100t-81.5 -299z" />
<glyph unicode="&#x43f;" d="M188 0v1024h852v-1024h-159v885h-535v-885h-158z" />
<glyph unicode="&#x440;" d="M43 891v133h272l21 -143h10q55 72 140 120t208 48q219 0 330 -121t111 -396q0 -129 -38 -232t-107.5 -175t-168 -111t-217.5 -39q-43 0 -76.5 3.5t-61.5 8.5t-54.5 13t-57.5 20v-430h-157v1076q0 18 -1 47.5t-3.5 61.5t-5.5 62.5t-7 53.5h-137zM354 178q45 -31 101.5 -48 t148.5 -17q164 0 262.5 107.5t98.5 314.5q0 174 -68.5 269t-228.5 95q-61 0 -115.5 -22.5t-96.5 -59.5t-69 -82t-33 -90v-467z" />
<glyph unicode="&#x441;" d="M123 512q0 129 36 229.5t103.5 168t163.5 103.5t215 36q152 0 247 -27t161 -59l-2 -7v-284h-148v194q-47 16 -101.5 27.5t-107.5 11.5q-201 0 -299 -94t-98 -299q0 -90 28.5 -160.5t82 -120t128 -76t164.5 -26.5q96 0 187.5 33t152.5 86l72 -119q-29 -25 -72 -51.5 t-99 -50t-125 -38t-148 -14.5q-133 0 -234.5 38t-169 109t-102.5 170t-35 220z" />
<glyph unicode="&#x442;" d="M106 641v383h1016v-383h-139v244h-289v-748h248v-137h-663v137h256v748h-289v-244h-140z" />
<glyph unicode="&#x443;" d="M94 1024h185l358 -866h78l254 866h166l-285 -920q-23 -72 -46.5 -163t-66.5 -170.5t-116.5 -135t-192.5 -55.5q-27 0 -56.5 6t-58 15.5t-53 21.5t-37.5 25l58 147q12 -10 33.5 -20.5t47 -17.5t50 -12t41.5 -5q154 0 209 260h-138z" />
<glyph unicode="&#x444;" d="M49 512q0 262 98.5 395t290.5 133q57 0 99 -8v264h-160v138h315v-404q37 6 65.5 8t55.5 2q186 0 276.5 -117.5t90.5 -390.5q0 -258 -95.5 -407.5t-279.5 -149.5q-18 0 -54 3.5t-59 11.5v-400h-155v402q-35 -12 -73 -14.5t-69 -2.5q-172 0 -259 131.5t-87 405.5zM213 512 q0 -86 12.5 -159.5t39 -128t68.5 -84t103 -29.5q25 0 49.5 2t53.5 8v776q-25 4 -46.5 6t-52.5 2q-111 0 -169 -95t-58 -298zM690 117q20 -4 46 -5t57 -1q117 0 170 108.5t53 312.5q0 86 -10.5 156t-37 118t-71.5 73.5t-115 25.5q-25 0 -44 -1t-48 -9v-778z" />
<glyph unicode="&#x445;" d="M94 0l424 524l-395 500h205l295 -385l303 385h184l-395 -492l420 -532h-197l-326 420l-331 -420h-187z" />
<glyph unicode="&#x446;" d="M184 0v1024h158v-885h528v885h160v-885h168v-385h-139v246h-875z" />
<glyph unicode="&#x447;" d="M184 739v285h158v-272q0 -55 7 -102.5t29.5 -81t63.5 -52t109 -18.5q111 0 182.5 23.5t106.5 49.5v453h159v-1024h-159v434q-37 -23 -112 -48.5t-204 -25.5q-86 0 -149.5 17.5t-105.5 61.5t-63.5 117t-21.5 183z" />
<glyph unicode="&#x448;" d="M113 0v1024h151v-881h275v881h151v-881h275v881h151v-1024h-1003z" />
<glyph unicode="&#x449;" d="M139 0v1024h152v-881h246v881h151v-881h246v881h151v-881h127v-389h-139v246h-934z" />
<glyph unicode="&#x44a;" d="M90 885v139h412v-395q55 8 105 11t98 3q119 0 201.5 -23.5t134 -64.5t75 -95t23.5 -118q0 -186 -126 -270t-382 -84q-131 0 -287 12v885h-254zM502 137q94 -12 170 -12q154 0 225.5 54t71.5 143q0 78 -70 133t-219 55q-39 0 -87 -2t-91 -12v-359z" />
<glyph unicode="&#x44b;" d="M96 0v1024h164v-391q49 8 94 11t86 3q104 0 175 -23.5t114 -64.5t60.5 -97t17.5 -120q0 -186 -103.5 -270t-334.5 -84q-131 0 -273 12zM260 143q76 -12 146 -12q129 0 180 50t51 143q0 82 -50 135t-175 53q-35 0 -76 -2t-76 -12v-355zM969 0v1024h164v-1024h-164z" />
<glyph unicode="&#x44c;" d="M229 8v1016h158v-395q55 8 117.5 11t144.5 3q119 0 202 -23.5t135 -64.5t75.5 -95t23.5 -118q0 -186 -125.5 -270t-384.5 -84q-33 0 -76.5 2t-90 5t-93.5 6t-86 7zM387 141q23 -4 54.5 -6t64.5 -5t63.5 -4t48.5 -1q154 0 225.5 54t71.5 143q0 78 -69.5 133t-218.5 55 q-68 0 -132.5 -2t-107.5 -12v-355z" />
<glyph unicode="&#x44d;" d="M154 113l67 127q59 -43 147.5 -82t198.5 -39q66 0 133.5 19.5t122 60.5t88 103.5t33.5 146.5h-485v135h483q-6 70 -34.5 130t-79 104t-121 68.5t-158.5 24.5q-59 0 -110.5 -9t-92.5 -25v-154h-139v250h4q72 37 164 56.5t219 19.5q117 0 211 -38t161.5 -107.5t104.5 -169 t37 -222.5q0 -127 -41 -227.5t-114.5 -169t-173 -104.5t-216.5 -36q-53 0 -112.5 10.5t-115.5 28t-103.5 43t-77.5 56.5z" />
<glyph unicode="&#x44e;" d="M100 0v1024h164v-428h168q6 111 28.5 194.5t65.5 141t109.5 87.5t161.5 30q104 0 172.5 -38t108.5 -109t56.5 -170t16.5 -220q0 -258 -80.5 -397.5t-277.5 -139.5q-102 0 -171 34t-110 96.5t-59.5 150.5t-22.5 197h-166v-453h-164zM590 512q0 -80 6 -151.5t26.5 -125 t61.5 -85t113 -31.5q57 0 94 23.5t56.5 71.5t26.5 122t7 176q0 80 -5 151.5t-23.5 125t-56.5 85t-101 31.5t-103.5 -23.5t-63 -71.5t-30.5 -123t-8 -175z" />
<glyph unicode="&#x44f;" d="M131 0v137h107l186 279q-39 10 -76 33.5t-66.5 59.5t-47 84t-17.5 107q0 92 37 159t102.5 110t155.5 62.5t199 19.5q78 0 147.5 -11.5t140.5 -23.5v-1016h-159v399h-246l-258 -399h-205zM385 713q0 -84 49 -130t119 -61h287v365q-29 10 -68 18t-67 8q-156 0 -238 -48 t-82 -152z" />
<glyph unicode="&#x451;" d="M129 512q0 129 36 229.5t103.5 168t163.5 103.5t215 36q86 0 170 -22.5t148.5 -85t99.5 -172.5t25 -284h-793q0 -184 99.5 -275t265.5 -91q55 0 109 13t103.5 31.5t87 41t58.5 41.5l63 -117q-37 -33 -87 -61.5t-109.5 -49t-124 -32t-129.5 -11.5q-123 0 -217 38 t-157.5 109t-96.5 169t-33 221zM268 1282q0 53 32 87t85 34q51 0 84 -34t33 -87q0 -49 -33 -83t-84 -34q-53 0 -85 34t-32 83zM303 629h637q-10 135 -87 209.5t-202 74.5q-68 0 -128 -14t-106 -48t-76 -88t-38 -134zM725 1282q0 53 31.5 87t83.5 34q53 0 87 -34t34 -87 q0 -49 -34 -83t-87 -34q-51 0 -83 34t-32 83z" />
<glyph unicode="&#x452;" d="M121 901v123h164v410h164v-410h327v-123h-327v-303h8q53 63 127.5 101t185.5 38q86 0 149.5 -19.5t105.5 -68.5t61.5 -132t19.5 -210v-362q0 -190 -65.5 -284.5t-209.5 -94.5q-16 0 -30.5 1t-30.5 3v139q57 0 91 17.5t52.5 53.5t23.5 91t5 129v270q0 80 -9 141.5 t-34 101.5t-66.5 60.5t-109.5 20.5q-96 0 -174 -62.5t-100 -160.5v-371h-164v901h-164z" />
<glyph unicode="&#x453;" d="M209 0v137h131v748h-131v139h827v-383h-139v244h-397v-748h311v-137h-602zM520 1169l134 306h223l-244 -306h-113z" />
<glyph unicode="&#x454;" d="M123 512q0 129 36 229.5t103.5 168t163.5 103.5t215 36q152 0 247 -27t161 -59l-2 -7v-284h-148v194q-47 16 -101.5 27.5t-107.5 11.5q-201 0 -299 -94q-80 -78 -94 -225h465v-135h-467q8 -55 27 -101q29 -70 82 -119t127.5 -75.5t164.5 -26.5q96 0 187.5 33t152.5 86 l72 -119q-29 -25 -72 -51.5t-99 -50t-125 -38t-148 -14.5q-133 0 -234.5 38t-169 109t-102.5 170t-35 220z" />
<glyph unicode="&#x455;" d="M172 119l82 133q25 -25 65.5 -50.5t90 -46t105.5 -32.5t114 -12q55 0 103 9t85 28.5t58.5 51t21.5 76.5q0 66 -51 102t-127 57.5t-165 40t-165 49t-127 82.5t-51 147q0 78 34 133t89 91t129 53.5t153 17.5q143 0 247 -36t165 -75l-65 -129q-68 37 -147 70.5t-198 33.5 q-45 0 -89 -9t-79.5 -27.5t-57 -48t-21.5 -72.5q0 -53 51 -82t127 -48.5t165 -37t164.5 -50t127 -88t51.5 -149.5q0 -141 -111.5 -233.5t-335.5 -92.5q-68 0 -133 12.5t-122.5 33t-104.5 46t-78 52.5z" />
<glyph unicode="&#x456;" d="M215 0v137h356v750h-356v137h520v-887h348v-137h-868zM516 1315q0 55 37 95t94 40q59 0 99 -40t40 -95q0 -53 -39.5 -90t-99.5 -37q-57 0 -94 37t-37 90z" />
<glyph unicode="&#x457;" d="M215 0v137h356v750h-356v137h520v-887h348v-137h-868zM268 1321q0 53 32 87t85 34q51 0 84 -34t33 -87q0 -49 -33 -83t-84 -34q-53 0 -85 34t-32 83zM725 1321q0 53 31.5 87t83.5 34q53 0 87 -34t34 -87q0 -49 -34 -83t-87 -34q-51 0 -83 34t-32 83z" />
<glyph unicode="&#x458;" d="M121 -313l67 133q55 -41 126 -72t147 -31q123 0 175 77t52 212v881h-495v137h659v-1049q0 -207 -105.5 -308t-291.5 -101q-55 0 -107.5 14t-97.5 33.5t-79 40t-50 33.5zM602 1315q0 55 37 95t94 40q59 0 99 -40t40 -95q0 -53 -39.5 -90t-99.5 -37q-57 0 -94 37t-37 90z " />
<glyph unicode="&#x459;" d="M12 10l25 137q25 -8 47 -8q37 0 66.5 35t52 132t39 269.5t22.5 448.5h498v-391q35 8 71.5 11t77.5 3q78 0 132.5 -23.5t88 -64.5t49 -97t15.5 -120q0 -186 -95 -270t-261 -84q-68 0 -122 3t-110 9v881h-200q-4 -80 -10.5 -177.5t-16.5 -195.5t-28.5 -191.5t-50.5 -165 t-78 -115.5t-113 -44q-39 0 -57.5 4t-41.5 14zM762 141q45 -12 115 -12q88 0 123.5 51t35.5 144q0 82 -31.5 135t-121.5 53q-35 0 -68 -2t-53 -12v-357z" />
<glyph unicode="&#x45a;" d="M39 0v1024h164v-424h340v424h164v-391q25 4 71.5 9t87.5 5q98 0 165 -23.5t107 -64.5t57 -97t17 -120q0 -186 -99 -270t-318 -84q-68 0 -137.5 3t-114.5 9v457h-340v-457h-164zM707 141l54 -6t70 -4q115 0 163 50t48 143q0 82 -47 135t-157 53q-35 0 -74 -5t-57 -9v-357z " />
<glyph unicode="&#x45b;" d="M121 901v123h164v410h164v-410h327v-123h-327v-303h8q53 63 127.5 101t185.5 38q86 0 149.5 -19.5t105.5 -68.5t61.5 -132t19.5 -210v-307h-164v270q0 80 -9 141.5t-34 101.5t-66.5 60.5t-109.5 20.5q-96 0 -174 -62.5t-100 -160.5v-371h-164v901h-164z" />
<glyph unicode="&#x45c;" d="M223 0v1024h158v-438h113l403 438h193l-453 -485l373 -402h133v-137h-211l-438 463h-113v-463h-158zM481 1169l134 306h223l-244 -306h-113z" />
<glyph unicode="&#x45e;" d="M94 1024h185l358 -866h78l254 866h166l-285 -920q-23 -72 -46.5 -163t-66.5 -170.5t-116.5 -135t-192.5 -55.5q-27 0 -56.5 6t-58 15.5t-53 21.5t-37.5 25l58 147q12 -10 33.5 -20.5t47 -17.5t50 -12t41.5 -5q154 0 209 260h-138zM324 1389l139 49q20 -94 70.5 -131 t116.5 -37t117 39t69 127l123 -39q-18 -119 -105.5 -182.5t-208.5 -63.5q-55 0 -109 14.5t-97 43t-74 73.5t-41 107z" />
<glyph unicode="&#x45f;" d="M205 0v1024h164v-881h491v881h164v-1024h-334v-328h-139v328h-346z" />
<glyph unicode="&#x462;" d="M14 1126v144h305v207h170v-207h424v-144h-424v-252q10 2 35 5.5t53.5 5.5t59.5 4t55 2q98 0 191.5 -19.5t166 -67.5t117.5 -131t45 -210q0 -123 -43 -213t-118.5 -149.5t-177 -88t-220.5 -28.5q-29 0 -69.5 1t-86.5 4t-92.5 9t-85.5 16v1112h-305zM489 143q29 -6 82.5 -9 t104.5 -3q74 0 138.5 19.5t113.5 59.5t76.5 100.5t27.5 140.5q0 86 -30.5 143t-81 90t-116 46t-134.5 13q-18 0 -45 -2t-53.5 -4t-49 -6t-33.5 -6v-582z" />
<glyph unicode="&#x463;" d="M76 889v135h223v410h164v-410h389v-135h-389v-256q49 8 102 11t140 3q106 0 179.5 -23.5t120 -64.5t67 -97t20.5 -120q0 -186 -112 -270t-347 -84q-35 0 -78 1t-88 2t-89 3t-79 6v889h-223zM463 143q41 -6 88 -9t88 -3q154 0 218.5 50t64.5 143q0 82 -62.5 135t-204.5 53 q-49 0 -102 -2t-90 -12v-355z" />
<glyph unicode="&#x472;" d="M98 717q0 356 126 548.5t388 192.5q143 0 242.5 -53t161 -150.5t88 -233.5t26.5 -304q0 -356 -125.5 -549t-392.5 -193q-141 0 -239.5 53.5t-159.5 150.5t-88 233.5t-27 304.5zM279 651q4 -109 22 -204t57 -165.5t101.5 -112.5t152.5 -42q166 0 247 128t89 396h-669z M281 803h667q-6 104 -25.5 195.5t-58.5 160t-100.5 108.5t-151.5 40q-160 0 -240.5 -124t-90.5 -380z" />
<glyph unicode="&#x473;" d="M117 512q0 248 129 392.5t368 144.5q129 0 222.5 -42t155 -114t91 -170t29.5 -211q0 -123 -32.5 -222.5t-96 -169t-157 -107.5t-212.5 -38q-127 0 -221 42t-155.5 114t-91 170t-29.5 211zM289 444q6 -63 28.5 -123.5t61.5 -106.5t97 -73.5t138 -27.5q147 0 229.5 84 t96.5 247h-651zM289 575h651q-6 63 -28.5 125t-61.5 108t-97.5 74.5t-138.5 28.5q-301 0 -325 -336z" />
<glyph unicode="&#x474;" d="M-59 1434h184l401 -1160h15l200 734q47 160 89 249t85 131t88.5 51t98.5 9q72 0 112.5 -11.5t75.5 -33.5l-49 -143q-41 23 -77 29.5t-64 6.5q-57 0 -96 -53t-80 -178l-320 -1065h-160z" />
<glyph unicode="&#x475;" d="M82 1024h188l301 -739h2l148 381q33 88 61.5 156.5t62.5 116.5t78 73.5t105 25.5q37 0 65.5 -4t53.5 -14l-25 -152q-18 8 -35.5 13.5t-33.5 5.5q-35 0 -70 -31t-76 -127l-311 -752h-70z" />
<glyph unicode="&#x48a;" d="M49 0v1434h170v-963l-10 -203h12l117 230l532 936h162v-1291h213l-145 -409h-152l92 266h-178v950l12 205h-12l-119 -229l-532 -926h-162zM221 1741l162 41q8 -76 57 -117t131 -41t130.5 41t58.5 115l145 -35q-23 -111 -103.5 -175.5t-232.5 -64.5q-145 0 -238 56.5 t-110 179.5z" />
<glyph unicode="&#x48b;" d="M174 0v1024h160v-662l-6 -129h8l571 791h148v-887h217l-146 -403h-151l92 266h-172v643l6 135h-6l-576 -778h-145zM301 1389l139 49q20 -94 70.5 -131t116.5 -37t117 39t69 127l123 -39q-18 -119 -105.5 -182.5t-207.5 -63.5q-55 0 -109.5 14.5t-97.5 43t-74 73.5 t-41 107z" />
<glyph unicode="&#x48c;" d="M14 1126v144h305v207h170v-207h424v-144h-424v-252q10 2 35 5.5t53.5 5.5t59.5 4t55 2q98 0 191.5 -19.5t166 -67.5t117.5 -131t45 -210q0 -123 -43 -213t-118.5 -149.5t-177 -88t-220.5 -28.5q-29 0 -69.5 1t-86.5 4t-92.5 9t-85.5 16v1112h-305zM489 143q29 -6 82.5 -9 t104.5 -3q74 0 138.5 19.5t113.5 59.5t76.5 100.5t27.5 140.5q0 86 -30.5 143t-81 90t-116 46t-134.5 13q-18 0 -45 -2t-53.5 -4t-49 -6t-33.5 -6v-582z" />
<glyph unicode="&#x48d;" d="M76 889v135h223v410h164v-410h389v-135h-389v-256q49 8 102 11t140 3q106 0 179.5 -23.5t120 -64.5t67 -97t20.5 -120q0 -186 -112 -270t-347 -84q-35 0 -78 1t-88 2t-89 3t-79 6v889h-223zM463 143q41 -6 88 -9t88 -3q154 0 218.5 50t64.5 143q0 82 -62.5 135t-204.5 53 q-49 0 -102 -2t-90 -12v-355z" />
<glyph unicode="&#x48e;" d="M166 0v1419q78 18 168 24.5t178 6.5q94 0 191.5 -18.5t177.5 -67.5t130 -135t50 -219q0 -154 -64.5 -252.5t-167.5 -151.5l140 -200l-95 -68l-157 225q-98 -27 -213 -26h-34t-49.5 1t-50 3t-34.5 4v-545h-170zM336 696q10 -4 32.5 -5t47 -2t47 -1h33.5q35 0 67.5 2 t67.5 10l-131 191l88 55l145 -211q66 35 107 99.5t41 175.5q0 84 -32 140t-84 90t-117.5 48.5t-131.5 14.5q-53 0 -102 -2.5t-78 -10.5v-594z" />
<glyph unicode="&#x48f;" d="M43 891v133h272l21 -143h10q55 72 140 120t208 48q219 0 330 -121t111 -396q0 -129 -38 -232t-108 -175q-18 -18 -37 -33l121 -137l-98 -84l-131 152q-12 -4 -23 -9q-98 -39 -217 -39q-43 0 -76.5 3.5t-61.5 8.5t-54.5 13t-57.5 20v-430h-157v1076q0 18 -1 47.5 t-3.5 61.5t-5.5 62.5t-7 53.5h-137zM354 178q45 -31 101.5 -48t148.5 -17q78 0 141 24l-124 146l94 84l137 -160q8 6 14 12q98 109 99 316q0 174 -68.5 269t-228.5 95q-61 0 -115.5 -22.5t-96.5 -59.5t-69 -82t-33 -90v-467z" />
<glyph unicode="&#x490;" d="M143 0v152h197v1130h-197v152h832v245h151v-397h-616v-1130h342v-152h-709z" />
<glyph unicode="&#x491;" d="M209 0v137h131v748h-131v139h688v246h139v-385h-536v-748h311v-137h-602z" />
<glyph unicode="&#x492;" d="M131 653v135h197v646h768v-152h-598v-494h440v-135h-440v-653h-170v653h-197z" />
<glyph unicode="&#x493;" d="M100 449v122h185v453h762v-143h-598v-310h509v-122h-509v-449h-164v449h-185z" />
<glyph unicode="&#x494;" d="M168 0v1434h768v-152h-598v-555q25 8 97.5 25.5t185.5 17.5q82 0 160.5 -22.5t141 -78t100.5 -150.5t38 -240q0 -281 -124 -411t-353 -130q-68 0 -97.5 1t-46.5 5v152q27 -4 58.5 -5.5t91.5 -1.5q291 0 291 375q0 104 -25 173t-66.5 111t-98 58.5t-122.5 16.5 q-37 0 -72.5 -5.5t-67.5 -12.5t-55.5 -15t-35.5 -12v-578h-170z" />
<glyph unicode="&#x495;" d="M201 0v1024h780v-143h-616v-365q12 4 33.5 11.5t58.5 14.5t92 12t133 5q82 0 159 -23.5t136 -78t95 -143.5t36 -222q0 -268 -107.5 -394t-336.5 -126q-68 0 -97.5 1t-46.5 5v143q27 -4 58.5 -5t91.5 -1q143 0 208.5 93.5t65.5 263.5q0 92 -24.5 156.5t-65.5 106.5 t-97.5 61.5t-119.5 19.5q-119 0 -184.5 -16.5t-87.5 -26.5v-373h-164z" />
<glyph unicode="&#x496;" d="M0 0l268 723l-231 711h178l195 -643h120v643h164v-643h103l225 643h168l-248 -701l227 -581h99v-398h-144v246h-84l-239 664h-107v-664h-164v664h-112l-242 -664h-176z" />
<glyph unicode="&#x497;" d="M12 0l262 524l-235 500h178l186 -442h129v442h160v-442h111l217 442h168l-242 -475l203 -412h104v-383h-139v246h-80l-219 459h-123v-459h-160v459h-124l-220 -459h-176z" />
<glyph unicode="&#x498;" d="M164 49v326h151v-215q49 -16 110.5 -28.5t133.5 -12.5q156 0 251 73.5t95 221.5q0 129 -88 191.5t-233 72.5h-123v143h141q53 6 100.5 27.5t83 54.5t56 76t20.5 92q0 68 -23.5 114t-64.5 74.5t-98.5 42t-126.5 13.5q-59 0 -116.5 -8.5t-104.5 -20.5v-203h-152v306 q20 12 59 24t92.5 22.5t117 16.5t133.5 6q92 0 176 -17.5t148.5 -57.5t102 -108.5t37.5 -168.5q0 -102 -66.5 -195.5t-201.5 -134.5v-8q145 -20 228 -108.5t83 -235.5q0 -117 -45 -202t-119.5 -140t-168.5 -82q-51 -12 -105 -18v-310h-143v305q-106 4 -185 23 q-98 27 -155 49z" />
<glyph unicode="&#x499;" d="M162 145l82 129q23 -25 55.5 -52t80.5 -49.5t110.5 -38t144.5 -15.5q57 0 107.5 11t88 32.5t60 55.5t22.5 79q0 78 -70.5 119t-232.5 41h-116v133h145q41 0 82 13t73.5 34.5t53 51.5t20.5 63q0 41 -20.5 70.5t-56 48t-84 27.5t-101.5 9q-82 0 -143.5 -15t-104.5 -38v-170 h-139v244l-2 6q35 20 75 39.5t90 35t113.5 25.5t145.5 10q84 0 155.5 -17t125 -50t83 -81t29.5 -110q0 -33 -13 -68.5t-40 -68.5t-63.5 -59.5t-83.5 -40.5v-8q135 -23 189 -86.5t54 -167.5q0 -66 -30.5 -121t-91 -96t-150.5 -66q-51 -12 -115 -18v-314h-139v312 q-61 2 -113 14q-72 16 -126 40.5t-92 53.5t-58 53z" />
<glyph unicode="&#x49a;" d="M174 0v1434h170v-639h154l460 639h197l-506 -682l455 -600h125v-398h-144v246h-81l-502 664h-158v-664h-170z" />
<glyph unicode="&#x49b;" d="M182 0v1024h158v-438h113l403 438h193l-453 -485l373 -402h137v-383h-139v246h-76l-438 463h-113v-463h-158z" />
<glyph unicode="&#x49c;" d="M96 0v1434h170v-639h111v239h135v-239h51l400 639h196l-444 -682l487 -752h-215l-420 664h-55v-265h-135v265h-111v-664h-170z" />
<glyph unicode="&#x49d;" d="M152 0v1024h157v-438h105v237h129v-237h73l302 438h172l-330 -485l282 -402h101v-137h-191l-336 463h-73v-262h-129v262h-105v-463h-157z" />
<glyph unicode="&#x49e;" d="M0 1167v136h236v131h170v-131h243v-136h-243v-372h92l460 639h197l-506 -682l570 -752h-215l-502 664h-96v-664h-170v1167h-236z" />
<glyph unicode="&#x49f;" d="M49 1296v138h332v-287h326v-123h-326v-438h113l403 438h193l-453 -485l373 -402h133v-137h-211l-438 463h-113v-463h-158v1024h-172v123h172v149h-174z" />
<glyph unicode="&#x4a0;" d="M10 1282v152h439v-639h51l461 639h196l-506 -682l570 -752h-215l-502 664h-55v-664h-170v1282h-269z" />
<glyph unicode="&#x4a1;" d="M39 881v143h383v-438h113l403 438h192l-452 -485l373 -402h133v-137h-211l-438 463h-113v-463h-158v881h-225z" />
<glyph unicode="&#x4a2;" d="M129 0v1434h170v-625h545v625h170v-1282h188v-398h-143v246h-215v657h-545v-657h-170z" />
<glyph unicode="&#x4a3;" d="M143 0v1024h164v-428h565v428h164v-887h150v-383h-139l-3 246h-172v453h-565v-453h-164z" />
<glyph unicode="&#x4a4;" d="M6 0v1434h170v-625h483v625h564v-152h-394v-1282h-170v657h-483v-657h-170z" />
<glyph unicode="&#x4a5;" d="M43 0v1024h164v-428h463v428h516v-143h-352v-881h-164v453h-463v-453h-164z" />
<glyph unicode="&#x4a6;" d="M39 0v1434h694v-686q23 8 58.5 15t101.5 7q68 0 124 -22.5t97 -78t63.5 -150.5t22.5 -240q0 -281 -100.5 -411t-284.5 -130q-72 0 -102 6v152q27 -4 53.5 -5.5t54.5 -1.5q98 0 154.5 93.5t56.5 281.5q0 104 -11 173t-33.5 111t-58.5 58.5t-85 16.5q-29 0 -58.5 -7.5 t-52.5 -17.5v-598h-170v1282h-354v-1282h-170z" />
<glyph unicode="&#x4a7;" d="M59 0v1024h658v-492q23 10 56.5 18.5t94.5 8.5q74 0 133.5 -23.5t102.5 -78t65.5 -143.5t22.5 -222q0 -268 -98.5 -394t-298.5 -126q-76 0 -107 6v143q27 -4 53.5 -5t59.5 -1q117 0 172 93.5t55 263.5q0 184 -49 264t-148 80q-33 0 -62.5 -8.5t-51.5 -18.5v-389h-164v881 h-330v-881h-164z" />
<glyph unicode="&#x4a8;" d="M31 717q0 358 122.5 549.5t362.5 191.5v-151q-145 0 -225 -144.5t-80 -443.5q0 -297 95 -447.5t253 -152.5q23 0 50.5 2t47.5 10q-66 39 -117 104.5t-86.5 146.5t-55 173t-19.5 186q0 319 105.5 486.5t306.5 165.5q203 -2 301 -154t98 -424q0 -254 -59.5 -424 t-163.5 -262q10 -2 33.5 -5t33.5 -3q29 2 67 4t77 31l51 -133q-39 -31 -78 -38.5t-92 -9.5q-66 -2 -131.5 15.5t-110.5 46.5q-53 -31 -119.5 -46.5t-138.5 -15.5q-137 0 -236.5 53.5t-164 149.5t-96 233.5t-31.5 305.5zM559 725q0 -72 15.5 -149.5t47 -151.5t82 -136.5 t119.5 -101.5q92 86 139.5 232.5t47.5 384.5q0 92 -11.5 172t-36 139.5t-65.5 93t-98 33.5q-117 0 -178.5 -122t-61.5 -394z" />
<glyph unicode="&#x4a9;" d="M18 512q0 256 114 395.5t337 141.5v-144q-141 -2 -211 -97t-70 -294q0 -80 19.5 -151.5t60.5 -126t101.5 -86t144.5 -31.5q23 0 52.5 4t49.5 16q-74 45 -125 147.5t-51 231.5q0 90 17.5 180t59.5 163t113.5 118t180.5 45q94 0 160.5 -35t108.5 -94t61.5 -139t19.5 -172 q0 -82 -20.5 -156t-54 -134.5t-77.5 -104.5t-89 -64q31 -14 77 -14q41 0 84 15t78 52l51 -123q-37 -35 -99 -57.5t-136 -22.5q-57 0 -115.5 18.5t-95.5 55.5q-61 -43 -135 -58.5t-140 -15.5q-113 0 -200.5 38t-147 109t-91.5 170t-32 220zM610 524q0 -117 46 -214t124 -150 q43 20 81 60t66.5 95.5t46 123t17.5 145.5q0 55 -11 108t-33.5 95t-56.5 68t-81 26q-61 0 -100 -31t-60.5 -82t-30 -114.5t-8.5 -129.5z" />
<glyph unicode="&#x4aa;" d="M133 717q0 201 49 341t133 229t196 130t239 41q70 0 121 -5t89.5 -14t68.5 -23.5t58 -33.5h3v-323h-152v219q-35 14 -77 21.5t-101 7.5q-84 0 -165 -31t-143.5 -100.5t-100.5 -182t-38 -276.5q0 -147 34 -258t94.5 -184.5t145.5 -110.5t189 -37q53 0 99.5 9t85.5 26v205 h151v-277l2 -4q-61 -47 -156 -80q-72 -23 -167 -29v-305h-144v308q-84 10 -158 38q-109 45 -188.5 135.5t-123.5 230.5t-44 333z" />
<glyph unicode="&#x4ab;" d="M123 512q0 129 36 229.5t103.5 168t163.5 103.5t215 36q152 0 247 -27t161 -59l-2 -7v-284h-148v194q-47 16 -101.5 27.5t-107.5 11.5q-201 0 -299 -94t-98 -299q0 -90 28.5 -160.5t82 -120t128 -76t164.5 -26.5q96 0 187.5 33t152.5 86l72 -119q-29 -25 -72 -51.5 t-99 -50t-126 -37.5q-47 -10 -100 -13v-305h-140v310q-78 8 -143 30q-100 39 -167.5 110t-102.5 170t-35 220z" />
<glyph unicode="&#x4ac;" d="M82 1059v375h1065v-375h-152v223h-297v-1130h189v-398h-144v246h-215v1282h-295v-223h-151z" />
<glyph unicode="&#x4ad;" d="M106 641v383h1016v-383h-139v244h-289v-748h289v-383h-139v246h-565v137h256v748h-289v-244h-140z" />
<glyph unicode="&#x4ae;" d="M18 1434h199l410 -709h2l399 709h182l-510 -883v-551h-170v549z" />
<glyph unicode="&#x4af;" d="M88 1024h188l342 -825h23l322 825h178l-441 -1038v-396h-163v394z" />
<glyph unicode="&#x4b0;" d="M18 1434h199l410 -709h2l399 709h182l-491 -850h289v-127h-308v-457h-170v457h-307v127h287z" />
<glyph unicode="&#x4b1;" d="M88 1024h188l342 -825h23l322 825h178l-434 -1024h239v-123h-246v-287h-163v287h-246v123h237z" />
<glyph unicode="&#x4b2;" d="M41 0l473 729l-432 705h205l286 -486l52 -96l49 96l305 486h188l-448 -691l373 -591h127v-398h-144v246h-86l-321 514l-56 102l-53 -102l-328 -514h-190z" />
<glyph unicode="&#x4b3;" d="M94 0l424 524l-395 500h205l295 -385l303 385h184l-395 -492l311 -395h150v-383h-140v246h-98l-326 420l-331 -420h-187z" />
<glyph unicode="&#x4b4;" d="M0 1282v152h774v-152h-299v-1130h414v1282h170v-1282h170v-441h-144v289h-780v1282h-305z" />
<glyph unicode="&#x4b5;" d="M14 881v143h752v-143h-287v-738h424v881h164v-881h147v-403h-139v260h-760v881h-301z" />
<glyph unicode="&#x4b6;" d="M66 928v506h170v-476q0 -281 253 -280q96 0 180.5 25.5t137.5 68.5v662h170v-1282h186v-398h-143v246h-213v618q-55 -31 -145.5 -61.5t-206.5 -30.5q-86 0 -158 19.5t-123 65.5t-79.5 124t-28.5 193z" />
<glyph unicode="&#x4b7;" d="M184 739v285h158v-272q0 -55 7 -102.5t29.5 -81t63.5 -52t109 -18.5q111 0 182.5 23.5t106.5 49.5v453h159v-887h166v-383h-139v246h-186v434q-37 -23 -112 -48.5t-204 -25.5q-86 0 -149.5 17.5t-105.5 61.5t-63.5 117t-21.5 183z" />
<glyph unicode="&#x4b8;" d="M150 928v506h169v-476q0 -268 232 -280v254h135v-246q66 10 123 32.5t98 53.5v662h170v-1434h-170v618q-39 -23 -95 -43t-126 -34v-244h-135v229q-92 0 -167 19.5t-127 65.5t-79.5 124t-27.5 193z" />
<glyph unicode="&#x4b9;" d="M184 739v285h158v-272q0 -55 7 -102.5t29.5 -81t63.5 -52.5q35 -16 90 -18v266h130v-260q39 6 71 16q72 25 107 51v453h159v-1024h-159v434q-37 -23 -113 -49q-29 -10 -65 -16v-230h-130v221h-8q-86 0 -149.5 17.5t-105.5 61.5t-63.5 117t-21.5 183z" />
<glyph unicode="&#x4ba;" d="M158 0v1434h170v-619q55 31 146 61.5t206 30.5q86 0 158.5 -19.5t124 -65.5t80 -123.5t28.5 -192.5v-506h-170v475q0 281 -254 281q-98 0 -182 -25.5t-137 -68.5v-662h-170z" />
<glyph unicode="&#x4bb;" d="M8 1296v138h320v-537h10q63 72 147 112t209 40q98 0 171 -20.5t119 -72t68.5 -140.5t22.5 -226v-590h-160v559q0 88 -10 153.5t-39.5 109.5t-81 66.5t-131.5 22.5q-55 0 -108 -19.5t-97.5 -53t-76 -81.5t-43.5 -106v-651h-158v1296h-162z" />
<glyph unicode="&#x4bc;" d="M16 903q0 45 15.5 88t42.5 70h159q-33 -27 -50 -68t-17 -71q0 -25 5 -48.5t18.5 -43t36 -31t57.5 -8.5l30 2q14 319 130 492t331 173q119 0 200 -40t128 -114.5t67.5 -184t20.5 -249.5q0 -102 -19 -219h-686q8 -133 29 -232.5t60.5 -164t102 -96t159.5 -31.5 q92 0 162.5 35t117.5 80l76 -117q-57 -61 -149.5 -105.5t-219.5 -44.5q-240 0 -367.5 161t-142.5 515h-34q-137 0 -200 71t-63 181zM483 795h529q4 29 6 55.5t2 52.5q0 82 -7 156t-32 131t-74 91t-131 34q-143 0 -212.5 -137.5t-80.5 -382.5z" />
<glyph unicode="&#x4bd;" d="M35 739q0 61 20.5 104.5t63.5 86.5h160q-41 -29 -69 -72t-28 -108q0 -23 7.5 -44.5t23.5 -39t44 -28.5t69 -11q14 0 22 2q25 205 138.5 312.5t306.5 107.5q70 0 139 -15.5t124.5 -58.5t90.5 -122t35 -208q0 -68 -13 -149h-657q0 -90 18.5 -160t57.5 -118t101.5 -73.5 t152.5 -25.5q70 0 139.5 23.5t103.5 56.5l62 -117q-61 -49 -154.5 -78t-197.5 -29q-115 0 -200 37t-140.5 104.5t-83 163t-29.5 214.5h-25q-74 0 -127 19t-87.5 52t-51 78t-16.5 96zM514 625h508q0 156 -59 218t-168 62q-121 0 -194 -63.5t-87 -216.5z" />
<glyph unicode="&#x4be;" d="M16 903q0 45 15.5 88t42.5 70h159q-33 -27 -50 -68t-17 -71q0 -25 5 -48.5t18.5 -43t36 -31t57.5 -8.5l30 2q14 319 130 492t331 173q119 0 200 -40t128 -114.5t67.5 -184t20.5 -249.5q0 -102 -19 -219h-686q8 -133 29 -232.5t60.5 -164t102 -96t159.5 -31.5 q92 0 162.5 35t117.5 80l76 -117q-53 -55 -132 -96t-188 -52v-305h-143v310q-197 29 -300 189.5t-116 479.5h-34q-137 0 -200 71t-63 181zM483 795h529q4 29 6 55.5t2 52.5q0 82 -7 156t-32 131t-74 91t-131 34q-143 0 -212.5 -137.5t-80.5 -382.5z" />
<glyph unicode="&#x4bf;" d="M35 739q0 61 20.5 104.5t63.5 86.5h160q-41 -29 -69 -72t-28 -108q0 -23 7.5 -44.5t23.5 -39t44 -28.5t69 -11q14 0 22 2q25 205 138.5 312.5t306.5 107.5q70 0 139 -15.5t124.5 -58.5t90.5 -122t35 -208q0 -68 -13 -149h-657q0 -90 18.5 -160t57.5 -118t101.5 -73.5 t152.5 -25.5q70 0 139.5 23.5t103.5 56.5l62 -117q-53 -43 -129 -68.5t-164 -33.5v-308h-139v310q-188 23 -279.5 160t-93.5 352h-25q-74 0 -127 19t-87.5 52t-51 78t-16.5 96zM514 625h508q0 156 -59 218t-168 62q-121 0 -194 -63.5t-87 -216.5z" />
<glyph unicode="&#x4c0;" d="M123 0v152h405v1130h-405v152h983v-152h-408v-1130h408v-152h-983z" />
<glyph unicode="&#x4c3;" d="M174 0v1434h170v-639h154l460 639h197l-493 -666q442 -43 442 -616v-37q0 -147 -27.5 -252t-80 -170.5t-126 -95t-165.5 -29.5h-27.5t-30.5 2v149q82 0 136.5 22.5t88 73t48 131t14.5 199.5q0 279 -113.5 399t-349.5 120h-127v-664h-170z" />
<glyph unicode="&#x4c4;" d="M223 0v1024h158v-459h113l403 459h193l-433 -481q137 -10 220.5 -59.5t128.5 -120t60 -153.5t15 -159q0 -133 -32.5 -225t-92 -151.5t-140.5 -86t-179 -26.5h-54t-57 4v141q10 -2 39 -2h39q78 0 136.5 16.5t98.5 54.5t59.5 100.5t19.5 156.5q0 215 -116 313t-331 96h-90 v-442h-158z" />
<glyph unicode="&#x4c5;" d="M6 10l23 148q20 -6 43 -6q35 0 68.5 22.5t66.5 83.5q29 55 54.5 147.5t45 233.5t31.5 336.5t18 458.5h717v-1291h191l-146 -409h-151l92 266h-156v1282h-387q-20 -410 -54 -681t-102 -423q-45 -98 -106 -143t-133 -45q-37 0 -63.5 5t-51.5 15z" />
<glyph unicode="&#x4c6;" d="M41 10l27 152q39 -10 72.5 -10t60 24.5t48 78.5t37 153.5t26 250t16.5 365.5h663v-887h217l-145 -403h-152l93 266h-173v885h-354q-8 -186 -20.5 -349t-46 -284t-96 -190.5t-169.5 -69.5q-41 0 -59 4t-45 14z" />
<glyph unicode="&#x4c7;" d="M141 0v1434h170v-625h607v625h169v-1489q0 -190 -64.5 -284.5t-207.5 -94.5h-31.5t-31.5 4v143q57 0 91 16.5t50 52.5t20.5 90t4.5 128v657h-607v-657h-170z" />
<glyph unicode="&#x4c8;" d="M168 0v1024h164v-428h565v428h164v-1079q0 -190 -65.5 -284.5t-209.5 -94.5q-16 0 -30.5 1t-30.5 3v139q57 0 91 17.5t52.5 53.5t23.5 91t5 129v453h-565v-453h-164z" />
<glyph unicode="&#x4c9;" d="M117 0v1434h170v-625h565v625h170v-1291h213l-145 -409h-152l92 266h-178v657h-565v-657h-170z" />
<glyph unicode="&#x4ca;" d="M139 0v1024h158v-426h551v426h160v-887h215l-146 -403h-151l92 266h-170v455h-551v-455h-158z" />
<glyph unicode="&#x4cb;" d="M158 928v506h170v-476q0 -281 254 -280q96 0 180 25.5t137 68.5v662h170v-1434h-215v-246h-143v398h188v466q-55 -31 -145 -61.5t-207 -30.5q-86 0 -158 19.5t-123 65.5t-79.5 124t-28.5 193z" />
<glyph unicode="&#x4cc;" d="M184 739v285h158v-272q0 -55 7 -102.5t29.5 -81t63.5 -52t109 -18.5q111 0 182.5 23.5t106.5 49.5v453h159v-1024h-194v-246h-139v377h174v303q-37 -23 -112 -48.5t-204 -25.5q-86 0 -149.5 17.5t-105.5 61.5t-63.5 117t-21.5 183z" />
<glyph unicode="&#x4cd;" d="M82 0v1434h158l340 -545h4l327 545h154v-1291h213l-145 -409h-152l92 266h-178v952l20 195h-10l-98 -176l-209 -350h-51l-219 352l-95 174h-10l25 -193v-954h-166z" />
<glyph unicode="&#x4ce;" d="M131 0v1024h162l325 -514h5l311 514h164v-887h215l-146 -403h-151l92 266h-170v608l4 146h-10l-295 -469h-57l-299 469h-9l11 -144v-610h-152z" />
<glyph unicode="&#x4cf;" d="M246 1296v138h450v-1297h283v-137h-447v1296h-286z" />
<glyph unicode="&#x4d0;" d="M33 0l479 1434h201l483 -1434h-178l-135 397h-551l-131 -397h-168zM266 1741l162 41q8 -76 57.5 -117t131.5 -41t130 41t58 115l145 -35q-23 -111 -103.5 -175.5t-231.5 -64.5q-145 0 -238.5 56.5t-110.5 179.5zM385 545h451l-211 674h-25z" />
<glyph unicode="&#x4d1;" d="M154 272q0 104 46 174t132 107t208 43t273 -16q10 94 3 156.5t-32.5 99t-71.5 52t-114 15.5q-92 0 -176 -25.5t-150 -52.5l-51 119q88 51 198.5 73.5t217.5 22.5q104 0 170.5 -32.5t104.5 -85t51.5 -119t13.5 -133.5q0 -78 -4 -166t-6 -176q0 -102 12 -195h137v-133h-272 l-19 154h-10q-12 -18 -36.5 -47t-64.5 -56.5t-97.5 -48t-135.5 -20.5q-152 0 -239.5 77.5t-87.5 212.5zM313 1389l139 49q20 -94 70.5 -131t116.5 -37t117 39t69 127l123 -39q-18 -119 -105.5 -182.5t-208.5 -63.5q-55 0 -109 14.5t-97 43t-74 73.5t-41 107zM322 287 q0 -68 45.5 -118t154.5 -50q57 0 106.5 18.5t86.5 47t61.5 62.5t36.5 64v144q-106 18 -196.5 18t-156 -19.5t-102 -60.5t-36.5 -106z" />
<glyph unicode="&#x4d2;" d="M33 0l479 1434h201l483 -1434h-178l-135 397h-551l-131 -397h-168zM256 1638q0 47 36 77t93 30q53 0 89 -29.5t36 -77.5q0 -47 -36 -75.5t-89 -28.5q-57 0 -93 28.5t-36 75.5zM385 545h451l-211 674h-25zM717 1638q0 47 34.5 77t88.5 30q59 0 94 -29.5t35 -77.5 q0 -47 -35 -75.5t-94 -28.5q-53 0 -88 28.5t-35 75.5z" />
<glyph unicode="&#x4d3;" d="M154 272q0 104 46 174t132 107t208 43t273 -16q10 94 3 156.5t-32.5 99t-71.5 52t-114 15.5q-92 0 -176 -25.5t-150 -52.5l-51 119q88 51 198.5 73.5t217.5 22.5q104 0 170.5 -32.5t104.5 -85t51.5 -119t13.5 -133.5q0 -78 -4 -166t-6 -176q0 -102 12 -195h137v-133h-272 l-19 154h-10q-12 -18 -36.5 -47t-64.5 -56.5t-97.5 -48t-135.5 -20.5q-152 0 -239.5 77.5t-87.5 212.5zM284 1282q0 53 32 87t85 34q51 0 84 -34t33 -87q0 -49 -33 -83t-84 -34q-53 0 -85 34t-32 83zM322 287q0 -68 45.5 -118t154.5 -50q57 0 106.5 18.5t86.5 47t61.5 62.5 t36.5 64v144q-106 18 -196.5 18t-156 -19.5t-102 -60.5t-36.5 -106zM741 1282q0 53 31.5 87t83.5 34q53 0 87 -34t34 -87q0 -49 -34 -83t-87 -34q-51 0 -83 34t-32 83z" />
<glyph unicode="&#x4d4;" d="M41 0l561 1434h557v-154h-368v-467h333v-154h-333v-505h374v-154h-538v391h-267l-149 -391h-170zM412 539h215v591h-4l-43 -135z" />
<glyph unicode="&#x4d5;" d="M59 283q0 88 25 148.5t70 97t105 52t134 15.5h27.5t41 -1t41 -2t29.5 -1q2 29 3.5 55.5t1.5 48.5q0 59 -16.5 99.5t-42 64t-59.5 33.5t-71 10q-47 0 -102.5 -19.5t-93.5 -49.5l-39 118q51 45 121.5 66.5t146.5 21.5q35 0 73 -8t72.5 -24.5t61 -40t37.5 -56.5 q18 37 47.5 62.5t64.5 43t72 25t68 7.5q47 0 99 -15.5t95 -58.5t70.5 -117t27.5 -190q0 -41 -2 -96.5t-8 -102.5h-493q2 -197 67.5 -276.5t173.5 -79.5q25 0 51.5 5t52 12t46 17.5t30.5 20.5l50 -115q-41 -35 -114 -56.5t-151 -21.5q-41 0 -85 10.5t-82.5 30t-69.5 49 t-47 68.5h-8q-35 -72 -100.5 -110.5t-170.5 -38.5q-111 0 -180.5 81.5t-69.5 217.5zM211 297q0 -72 34.5 -124t112.5 -52q66 0 114 36t63 89v215q-6 0 -22.5 1t-34 2t-34 1h-22.5q-41 0 -80 -5t-67.5 -22.5t-46 -51.5t-17.5 -89zM670 602h358v37q0 137 -46 204.5t-105 67.5 q-37 0 -73 -18.5t-64.5 -57t-48 -96t-21.5 -137.5z" />
<glyph unicode="&#x4d6;" d="M219 0v1434h842v-152h-672v-469h621v-151h-621v-510h682v-152h-852zM264 1741l162 41q8 -76 57.5 -117t131.5 -41t130 41t58 115l145 -35q-23 -111 -103.5 -175.5t-231.5 -64.5q-145 0 -238.5 56.5t-110.5 179.5z" />
<glyph unicode="&#x4d7;" d="M129 512q0 129 36 229.5t103.5 168t163.5 103.5t215 36q86 0 170 -22.5t148.5 -85t99.5 -172.5t25 -284h-793q0 -184 99.5 -275t265.5 -91q55 0 109 13t103.5 31.5t87 41t58.5 41.5l63 -117q-37 -33 -87 -61.5t-109.5 -49t-124 -32t-129.5 -11.5q-123 0 -217 38 t-157.5 109t-96.5 169t-33 221zM303 629h637q-10 135 -87 209.5t-202 74.5q-68 0 -128 -14t-106 -48t-76 -88t-38 -134zM315 1389l139 49q20 -94 70.5 -131t116.5 -37t117 39t69 127l123 -39q-18 -119 -105.5 -182.5t-208.5 -63.5q-55 0 -109 14.5t-97 43t-74 73.5t-41 107z " />
<glyph unicode="&#x4d8;" d="M113 571q0 53 5 111.5t15 120.5h793q-18 260 -103.5 382t-275.5 122q-47 0 -94 -8.5t-89 -20.5t-77 -26.5t-58 -28.5l-43 137q61 37 164 67.5t230 30.5q123 0 218 -42t161.5 -131t101.5 -230.5t35 -337.5q0 -356 -126 -549t-380 -193q-111 0 -200 42t-150.5 119 t-94 187.5t-32.5 247.5zM283 551q0 -84 18 -162t56 -137t96.5 -96t138.5 -37q170 0 251 136t83 404h-635q-4 -29 -6 -54t-2 -54z" />
<glyph unicode="&#x4d9;" d="M139 580h793q-8 143 -103.5 234t-261.5 91q-55 0 -107 -13t-96.5 -31.5t-80 -41t-56.5 -41.5l-67 127q82 66 193.5 105t242.5 39q123 0 217 -38t157.5 -109t96.5 -169t33 -221q0 -129 -36 -229.5t-103.5 -168t-164 -103.5t-214.5 -36q-86 0 -173 31t-154 102.5 t-101.5 186.5t-14.5 285zM297 436q0 -70 21.5 -129t62.5 -103t100 -68.5t137 -24.5q53 0 107.5 19.5t98.5 59t73 101t29 145.5h-629z" />
<glyph unicode="&#x4da;" d="M113 571q0 53 5 111.5t15 120.5h793q-18 260 -103.5 382t-275.5 122q-47 0 -94 -8.5t-89 -20.5t-77 -26.5t-58 -28.5l-43 137q61 37 164 67.5t230 30.5q123 0 218 -42t161.5 -131t101.5 -230.5t35 -337.5q0 -356 -126 -549t-380 -193q-111 0 -200 42t-150.5 119 t-94 187.5t-32.5 247.5zM223 1638q0 47 36 77t93 30q53 0 89 -29.5t36 -77.5q0 -47 -36 -75.5t-89 -28.5q-57 0 -93 28.5t-36 75.5zM283 551q0 -84 18 -162t56 -137t96.5 -96t138.5 -37q170 0 251 136t83 404h-635q-4 -29 -6 -54t-2 -54zM684 1638q0 47 34.5 77t88.5 30 q59 0 94 -29.5t35 -77.5q0 -47 -35 -75.5t-94 -28.5q-53 0 -88 28.5t-35 75.5z" />
<glyph unicode="&#x4db;" d="M139 580h793q-8 143 -103.5 234t-261.5 91q-55 0 -107 -13t-96.5 -31.5t-80 -41t-56.5 -41.5l-67 127q82 66 193.5 105t242.5 39q123 0 217 -38t157.5 -109t96.5 -169t33 -221q0 -129 -36 -229.5t-103.5 -168t-164 -103.5t-214.5 -36q-86 0 -173 31t-154 102.5 t-101.5 186.5t-14.5 285zM254 1282q0 53 32 87t85 34q51 0 84 -34t33 -87q0 -49 -33 -83t-84 -34q-53 0 -85 34t-32 83zM297 436q0 -70 21.5 -129t62.5 -103t100 -68.5t137 -24.5q53 0 107.5 19.5t98.5 59t73 101t29 145.5h-629zM711 1282q0 53 31.5 87t83.5 34q53 0 87 -34 t34 -87q0 -49 -34 -83t-87 -34q-51 0 -83 34t-32 83z" />
<glyph unicode="&#x4dc;" d="M0 0l268 723l-231 711h178l195 -643h120v643h164v-643h103l225 643h168l-248 -701l287 -733h-189l-239 664h-107v-664h-164v664h-112l-242 -664h-176zM252 1638q0 47 36 77t93 30q53 0 89 -29.5t36 -77.5q0 -47 -36 -75.5t-89 -28.5q-57 0 -93 28.5t-36 75.5zM713 1638 q0 47 34.5 77t88.5 30q59 0 94 -29.5t35 -77.5q0 -47 -35 -75.5t-94 -28.5q-53 0 -88 28.5t-35 75.5z" />
<glyph unicode="&#x4dd;" d="M12 0l262 524l-235 500h178l186 -442h129v442h160v-442h111l217 442h168l-242 -475l271 -549h-183l-219 459h-123v-459h-160v459h-124l-220 -459h-176zM256 1282q0 53 32 87t85 34q51 0 84 -34t33 -87q0 -49 -33 -83t-84 -34q-53 0 -85 34t-32 83zM713 1282q0 53 31.5 87 t83.5 34q53 0 87 -34t34 -87q0 -49 -34 -83t-87 -34q-51 0 -83 34t-32 83z" />
<glyph unicode="&#x4de;" d="M164 49v2v324h151v-215q49 -16 110.5 -28.5t133.5 -12.5q156 0 251 73.5t95 221.5q0 129 -88 191.5t-233 72.5h-123v143h141q53 6 100.5 27.5t83 54.5t56 76t20.5 92q0 68 -23.5 114t-64.5 74.5t-98.5 42t-126.5 13.5q-59 0 -116.5 -8.5t-104.5 -20.5v-203h-152v303v3 q20 12 59 24t92.5 22.5t117 16.5t133.5 6q92 0 176 -17.5t148.5 -57.5t102 -108.5t37.5 -168.5q0 -102 -66.5 -195.5t-201.5 -134.5v-8q145 -20 228 -108.5t83 -235.5q0 -117 -45 -202t-119.5 -140t-169 -81t-192.5 -26q-141 0 -239.5 26t-155.5 48zM256 1638q0 47 36 77 t93 30q53 0 89 -29.5t36 -77.5q0 -47 -36 -75.5t-89 -28.5q-57 0 -93 28.5t-36 75.5zM717 1638q0 47 34.5 77t88.5 30q59 0 94 -29.5t35 -77.5q0 -47 -35 -75.5t-94 -28.5q-53 0 -88 28.5t-35 75.5z" />
<glyph unicode="&#x4df;" d="M162 145l82 129q23 -25 55.5 -52t80.5 -49.5t110.5 -38t144.5 -15.5q57 0 107.5 11t88 32.5t60 55.5t22.5 79q0 78 -70.5 119t-232.5 41h-116v133h145q41 0 82 13t73.5 34.5t53 51.5t20.5 63q0 41 -20.5 70.5t-56 48t-84 27.5t-101.5 9q-82 0 -143.5 -15t-104.5 -38v-170 h-139v244l-2 6q35 20 75 39.5t90 35t113.5 25.5t145.5 10q84 0 155.5 -17t125 -50t83 -81t29.5 -110q0 -33 -13 -68.5t-40 -68.5t-63.5 -59.5t-83.5 -40.5v-8q135 -23 189 -86.5t54 -167.5q0 -66 -30.5 -121t-91 -96t-149.5 -64.5t-208 -23.5q-88 0 -159.5 16t-126 40.5 t-92.5 53.5t-58 53zM245 1282q0 53 32 87t85 34q51 0 84 -34t33 -87q0 -49 -33 -83t-84 -34q-53 0 -85 34t-32 83zM702 1282q0 53 31.5 87t83.5 34q53 0 87 -34t34 -87q0 -49 -34 -83t-87 -34q-51 0 -83 34t-32 83z" />
<glyph unicode="&#x4e0;" d="M133 109v323h152v-237q57 -27 134 -47.5t175 -20.5q80 0 150.5 20.5t123 58.5t82 92t29.5 122q0 143 -109.5 210.5t-302.5 67.5h-118v113l372 471h-532v-223h-152v375h912v-109l-392 -491h21q102 0 188 -28t147.5 -79t95.5 -125t34 -166q0 -111 -42 -195.5t-116 -144 t-174 -90.5t-219 -31q-168 0 -286 43t-173 91z" />
<glyph unicode="&#x4e1;" d="M201 641v383h809v-147l-367 -474h33q94 0 172 -26.5t135 -75.5t89 -118.5t32 -157.5q0 -111 -37 -197t-103.5 -144.5t-158.5 -88t-205 -29.5q-51 0 -106.5 10t-107.5 28.5t-99 44t-84 56.5l2 4v291h139v-211q57 -35 126 -58.5t136 -23.5q164 0 251 81t87 218 q0 141 -99.5 201.5t-266.5 60.5h-132v99l367 510h-473v-236h-139z" />
<glyph unicode="&#x4e2;" d="M123 0v1434h170v-963l-10 -203h12l117 230l532 936h162v-1434h-170v950l12 205h-12l-119 -229l-532 -926h-162zM299 1599v127h647v-127h-647z" />
<glyph unicode="&#x4e3;" d="M174 0v1024h160v-662l-6 -129h8l571 791h148v-1024h-160v643l6 135h-6l-576 -778h-145zM321 1190v127h607v-127h-607z" />
<glyph unicode="&#x4e4;" d="M123 0v1434h170v-963l-10 -203h12l117 230l532 936h162v-1434h-170v950l12 205h-12l-119 -229l-532 -926h-162zM266 1638q0 47 36 77t93 30q53 0 89 -29.5t36 -77.5q0 -47 -36 -75.5t-89 -28.5q-57 0 -93 28.5t-36 75.5zM727 1638q0 47 34.5 77t88.5 30q59 0 94 -29.5 t35 -77.5q0 -47 -35 -75.5t-94 -28.5q-53 0 -88 28.5t-35 75.5z" />
<glyph unicode="&#x4e5;" d="M174 0v1024h160v-662l-6 -129h8l571 791h148v-1024h-160v643l6 135h-6l-576 -778h-145zM284 1282q0 53 32 87t85 34q51 0 84 -34t33 -87q0 -49 -33 -83t-84 -34q-53 0 -85 34t-32 83zM741 1282q0 53 31.5 87t83.5 34q53 0 87 -34t34 -87q0 -49 -34 -83t-87 -34 q-51 0 -83 34t-32 83z" />
<glyph unicode="&#x4e6;" d="M98 717q0 356 126 548.5t388 192.5q143 0 242.5 -53t161 -150.5t88 -233.5t26.5 -304q0 -356 -125.5 -549t-392.5 -193q-141 0 -239.5 53.5t-159.5 150.5t-88 233.5t-27 304.5zM258 1638q0 47 36 77t93 30q53 0 89 -29.5t36 -77.5q0 -47 -36 -75.5t-89 -28.5 q-57 0 -93 28.5t-36 75.5zM279 717q0 -119 15 -225.5t54 -187.5t102.5 -129t161.5 -48q176 0 257 143.5t81 446.5q0 117 -15 224.5t-54 188t-104.5 129t-164.5 48.5q-174 0 -253.5 -144.5t-79.5 -445.5zM719 1638q0 47 34.5 77t88.5 30q59 0 94 -29.5t35 -77.5 q0 -47 -35 -75.5t-94 -28.5q-53 0 -88 28.5t-35 75.5z" />
<glyph unicode="&#x4e7;" d="M117 512q0 248 129 392.5t368 144.5q129 0 222.5 -42t155 -114t91 -170t29.5 -211q0 -123 -32.5 -222.5t-96 -169t-157 -107.5t-212.5 -38q-127 0 -221 42t-155.5 114t-91 170t-29.5 211zM266 1282q0 53 32 87t85 34q51 0 84 -34t33 -87q0 -49 -33 -83t-84 -34 q-53 0 -85 34t-32 83zM287 512q0 -72 17.5 -143.5t56 -129t101 -92t152.5 -34.5q164 0 247 101t83 298q0 74 -17.5 144.5t-57.5 128t-102 92t-153 34.5q-164 0 -245.5 -100t-81.5 -299zM723 1282q0 53 31.5 87t83.5 34q53 0 87 -34t34 -87q0 -49 -34 -83t-87 -34 q-51 0 -83 34t-32 83z" />
<glyph unicode="&#x4e8;" d="M98 717q0 356 126 548.5t388 192.5q143 0 242.5 -53t161 -150.5t88 -233.5t26.5 -304q0 -356 -125.5 -549t-392.5 -193q-141 0 -239.5 53.5t-159.5 150.5t-88 233.5t-27 304.5zM279 651q4 -109 22 -204t57 -165.5t101.5 -112.5t152.5 -42q166 0 247 128t89 396h-669z M281 803h667q-6 104 -25.5 195.5t-58.5 160t-100.5 108.5t-151.5 40q-160 0 -240.5 -124t-90.5 -380z" />
<glyph unicode="&#x4e9;" d="M117 512q0 248 129 392.5t368 144.5q129 0 222.5 -42t155 -114t91 -170t29.5 -211q0 -123 -32.5 -222.5t-96 -169t-157 -107.5t-212.5 -38q-127 0 -221 42t-155.5 114t-91 170t-29.5 211zM289 444q6 -63 28.5 -123.5t61.5 -106.5t97 -73.5t138 -27.5q147 0 229.5 84 t96.5 247h-651zM289 575h651q-6 63 -28.5 125t-61.5 108t-97.5 74.5t-138.5 28.5q-301 0 -325 -336z" />
<glyph unicode="&#x4ea;" d="M98 717q0 356 126 548.5t388 192.5q143 0 242.5 -53t161 -150.5t88 -233.5t26.5 -304q0 -356 -125.5 -549t-392.5 -193q-141 0 -239.5 53.5t-159.5 150.5t-88 233.5t-27 304.5zM258 1638q0 47 36 77t93 30q53 0 89 -29.5t36 -77.5q0 -47 -36 -75.5t-89 -28.5 q-57 0 -93 28.5t-36 75.5zM279 651q4 -109 22 -204t57 -165.5t101.5 -112.5t152.5 -42q166 0 247 128t89 396h-669zM281 803h667q-6 104 -25.5 195.5t-58.5 160t-100.5 108.5t-151.5 40q-160 0 -240.5 -124t-90.5 -380zM719 1638q0 47 34.5 77t88.5 30q59 0 94 -29.5 t35 -77.5q0 -47 -35 -75.5t-94 -28.5q-53 0 -88 28.5t-35 75.5z" />
<glyph unicode="&#x4eb;" d="M117 512q0 248 129 392.5t368 144.5q129 0 222.5 -42t155 -114t91 -170t29.5 -211q0 -123 -32.5 -222.5t-96 -169t-157 -107.5t-212.5 -38q-127 0 -221 42t-155.5 114t-91 170t-29.5 211zM266 1282q0 53 32 87t85 34q51 0 84 -34t33 -87q0 -49 -33 -83t-84 -34 q-53 0 -85 34t-32 83zM289 444q6 -63 28.5 -123.5t61.5 -106.5t97 -73.5t138 -27.5q147 0 229.5 84t96.5 247h-651zM289 575h651q-6 63 -28.5 125t-61.5 108t-97.5 74.5t-138.5 28.5q-301 0 -325 -336zM723 1282q0 53 31.5 87t83.5 34q53 0 87 -34t34 -87q0 -49 -34 -83 t-87 -34q-51 0 -83 34t-32 83z" />
<glyph unicode="&#x4ec;" d="M123 63v304h151v-205q45 -16 101.5 -29.5t126.5 -13.5q80 0 157.5 28.5t139 92t99.5 166t38 251.5h-508v152h506q-4 133 -39 228.5t-94.5 156.5t-138 91t-173.5 30q-53 0 -98 -7.5t-84 -17.5v-215h-151v297l-2 6q63 37 156 58.5t200 21.5q131 0 240.5 -41t188.5 -130 t123 -230.5t44 -339.5q0 -201 -50 -342.5t-137.5 -230.5t-204 -129t-247.5 -40q-51 0 -103.5 9.5t-98.5 22.5t-84 28.5t-58 27.5zM170 1638q0 47 36 77t93 30q53 0 89 -29.5t36 -77.5q0 -47 -36 -75.5t-89 -28.5q-57 0 -93 28.5t-36 75.5zM631 1638q0 47 34.5 77t88.5 30 q59 0 94 -29.5t35 -77.5q0 -47 -35 -75.5t-94 -28.5q-53 0 -88 28.5t-35 75.5z" />
<glyph unicode="&#x4ed;" d="M154 113l67 127q59 -43 147.5 -82t198.5 -39q66 0 133.5 19.5t122 60.5t88 103.5t33.5 146.5h-485v135h483q-6 70 -34.5 130t-79 104t-121 68.5t-158.5 24.5q-59 0 -110.5 -9t-92.5 -25v-154h-139v250h4q72 37 164 56.5t219 19.5q117 0 211 -38t161.5 -107.5t104.5 -169 t37 -222.5q0 -127 -41 -227.5t-114.5 -169t-173 -104.5t-216.5 -36q-53 0 -112.5 10.5t-115.5 28t-103.5 43t-77.5 56.5zM239 1282q0 53 32 87t85 34q51 0 84 -34t33 -87q0 -49 -33 -83t-84 -34q-53 0 -85 34t-32 83zM696 1282q0 53 31.5 87t83.5 34q53 0 87 -34t34 -87 q0 -49 -34 -83t-87 -34q-51 0 -83 34t-32 83z" />
<glyph unicode="&#x4ee;" d="M61 1434h197l354 -852h131l250 852h174l-290 -932q-41 -141 -81 -239.5t-86 -159t-101.5 -87t-127.5 -26.5q-68 0 -107.5 11t-74.5 34l51 141q41 -23 76 -29t63 -6q57 0 110.5 67.5t88.5 221.5l-184 2zM291 1599v127h647v-127h-647z" />
<glyph unicode="&#x4ef;" d="M94 1024h185l358 -866h78l254 866h166l-285 -920q-23 -72 -46.5 -163t-66.5 -170.5t-116.5 -135t-192.5 -55.5q-27 0 -56.5 6t-58 15.5t-53 21.5t-37.5 25l58 147q12 -10 33.5 -20.5t47 -17.5t50 -12t41.5 -5q154 0 209 260h-138zM374 1190v127h607v-127h-607z" />
<glyph unicode="&#x4f0;" d="M61 1434h197l354 -852h131l250 852h174l-290 -932q-41 -141 -81 -239.5t-86 -159t-101.5 -87t-127.5 -26.5q-68 0 -107.5 11t-74.5 34l51 141q41 -23 76 -29t63 -6q57 0 110.5 67.5t88.5 221.5l-184 2zM272 1638q0 47 36 77t93 30q53 0 89 -29.5t36 -77.5 q0 -47 -36 -75.5t-89 -28.5q-57 0 -93 28.5t-36 75.5zM733 1638q0 47 34.5 77t88.5 30q59 0 94 -29.5t35 -77.5q0 -47 -35 -75.5t-94 -28.5q-53 0 -88 28.5t-35 75.5z" />
<glyph unicode="&#x4f1;" d="M94 1024h185l358 -866h78l254 866h166l-285 -920q-23 -72 -46.5 -163t-66.5 -170.5t-116.5 -135t-192.5 -55.5q-27 0 -56.5 6t-58 15.5t-53 21.5t-37.5 25l58 147q12 -10 33.5 -20.5t47 -17.5t50 -12t41.5 -5q154 0 209 260h-138zM288 1282q0 53 32 87t85 34q51 0 84 -34 t33 -87q0 -49 -33 -83t-84 -34q-53 0 -85 34t-32 83zM745 1282q0 53 31.5 87t83.5 34q53 0 87 -34t34 -87q0 -49 -34 -83t-87 -34q-51 0 -83 34t-32 83z" />
<glyph unicode="&#x4f2;" d="M61 1434h197l354 -852h131l250 852h174l-290 -932q-41 -141 -81 -239.5t-86 -159t-101.5 -87t-127.5 -26.5q-68 0 -107.5 11t-74.5 34l51 141q41 -23 76 -29t63 -6q57 0 110.5 67.5t88.5 221.5l-184 2zM369 1518l131 223h190v-33l-205 -190h-116zM623 1518l208 223h203 v-33l-293 -190h-118z" />
<glyph unicode="&#x4f3;" d="M94 1024h185l358 -866h78l254 866h166l-285 -920q-23 -72 -46.5 -163t-66.5 -170.5t-116.5 -135t-192.5 -55.5q-27 0 -56.5 6t-58 15.5t-53 21.5t-37.5 25l58 147q12 -10 33.5 -20.5t47 -17.5t50 -12t41.5 -5q154 0 209 260h-138zM461 1169l72 306h176l-162 -306h-86z M682 1169l150 306h211l-269 -306h-92z" />
<glyph unicode="&#x4f4;" d="M168 928v506h170v-476q0 -281 254 -280q96 0 180 25.5t137 68.5v662h170v-1434h-170v618q-55 -31 -145 -61.5t-207 -30.5q-86 0 -157.5 19.5t-123 65.5t-80 124t-28.5 193zM285 1638q0 47 36 77t93 30q53 0 89 -29.5t36 -77.5q0 -47 -36 -75.5t-89 -28.5q-57 0 -93 28.5 t-36 75.5zM746 1638q0 47 34.5 77t88.5 30q59 0 94 -29.5t35 -77.5q0 -47 -35 -75.5t-94 -28.5q-53 0 -88 28.5t-35 75.5z" />
<glyph unicode="&#x4f5;" d="M184 739v285h158v-272q0 -55 7 -102.5t29.5 -81t63.5 -52t109 -18.5q111 0 182.5 23.5t106.5 49.5v453h159v-1024h-159v434q-37 -23 -112 -48.5t-204 -25.5q-86 0 -149.5 17.5t-105.5 61.5t-63.5 117t-21.5 183zM245 1282q0 53 32 87t85 34q51 0 84 -34t33 -87 q0 -49 -33 -83t-84 -34q-53 0 -85 34t-32 83zM702 1282q0 53 31.5 87t83.5 34q53 0 87 -34t34 -87q0 -49 -34 -83t-87 -34q-51 0 -83 34t-32 83z" />
<glyph unicode="&#x4f6;" d="M143 0v152h197v1130h-197v152h983v-375h-151v223h-465v-1130h321v-398h-143v246h-545z" />
<glyph unicode="&#x4f7;" d="M147 0v137h254v748h-254v139h910v-383h-139v244h-357v-748h414v-383h-139v246h-689z" />
<glyph unicode="&#x4f8;" d="M102 10v1424h170v-539q14 4 51 11t85 7q76 0 149.5 -20.5t133 -71.5t96 -138t36.5 -218q0 -127 -32.5 -217t-92 -149.5t-143.5 -87t-184 -27.5q-27 0 -62 1t-71.5 4t-72.5 8t-63 13zM252 1638q0 47 36 77t93 30q53 0 89 -29.5t36 -77.5q0 -47 -36 -75.5t-89 -28.5 q-57 0 -93 28.5t-36 75.5zM272 150q16 -8 47 -11.5t64 -3.5q59 0 109.5 17.5t86 55.5t55 97.5t19.5 145.5q0 92 -21.5 152.5t-57 96t-84 49t-101.5 13.5q-35 0 -69.5 -5t-47.5 -14v-593zM713 1638q0 47 34.5 77t88.5 30q59 0 94 -29.5t35 -77.5q0 -47 -35 -75.5t-94 -28.5 q-53 0 -88 28.5t-35 75.5zM956 0v1434h170v-1434h-170z" />
<glyph unicode="&#x4f9;" d="M96 0v1024h164v-391q49 8 94 11t86 3q104 0 175 -23.5t114 -64.5t60.5 -97t17.5 -120q0 -186 -103.5 -270t-334.5 -84q-131 0 -273 12zM260 143q76 -12 146 -12q129 0 180 50t51 143q0 82 -50 135t-175 53q-35 0 -76 -2t-76 -12v-355zM260 1282q0 53 32 87t85 34 q51 0 84 -34t33 -87q0 -49 -33 -83t-84 -34q-53 0 -85 34t-32 83zM717 1282q0 53 31.5 87t83.5 34q53 0 87 -34t34 -87q0 -49 -34 -83t-87 -34q-51 0 -83 34t-32 83zM969 0v1024h164v-1024h-164z" />
<glyph unicode="&#x4fc;" d="M41 0l473 729l-432 705h205l286 -486l52 -96l49 96l305 486h188l-448 -691l287 -454q63 -100 108 -203.5t45 -222.5q0 -137 -67.5 -215t-212.5 -78h-32t-32 4v139q102 0 141 38t39 104q0 57 -14 108t-35.5 96t-45 84t-44.5 70l-188 301l-56 102l-53 -102l-328 -514h-190z " />
<glyph unicode="&#x4fd;" d="M94 0l424 524l-395 500h205l295 -385l303 385h184l-395 -492l198 -256q31 -41 64 -89t59.5 -100t43 -104.5t16.5 -101.5q0 -160 -87 -237.5t-235 -77.5q-16 0 -32.5 1t-30.5 3v139q117 0 169 35t52 127q0 41 -15.5 87t-38 90t-49 83t-47.5 68l-170 221l-331 -420h-187z " />
<glyph unicode="&#x510;" d="M135 403q0 139 80 237.5t225 121.5v8q-68 20 -117 56t-80.5 81t-48 96.5t-16.5 102.5q0 92 40 158.5t107.5 109.5t156.5 63.5t186 20.5q55 0 113.5 -9t112.5 -25.5t98 -38t71 -44.5v-266h-152v180q-59 23 -122.5 37.5t-122.5 14.5q-63 0 -118.5 -11.5t-97.5 -37 t-67 -67.5t-25 -101q0 -57 25 -101.5t65.5 -77t92 -53t104.5 -29.5q35 -4 82 -6t84 -2h33v-143h-113q-25 0 -46 -1t-44 -3q-145 -10 -235.5 -71.5t-90.5 -188.5q0 -74 32 -127.5t82 -89t114.5 -53t130.5 -17.5q78 0 147.5 15.5t126.5 43.5v181h152v-267q-61 -47 -172 -86 t-277 -39q-100 0 -193 26t-165 79t-115 133t-43 190z" />
<glyph unicode="&#x511;" d="M170 287q0 104 50 158.5t167 84.5v9q-86 29 -132 95t-46 150q0 127 107.5 190.5t293.5 63.5q57 0 115.5 -7t113 -19.5t99.5 -27.5t76 -34v-278h-148v190q-49 14 -106.5 23.5t-104.5 9.5q-141 0 -211.5 -33t-70.5 -112q0 -33 17.5 -64t46 -54.5t64.5 -37.5t72 -14h164 v-134h-139q-141 0 -202.5 -36.5t-61.5 -110.5q0 -78 75.5 -126t202.5 -48q51 0 109.5 10t114 27.5t102.5 39t76 46.5l57 -131q-29 -25 -77 -48.5t-108.5 -43t-126 -31.5t-126.5 -12q-227 0 -345 81.5t-118 223.5z" />
<glyph unicode="&#x512;" d="M16 10l27 148q20 -6 43 -6q35 0 69.5 22.5t67.5 83.5q29 55 53.5 147.5t44 233.5t32 336.5t18.5 458.5h696v-1489q0 -190 -65.5 -284.5t-208.5 -94.5q-16 0 -30.5 1t-31.5 3v139q57 0 91 15.5t50.5 50.5t20.5 90t4 135v1282h-367q-20 -410 -54 -681t-103 -423 q-45 -98 -105.5 -143t-132.5 -45t-119 20z" />
<glyph unicode="&#x513;" d="M70 10l24 137q25 -8 53 -8q41 0 74 35t57.5 132t41 269.5t22.5 448.5h692v-1079q0 -190 -65.5 -284.5t-208.5 -94.5q-16 0 -30.5 1t-31.5 3v139q57 0 91 17.5t52.5 53.5t23.5 91t5 129v881h-378q-6 -145 -17.5 -302t-43.5 -288t-89 -215t-154 -84q-39 0 -67.5 4t-50.5 14 z" />
<glyph unicode="&#x51c;" d="M31 1434h162l161 -1022l11 -133h14l29 145l151 559h135l142 -555l36 -152h11l12 140l152 1018h151l-221 -1434h-170l-166 582l-20 139h-7l-22 -141l-166 -580h-172z" />
<glyph unicode="&#x51d;" d="M20 1024h158l166 -799h12l199 574h139l205 -570h14l146 795h149l-200 -1024h-183l-196 565h-6l-205 -565h-182z" />
<glyph unicode="&#x524;" d="M143 0v1434h881v-1282h190v-398h-143v246h-217v1282h-541v-1282h-170z" />
<glyph unicode="&#x525;" d="M188 0v1024h852v-887h162v-383h-139v246h-182v885h-535v-885h-158z" />
<glyph unicode="&#x526;" d="M104 0v1434h170v-619q55 31 146.5 61.5t206.5 30.5q86 0 158.5 -19.5t124 -65.5t80 -123.5t28.5 -192.5v-354h188v-416h-143v264h-215v475q0 281 -254 281q-98 0 -182 -25.5t-138 -68.5v-662h-170z" />
<glyph unicode="&#x527;" d="M8 1296v138h320v-537h10q63 72 147 112t209 40q98 0 171 -20.5t119 -72t68.5 -140.5t22.5 -226v-453h162v-383h-139v246h-183v559q0 88 -10 153.5t-39.5 109.5t-81 66.5t-131.5 22.5q-55 0 -108 -19.5t-97.5 -53t-76 -81.5t-43.5 -106v-651h-158v1296h-162z" />
<glyph unicode="&#x1e30;" d="M174 0v1434h170v-639h154l460 639h197l-506 -682l570 -752h-215l-502 664h-158v-664h-170zM404 1540l241 242h234v-43l-334 -199h-141z" />
<glyph unicode="&#x1e31;" d="M49 1296v138h332v-848h113l403 438h193l-453 -485l373 -402h133v-137h-211l-438 463h-113v-463h-158v1296h-174zM518 1169l134 306h223l-244 -306h-113z" />
<glyph unicode="&#x1e3e;" d="M123 0v1434h158l340 -545h4l327 545h154v-1434h-170v952l20 195h-10l-98 -176l-209 -350h-51l-219 352l-95 174h-10l25 -193v-954h-166zM473 1540l241 242h234v-43l-334 -199h-141z" />
<glyph unicode="&#x1e3f;" d="M84 0v1024h106l31 -125h8q20 31 40 58.5t45.5 48t60.5 32t88 11.5q31 0 63.5 -9.5t60 -29t48 -52t27.5 -79.5q47 80 105 125t161 45q68 0 109.5 -22.5t65 -64.5t33 -100.5t9.5 -130.5v-731h-156v696q0 43 -4 81t-15.5 66.5t-30.5 45t-52 16.5q-72 0 -121 -57t-74 -164 v-684h-155v682q0 43 -3.5 83t-14.5 71.5t-32.5 50t-56.5 18.5q-70 0 -118 -57t-72 -143v-705h-156zM462 1169l134 306h223l-244 -306h-113z" />
<glyph unicode="&#x1e54;" d="M205 0v1419q78 18 168 24.5t178 6.5q94 0 191.5 -18.5t177 -67.5t130 -135t50.5 -219q0 -131 -47 -221.5t-125 -146.5t-178.5 -80.5t-206.5 -24.5h-34t-49.5 1t-50 3t-34.5 4v-545h-170zM375 696q10 -4 32.5 -5t47 -2t47 -1h33.5q70 0 138 13.5t123.5 48t89.5 98 t34 162.5q0 84 -32 140t-84 90t-117.5 48.5t-131.5 14.5q-53 0 -102.5 -2.5t-77.5 -10.5v-594zM445 1540l241 242h234v-43l-334 -199h-141z" />
<glyph unicode="&#x1e55;" d="M43 891v133h272l21 -143h10q55 72 140 120t208 48q219 0 330 -121t111 -396q0 -129 -38 -232t-107.5 -175t-168 -111t-217.5 -39q-43 0 -76.5 3.5t-61.5 8.5t-54.5 13t-57.5 20v-430h-157v1076q0 18 -1 47.5t-3.5 61.5t-5.5 62.5t-7 53.5h-137zM354 178q45 -31 101.5 -48 t148.5 -17q164 0 262.5 107.5t98.5 314.5q0 174 -68.5 269t-228.5 95q-61 0 -115.5 -22.5t-96.5 -59.5t-69 -82t-33 -90v-467zM460 1169l134 306h223l-244 -306h-113z" />
<glyph unicode="&#x1e9e;" d="M104 0v979q0 98 17.5 186t64.5 152.5t129 102.5t213 38q170 0 292 -50t212 -120l-387 -454h55q203 0 312.5 -108t109.5 -290q0 -221 -122.5 -341t-346.5 -120q-18 0 -51 2.5t-69.5 6.5t-71.5 11t-60 19l27 150q18 -12 48 -19.5t62.5 -12.5t63.5 -7t53 -2q133 0 210 80 t77 215q0 281 -352 280h-127v121l346 416q-18 16 -49 30.5t-70 26t-83 17.5t-89 6q-90 0 -140 -34t-72.5 -89t-27 -127t-4.5 -150v-915h-170z" />
<glyph unicode="&#x2000;" horiz-adv-x="937" />
<glyph unicode="&#x2001;" horiz-adv-x="1874" />
<glyph unicode="&#x2002;" horiz-adv-x="937" />
<glyph unicode="&#x2003;" horiz-adv-x="1874" />
<glyph unicode="&#x2004;" horiz-adv-x="624" />
<glyph unicode="&#x2005;" horiz-adv-x="468" />
<glyph unicode="&#x2006;" horiz-adv-x="312" />
<glyph unicode="&#x2007;" horiz-adv-x="312" />
<glyph unicode="&#x2008;" horiz-adv-x="234" />
<glyph unicode="&#x2009;" horiz-adv-x="374" />
<glyph unicode="&#x200a;" horiz-adv-x="104" />
<glyph unicode="&#x2010;" d="M264 514v152h701v-152h-701z" />
<glyph unicode="&#x2011;" d="M264 514v152h701v-152h-701z" />
<glyph unicode="&#x2012;" d="M264 514v152h701v-152h-701z" />
<glyph unicode="&#x2013;" d="M180 514v152h869v-152h-869z" />
<glyph unicode="&#x2014;" d="M16 514v152h1196v-152h-1196z" />
<glyph unicode="&#x2018;" d="M469 1257q0 82 23.5 142.5t57.5 101.5t70.5 64.5t65.5 33.5l62 -83q-57 -29 -99.5 -74t-42.5 -115q8 2 25 2q47 0 85 -35t38 -88q0 -55 -37 -88t-90 -33q-72 0 -115 43t-43 129z" />
<glyph unicode="&#x2019;" d="M475 1391q0 55 37 87.5t90 32.5q72 0 115 -43t43 -129q0 -82 -23.5 -142t-57.5 -101t-71 -64.5t-65 -34.5l-62 84q57 29 99.5 74t42.5 115q-8 -2 -25 -2q-47 0 -85 35t-38 88z" />
<glyph unicode="&#x201a;" d="M475 80q0 55 37 88t90 33q72 0 115 -43t43 -129q0 -82 -23.5 -142.5t-57.5 -101.5t-71 -64.5t-65 -33.5l-62 84q57 29 99.5 73.5t42.5 114.5q-8 -2 -25 -2q-47 0 -85 35t-38 88z" />
<glyph unicode="&#x201c;" d="M264 1257q0 82 23.5 142.5t57.5 101.5t71 64.5t65 33.5l62 -83q-57 -29 -99.5 -74t-42.5 -115q8 2 25 2q47 0 85 -35t38 -88q0 -55 -37 -88t-90 -33q-72 0 -115 43t-43 129zM674 1257q0 82 23.5 142.5t57 101.5t70.5 64.5t66 33.5l61 -83q-57 -29 -99 -74t-42 -115 q8 2 25 2q47 0 84.5 -35t37.5 -88q0 -55 -36.5 -88t-90.5 -33q-72 0 -114.5 43t-42.5 129z" />
<glyph unicode="&#x201d;" d="M270 1391q0 55 37 87.5t90 32.5q72 0 115 -43t43 -129q0 -82 -23.5 -142t-57.5 -101t-70.5 -64.5t-65.5 -34.5l-62 84q57 29 99.5 74t42.5 115q-8 -2 -25 -2q-47 0 -85 35t-38 88zM680 1391q0 55 37 87.5t90 32.5q72 0 115 -43t43 -129q0 -82 -23.5 -142t-57.5 -101 t-71 -64.5t-65 -34.5l-62 84q57 29 99 74t42 115q-8 -2 -24 -2q-47 0 -85 35t-38 88z" />
<glyph unicode="&#x201e;" d="M270 80q0 55 37 88t90 33q72 0 115 -43t43 -129q0 -82 -23.5 -142.5t-57.5 -101.5t-70.5 -64.5t-65.5 -33.5l-62 84q57 29 99.5 73.5t42.5 114.5q-8 -2 -25 -2q-47 0 -85 35t-38 88zM680 80q0 55 37 88t90 33q72 0 115 -43t43 -129q0 -82 -23.5 -142.5t-57.5 -101.5 t-71 -64.5t-65 -33.5l-62 84q57 29 99 73.5t42 114.5q-8 -2 -24 -2q-47 0 -85 35t-38 88z" />
<glyph unicode="&#x2020;" d="M199 881v147h333v406h164v-406h334v-147h-334v-881l-30 -410h-103l-31 412v879h-333z" />
<glyph unicode="&#x2021;" d="M199 356v148h333v377h-333v147h333v406h164v-406h334v-147h-334v-377h334v-148h-334v-356l-32 -410h-99l-33 412v354h-333z" />
<glyph unicode="&#x2022;" d="M330 637q0 63 22.5 115.5t60.5 90.5t90 58.5t111 20.5t111.5 -19.5t90.5 -56.5t60.5 -89t22.5 -120t-22.5 -120t-60.5 -89t-90 -56.5t-112 -19.5q-59 0 -111 19.5t-90 56.5t-60.5 89t-22.5 120z" />
<glyph unicode="&#x2026;" d="M-41 113q0 66 37 101.5t98 35.5q66 0 103 -36t37 -101q0 -59 -37 -98.5t-103 -39.5q-61 0 -98 39.5t-37 98.5zM477 113q0 66 37 101.5t98 35.5q66 0 103 -36t37 -101q0 -59 -37 -98.5t-103 -39.5q-61 0 -98 39.5t-37 98.5zM997 113q0 66 37 101.5t98 35.5q66 0 103 -36 t37 -101q0 -59 -37 -98.5t-103 -39.5q-61 0 -98 39.5t-37 98.5z" />
<glyph unicode="&#x202f;" horiz-adv-x="374" />
<glyph unicode="&#x2030;" d="M41 1151q0 162 62.5 234.5t158.5 72.5q47 0 87 -15.5t70 -51t47 -95t17 -145.5t-17 -144.5t-47 -94t-70 -51t-87 -15.5q-96 0 -158.5 67.5t-62.5 237.5zM61 653l983 430l39 -96l-983 -430zM164 1151q0 -111 27.5 -154t70.5 -43q45 0 71.5 39t26.5 158q0 115 -25.5 157 t-72.5 42t-72.5 -42t-25.5 -157zM236 305q0 162 62 234.5t159 72.5q47 0 87 -15t69.5 -51t47 -95.5t17.5 -145.5t-17.5 -144.5t-47 -94t-69.5 -51t-87 -15.5q-96 0 -158.5 67.5t-62.5 237.5zM358 305q0 -111 28 -153.5t71 -42.5q45 0 71.5 38.5t26.5 157.5q0 115 -25.5 157 t-72.5 42t-73 -42t-26 -157zM748 305q0 162 62 234.5t159 72.5q47 0 87 -15t69.5 -51t47 -95.5t17.5 -145.5t-17.5 -144.5t-47 -94t-69.5 -51t-87 -15.5q-96 0 -158.5 67.5t-62.5 237.5zM870 305q0 -111 28 -153.5t71 -42.5q45 0 71.5 38.5t26.5 157.5q0 115 -25.5 157 t-72.5 42t-73 -42t-26 -157z" />
<glyph unicode="&#x2039;" d="M348 541l400 520l118 -98l-319 -414l334 -408l-117 -100z" />
<glyph unicode="&#x203a;" d="M348 141l334 408l-320 414l119 98l400 -520l-416 -500z" />
<glyph unicode="&#x2044;" d="M61 49l998 1411l106 -71l-997 -1414z" />
<glyph unicode="&#x205f;" horiz-adv-x="468" />
<glyph unicode="&#x2081;" d="M262 453l340 202h115v-735h276v-125h-719v125h299v563l-256 -143z" />
<glyph unicode="&#x2082;" d="M233 -96q33 27 84.5 59.5t110.5 69.5t119.5 79t110 86t80 90t30.5 93q0 43 -17.5 72.5t-44 49t-58.5 28t-62 8.5q-47 0 -87 -11.5t-74 -28t-60.5 -36t-42.5 -33.5l-66 100q18 18 51 42t78 45.5t102.5 37t122.5 15.5q63 0 118.5 -17.5t95.5 -51.5t63.5 -84t23.5 -118 q0 -76 -42 -144.5t-109.5 -128.5t-149.5 -111.5t-161 -90.5h503v-129h-719v109z" />
<glyph unicode="&#x2083;" d="M145 -63l74 106q14 -16 43 -39.5t69 -46.5t91.5 -38t114.5 -15q98 0 155.5 39t57.5 114q0 66 -48.5 107t-152.5 41h-133v78l266 249h-467v123h647v-108l-264 -236v-4q137 -2 216 -70.5t79 -179.5q0 -125 -96.5 -200.5t-278.5 -75.5q-49 0 -104.5 11t-106.5 31.5t-94 49.5 t-68 64z" />
<glyph unicode="&#x2084;" d="M190 -8v114l484 549h133v-542h170v-121h-170v-197h-137v197h-480zM350 113h320v362z" />
<glyph unicode="&#x20ac;" d="M82 516l37 135h112q-2 18 -2 31.5v34.5v39t2 39h-149l37 135h129q25 137 77 237.5t126.5 165t167 95t196.5 30.5t180 -13t131 -36l-43 -149q-47 23 -110.5 35t-153.5 12q-68 0 -131 -20.5t-115.5 -66.5t-92.5 -118t-60 -172h577l-34 -135h-562q-2 -23 -2 -39.5v-38.5 v-33.5t2 -32.5h521l-35 -135h-471q37 -193 146.5 -291t283.5 -98q80 0 146.5 18.5t113.5 47.5l41 -134q-61 -47 -152.5 -65.5t-183.5 -18.5q-233 0 -379.5 133.5t-187.5 407.5h-162z" />
<glyph unicode="&#x20b4;" d="M195 514v135h837v-135h-469q-23 -23 -44 -51.5t-38.5 -61t-29 -66.5t-11.5 -65q0 -74 57.5 -112.5t192.5 -38.5q96 0 159.5 18.5t111.5 42.5l49 -131q-47 -29 -128 -51.5t-223 -22.5q-197 0 -293 73t-96 206q0 37 12.5 77t31 74.5t38 63.5t31.5 45h-188zM195 795v135h483 q51 51 79.5 117.5t28.5 130.5q0 72 -47 104.5t-164 32.5q-82 0 -138 -18.5t-103 -41.5l-51 138q29 14 59.5 25.5t68.5 20.5t85 14t110 5q174 0 262 -63.5t88 -192.5q0 -78 -30.5 -149.5t-75.5 -122.5h182v-135h-837z" />
<glyph unicode="&#x20b6;" d="M117 287v127h145v145h-145v129h145v731q78 18 167 24.5t177 6.5q94 0 185.5 -18.5t162 -67.5t113.5 -133t43 -215q0 -125 -41 -212t-116.5 -141.5t-180 -79t-229.5 -24.5h-111v-145h340v-127h-340v-287h-170v287h-145zM432 702h156q59 0 120.5 12.5t110.5 46.5t80 94 t31 159q0 84 -25.5 140t-68.5 90t-101.5 48.5t-124.5 14.5q-53 0 -101 -3.5t-77 -9.5v-592z" />
<glyph unicode="&#x20b7;" d="M117 287v127h145v145h-145v129h145v731q78 18 167 24.5t177 6.5q94 0 185.5 -18.5t162 -67.5t113.5 -133t43 -215q0 -125 -41 -212t-116.5 -141.5t-180 -79t-229.5 -24.5h-111v-145h340v-127h-340v-287h-170v287h-145zM432 702h156q59 0 120.5 12.5t110.5 46.5t80 94 t31 159q0 84 -25.5 140t-68.5 90t-101.5 48.5t-124.5 14.5q-53 0 -101 -3.5t-77 -9.5v-592z" />
<glyph unicode="&#x20b9;" d="M117 287v127h145v145h-145v129h145v731q78 18 167 24.5t177 6.5q94 0 185.5 -18.5t162 -67.5t113.5 -133t43 -215q0 -125 -41 -212t-116.5 -141.5t-180 -79t-229.5 -24.5h-111v-145h340v-127h-340v-287h-170v287h-145zM432 702h156q59 0 120.5 12.5t110.5 46.5t80 94 t31 159q0 84 -25.5 140t-68.5 90t-101.5 48.5t-124.5 14.5q-53 0 -101 -3.5t-77 -9.5v-592z" />
<glyph unicode="&#x20ba;" d="M117 287v127h145v145h-145v129h145v731q78 18 167 24.5t177 6.5q94 0 185.5 -18.5t162 -67.5t113.5 -133t43 -215q0 -125 -41 -212t-116.5 -141.5t-180 -79t-229.5 -24.5h-111v-145h340v-127h-340v-287h-170v287h-145zM432 702h156q59 0 120.5 12.5t110.5 46.5t80 94 t31 159q0 84 -25.5 140t-68.5 90t-101.5 48.5t-124.5 14.5q-53 0 -101 -3.5t-77 -9.5v-592z" />
<glyph unicode="&#x20bb;" d="M117 287v127h145v145h-145v129h145v731q78 18 167 24.5t177 6.5q94 0 185.5 -18.5t162 -67.5t113.5 -133t43 -215q0 -125 -41 -212t-116.5 -141.5t-180 -79t-229.5 -24.5h-111v-145h340v-127h-340v-287h-170v287h-145zM432 702h156q59 0 120.5 12.5t110.5 46.5t80 94 t31 159q0 84 -25.5 140t-68.5 90t-101.5 48.5t-124.5 14.5q-53 0 -101 -3.5t-77 -9.5v-592z" />
<glyph unicode="&#x20bc;" d="M117 287v127h145v145h-145v129h145v731q78 18 167 24.5t177 6.5q94 0 185.5 -18.5t162 -67.5t113.5 -133t43 -215q0 -125 -41 -212t-116.5 -141.5t-180 -79t-229.5 -24.5h-111v-145h340v-127h-340v-287h-170v287h-145zM432 702h156q59 0 120.5 12.5t110.5 46.5t80 94 t31 159q0 84 -25.5 140t-68.5 90t-101.5 48.5t-124.5 14.5q-53 0 -101 -3.5t-77 -9.5v-592z" />
<glyph unicode="&#x20bd;" d="M117 287v127h145v145h-145v129h145v731q78 18 167 24.5t177 6.5q94 0 185.5 -18.5t162 -67.5t113.5 -133t43 -215q0 -125 -41 -212t-116.5 -141.5t-180 -79t-229.5 -24.5h-111v-145h340v-127h-340v-287h-170v287h-145zM432 702h156q59 0 120.5 12.5t110.5 46.5t80 94 t31 159q0 84 -25.5 140t-68.5 90t-101.5 48.5t-124.5 14.5q-53 0 -101 -3.5t-77 -9.5v-592z" />
<glyph unicode="&#x20be;" d="M117 287v127h145v145h-145v129h145v731q78 18 167 24.5t177 6.5q94 0 185.5 -18.5t162 -67.5t113.5 -133t43 -215q0 -125 -41 -212t-116.5 -141.5t-180 -79t-229.5 -24.5h-111v-145h340v-127h-340v-287h-170v287h-145zM432 702h156q59 0 120.5 12.5t110.5 46.5t80 94 t31 159q0 84 -25.5 140t-68.5 90t-101.5 48.5t-124.5 14.5q-53 0 -101 -3.5t-77 -9.5v-592z" />
<glyph unicode="&#x20bf;" d="M117 287v127h145v145h-145v129h145v731q78 18 167 24.5t177 6.5q94 0 185.5 -18.5t162 -67.5t113.5 -133t43 -215q0 -125 -41 -212t-116.5 -141.5t-180 -79t-229.5 -24.5h-111v-145h340v-127h-340v-287h-170v287h-145zM432 702h156q59 0 120.5 12.5t110.5 46.5t80 94 t31 159q0 84 -25.5 140t-68.5 90t-101.5 48.5t-124.5 14.5q-53 0 -101 -3.5t-77 -9.5v-592z" />
<glyph unicode="&#x20c0;" d="M117 287v127h145v145h-145v129h145v731q78 18 167 24.5t177 6.5q94 0 185.5 -18.5t162 -67.5t113.5 -133t43 -215q0 -125 -41 -212t-116.5 -141.5t-180 -79t-229.5 -24.5h-111v-145h340v-127h-340v-287h-170v287h-145zM432 702h156q59 0 120.5 12.5t110.5 46.5t80 94 t31 159q0 84 -25.5 140t-68.5 90t-101.5 48.5t-124.5 14.5q-53 0 -101 -3.5t-77 -9.5v-592z" />
<glyph unicode="&#x20c1;" d="M117 287v127h145v145h-145v129h145v731q78 18 167 24.5t177 6.5q94 0 185.5 -18.5t162 -67.5t113.5 -133t43 -215q0 -125 -41 -212t-116.5 -141.5t-180 -79t-229.5 -24.5h-111v-145h340v-127h-340v-287h-170v287h-145zM432 702h156q59 0 120.5 12.5t110.5 46.5t80 94 t31 159q0 84 -25.5 140t-68.5 90t-101.5 48.5t-124.5 14.5q-53 0 -101 -3.5t-77 -9.5v-592z" />
<glyph unicode="&#x20c2;" d="M117 287v127h145v145h-145v129h145v731q78 18 167 24.5t177 6.5q94 0 185.5 -18.5t162 -67.5t113.5 -133t43 -215q0 -125 -41 -212t-116.5 -141.5t-180 -79t-229.5 -24.5h-111v-145h340v-127h-340v-287h-170v287h-145zM432 702h156q59 0 120.5 12.5t110.5 46.5t80 94 t31 159q0 84 -25.5 140t-68.5 90t-101.5 48.5t-124.5 14.5q-53 0 -101 -3.5t-77 -9.5v-592z" />
<glyph unicode="&#x20c3;" d="M117 287v127h145v145h-145v129h145v731q78 18 167 24.5t177 6.5q94 0 185.5 -18.5t162 -67.5t113.5 -133t43 -215q0 -125 -41 -212t-116.5 -141.5t-180 -79t-229.5 -24.5h-111v-145h340v-127h-340v-287h-170v287h-145zM432 702h156q59 0 120.5 12.5t110.5 46.5t80 94 t31 159q0 84 -25.5 140t-68.5 90t-101.5 48.5t-124.5 14.5q-53 0 -101 -3.5t-77 -9.5v-592z" />
<glyph unicode="&#x20c4;" d="M117 287v127h145v145h-145v129h145v731q78 18 167 24.5t177 6.5q94 0 185.5 -18.5t162 -67.5t113.5 -133t43 -215q0 -125 -41 -212t-116.5 -141.5t-180 -79t-229.5 -24.5h-111v-145h340v-127h-340v-287h-170v287h-145zM432 702h156q59 0 120.5 12.5t110.5 46.5t80 94 t31 159q0 84 -25.5 140t-68.5 90t-101.5 48.5t-124.5 14.5q-53 0 -101 -3.5t-77 -9.5v-592z" />
<glyph unicode="&#x20c5;" d="M117 287v127h145v145h-145v129h145v731q78 18 167 24.5t177 6.5q94 0 185.5 -18.5t162 -67.5t113.5 -133t43 -215q0 -125 -41 -212t-116.5 -141.5t-180 -79t-229.5 -24.5h-111v-145h340v-127h-340v-287h-170v287h-145zM432 702h156q59 0 120.5 12.5t110.5 46.5t80 94 t31 159q0 84 -25.5 140t-68.5 90t-101.5 48.5t-124.5 14.5q-53 0 -101 -3.5t-77 -9.5v-592z" />
<glyph unicode="&#x20c6;" d="M117 287v127h145v145h-145v129h145v731q78 18 167 24.5t177 6.5q94 0 185.5 -18.5t162 -67.5t113.5 -133t43 -215q0 -125 -41 -212t-116.5 -141.5t-180 -79t-229.5 -24.5h-111v-145h340v-127h-340v-287h-170v287h-145zM432 702h156q59 0 120.5 12.5t110.5 46.5t80 94 t31 159q0 84 -25.5 140t-68.5 90t-101.5 48.5t-124.5 14.5q-53 0 -101 -3.5t-77 -9.5v-592z" />
<glyph unicode="&#x20c7;" d="M117 287v127h145v145h-145v129h145v731q78 18 167 24.5t177 6.5q94 0 185.5 -18.5t162 -67.5t113.5 -133t43 -215q0 -125 -41 -212t-116.5 -141.5t-180 -79t-229.5 -24.5h-111v-145h340v-127h-340v-287h-170v287h-145zM432 702h156q59 0 120.5 12.5t110.5 46.5t80 94 t31 159q0 84 -25.5 140t-68.5 90t-101.5 48.5t-124.5 14.5q-53 0 -101 -3.5t-77 -9.5v-592z" />
<glyph unicode="&#x20c8;" d="M117 287v127h145v145h-145v129h145v731q78 18 167 24.5t177 6.5q94 0 185.5 -18.5t162 -67.5t113.5 -133t43 -215q0 -125 -41 -212t-116.5 -141.5t-180 -79t-229.5 -24.5h-111v-145h340v-127h-340v-287h-170v287h-145zM432 702h156q59 0 120.5 12.5t110.5 46.5t80 94 t31 159q0 84 -25.5 140t-68.5 90t-101.5 48.5t-124.5 14.5q-53 0 -101 -3.5t-77 -9.5v-592z" />
<glyph unicode="&#x20c9;" d="M117 287v127h145v145h-145v129h145v731q78 18 167 24.5t177 6.5q94 0 185.5 -18.5t162 -67.5t113.5 -133t43 -215q0 -125 -41 -212t-116.5 -141.5t-180 -79t-229.5 -24.5h-111v-145h340v-127h-340v-287h-170v287h-145zM432 702h156q59 0 120.5 12.5t110.5 46.5t80 94 t31 159q0 84 -25.5 140t-68.5 90t-101.5 48.5t-124.5 14.5q-53 0 -101 -3.5t-77 -9.5v-592z" />
<glyph unicode="&#x20ca;" d="M117 287v127h145v145h-145v129h145v731q78 18 167 24.5t177 6.5q94 0 185.5 -18.5t162 -67.5t113.5 -133t43 -215q0 -125 -41 -212t-116.5 -141.5t-180 -79t-229.5 -24.5h-111v-145h340v-127h-340v-287h-170v287h-145zM432 702h156q59 0 120.5 12.5t110.5 46.5t80 94 t31 159q0 84 -25.5 140t-68.5 90t-101.5 48.5t-124.5 14.5q-53 0 -101 -3.5t-77 -9.5v-592z" />
<glyph unicode="&#x20cb;" d="M117 287v127h145v145h-145v129h145v731q78 18 167 24.5t177 6.5q94 0 185.5 -18.5t162 -67.5t113.5 -133t43 -215q0 -125 -41 -212t-116.5 -141.5t-180 -79t-229.5 -24.5h-111v-145h340v-127h-340v-287h-170v287h-145zM432 702h156q59 0 120.5 12.5t110.5 46.5t80 94 t31 159q0 84 -25.5 140t-68.5 90t-101.5 48.5t-124.5 14.5q-53 0 -101 -3.5t-77 -9.5v-592z" />
<glyph unicode="&#x20cc;" d="M117 287v127h145v145h-145v129h145v731q78 18 167 24.5t177 6.5q94 0 185.5 -18.5t162 -67.5t113.5 -133t43 -215q0 -125 -41 -212t-116.5 -141.5t-180 -79t-229.5 -24.5h-111v-145h340v-127h-340v-287h-170v287h-145zM432 702h156q59 0 120.5 12.5t110.5 46.5t80 94 t31 159q0 84 -25.5 140t-68.5 90t-101.5 48.5t-124.5 14.5q-53 0 -101 -3.5t-77 -9.5v-592z" />
<glyph unicode="&#x20cd;" d="M117 287v127h145v145h-145v129h145v731q78 18 167 24.5t177 6.5q94 0 185.5 -18.5t162 -67.5t113.5 -133t43 -215q0 -125 -41 -212t-116.5 -141.5t-180 -79t-229.5 -24.5h-111v-145h340v-127h-340v-287h-170v287h-145zM432 702h156q59 0 120.5 12.5t110.5 46.5t80 94 t31 159q0 84 -25.5 140t-68.5 90t-101.5 48.5t-124.5 14.5q-53 0 -101 -3.5t-77 -9.5v-592z" />
<glyph unicode="&#x20ce;" d="M117 287v127h145v145h-145v129h145v731q78 18 167 24.5t177 6.5q94 0 185.5 -18.5t162 -67.5t113.5 -133t43 -215q0 -125 -41 -212t-116.5 -141.5t-180 -79t-229.5 -24.5h-111v-145h340v-127h-340v-287h-170v287h-145zM432 702h156q59 0 120.5 12.5t110.5 46.5t80 94 t31 159q0 84 -25.5 140t-68.5 90t-101.5 48.5t-124.5 14.5q-53 0 -101 -3.5t-77 -9.5v-592z" />
<glyph unicode="&#x20cf;" d="M117 287v127h145v145h-145v129h145v731q78 18 167 24.5t177 6.5q94 0 185.5 -18.5t162 -67.5t113.5 -133t43 -215q0 -125 -41 -212t-116.5 -141.5t-180 -79t-229.5 -24.5h-111v-145h340v-127h-340v-287h-170v287h-145zM432 702h156q59 0 120.5 12.5t110.5 46.5t80 94 t31 159q0 84 -25.5 140t-68.5 90t-101.5 48.5t-124.5 14.5q-53 0 -101 -3.5t-77 -9.5v-592z" />
<glyph unicode="&#x2113;" d="M272 446l174 152v520q0 90 20.5 154.5t56.5 105.5t84 60.5t104 19.5q98 0 161.5 -60.5t63.5 -183.5q0 -152 -82 -321.5t-268 -349.5v-287q0 -90 34.5 -124t84.5 -34q51 0 112.5 21.5t102.5 44.5l34 -103q-45 -29 -117.5 -57.5t-144.5 -28.5q-129 0 -187.5 62.5 t-58.5 195.5v213l-102 -90zM586 707q115 133 167 256.5t52 240.5q0 70 -28.5 100.5t-65.5 30.5q-25 0 -47.5 -7t-40 -28.5t-27.5 -59.5t-10 -99v-434z" />
<glyph unicode="&#x2116;" d="M8 0v1434h115l407 -963h11l-13 231v732h154v-1434h-113l-409 973h-8l10 -221v-752h-154zM756 1110q0 96 19.5 162.5t53 107.5t77.5 59.5t91 18.5t90 -16.5t77 -56t54.5 -106.5t20.5 -169q0 -100 -20.5 -166.5t-54.5 -106.5t-77 -56.5t-90 -16.5t-91 16.5t-77.5 56.5 t-53 106.5t-19.5 166.5zM801 535v147h399v-147h-399zM899 1110q0 -70 7 -113t20.5 -67.5t31 -32.5t39.5 -8q23 0 41.5 6t30.5 29.5t19.5 67.5t7.5 118q0 72 -7.5 116t-19.5 67.5t-30.5 31.5t-41.5 8t-41 -7t-30.5 -30.5t-19.5 -67.5t-7 -118z" />
<glyph unicode="&#x2122;" d="M47 1307v127h483v-127h-174v-611h-137v611h-172zM580 696v738h135l168 -295l161 295h136v-738h-123v342l8 211h-8l-166 -317h-31l-168 317h-6l14 -209v-344h-120z" />
<glyph unicode="&#x212e;" d="M84 530q0 121 38 224.5t107.5 179.5t167 119t215.5 43q127 0 224.5 -45t165 -122t102.5 -179.5t39 -219.5h-828v-370q127 -121 297 -121q254 0 396 246l71 -43q-88 -135 -202.5 -206t-264.5 -71q-121 0 -219 44t-166.5 120t-105.5 179.5t-37 221.5zM315 604h596v297 q-129 123 -301 123q-176 0 -295 -123v-297z" />
<glyph unicode="&#x2190;" d="M2 322v30q116 49 268 215h49q-39 -76 -57 -106.5t-69 -91.5h1034v-68h-1034q68 -70 129 -199h-52q-82 92 -143 141.5t-125 78.5z" />
<glyph unicode="&#x2191;" d="M381 551v49q166 154 217 268h29q31 -63 79 -124.5t142 -143.5v-51q-131 61 -201 129v-957h-65v957q-61 -49 -92 -68.5t-109 -58.5z" />
<glyph unicode="&#x2192;" d="M2 301v68h1034q-49 59 -68.5 91t-58.5 107h49q152 -166 269 -215v-30q-66 -29 -126.5 -78t-142.5 -142h-51q61 129 129 199h-1034z" />
<glyph unicode="&#x2193;" d="M381 -10v49q78 -39 108.5 -58.5t92.5 -68.5v956h65v-954q70 66 201 127v-51q-94 -82 -142.5 -142.5t-78.5 -126.5h-29q-51 119 -217 269z" />
<glyph unicode="&#x2194;" d="M2 322v28q61 29 118.5 75t143.5 144h53q-45 -113 -127 -202h846q-80 90 -125 202h52q88 -98 145.5 -144t118.5 -75v-28q-59 -29 -119.5 -76t-144.5 -144h-52q45 111 125 201h-846q82 -90 127 -201h-53q-84 96 -143.5 143.5t-118.5 76.5z" />
<glyph unicode="&#x2195;" d="M381 -12v51q113 -45 201 -125v846q-90 -82 -201 -127v51q96 84 143 143.5t74 120.5h31q55 -123 219 -264v-51q-111 45 -203 127v-846q90 80 203 125v-51q-162 -141 -219 -264h-31q-27 61 -75 120.5t-142 143.5z" />
<glyph unicode="&#x21a8;" d="M381 -12v51q113 -45 201 -125v846q-90 -82 -201 -127v51q96 84 143 143.5t74 120.5h31q55 -123 219 -264v-51q-111 45 -203 127v-846q90 80 203 125v-51q-162 -141 -219 -264h-31q-27 61 -75 120.5t-142 143.5zM383 -340h465v-61h-465v61z" />
<glyph unicode="&#x2202;" d="M150 373q0 123 34.5 242.5t103 215t171 154.5t237.5 59q86 0 127 -15t76 -44h10q-6 94 -46 158.5t-99 104.5t-131 58.5t-141 18.5h-21.5t-21.5 -2l30 135q139 0 251 -29.5t189.5 -101.5t118.5 -190.5t41 -296.5q0 -221 -40 -384t-110.5 -269.5t-170 -159t-215.5 -52.5 q-197 0 -295 103.5t-98 294.5zM319 362q0 -47 12.5 -91t41 -77.5t74 -54t110.5 -20.5q102 0 170 63.5t109 162.5t57 222t16 240q-37 43 -88 68.5t-137 25.5q-74 0 -140.5 -40t-116.5 -112.5t-79 -171t-29 -215.5z" />
<glyph unicode="&#x220f;" d="M92 -410v1844h1043v-1844h-170v1692h-703v-1692h-170z" />
<glyph unicode="&#x2211;" d="M150 -258l497 774l-497 766v152h927v-152h-739l493 -758l-505 -782h751v-152h-927v152z" />
<glyph unicode="&#x2212;" d="M139 618v148h951v-148h-951z" />
<glyph unicode="&#x2215;" d="M61 49l998 1411l106 -71l-997 -1414z" />
<glyph unicode="&#x221a;" d="M66 766v147h360l236 -596h4l342 1117h153l-463 -1457h-63l-322 789h-247z" />
<glyph unicode="&#x221e;" d="M90 709q0 184 68.5 289.5t181.5 105.5q104 0 171 -65.5t110 -166.5q59 123 129.5 177.5t156.5 54.5q104 0 167 -96.5t63 -276.5q0 -193 -70 -295t-186 -102q-49 0 -90 20.5t-75 55t-62 80t-48 96.5q-49 -121 -119.5 -186.5t-156.5 -65.5q-102 0 -171 100.5t-69 274.5z M223 715q0 -104 34 -179t99 -75q31 0 58.5 20.5t52.5 54t47.5 75.5t40.5 85q-16 57 -37.5 107.5t-47.5 89.5t-56.5 61.5t-67.5 22.5q-29 0 -52.5 -21.5t-38.5 -57.5t-23.5 -83t-8.5 -100zM674 760q14 -55 35.5 -109.5t48 -96.5t57.5 -67.5t66 -25.5q59 0 91 74.5t32 191.5 q0 47 -6.5 92t-20.5 80t-39 56.5t-59 21.5q-55 0 -106.5 -59.5t-98.5 -157.5z" />
<glyph unicode="&#x221f;" d="M2 0v1223h94v-1129h1131v-94h-1225z" />
<glyph unicode="&#x2229;" d="M174 0v993q0 176 124 310.5t316 134.5q190 0 315.5 -132t125.5 -313v-993h-131v956q0 156 -87 253.5t-223 97.5q-137 0 -223 -97.5t-86 -255.5v-954h-131z" />
<glyph unicode="&#x222a;" d="M174 445q0 -176 124 -310.5t316 -134.5q190 0 315.5 132t125.5 313v993h-131v-956q0 -156 -87 -253.5t-223 -97.5q-137 0 -223 97.5t-86 255.5v954h-131v-993z" />
<glyph unicode="&#x222b;" d="M168 -377l45 131q94 -37 186 -37q78 0 105.5 49.5t27.5 170.5v1214q0 160 68 233.5t215 73.5q70 0 133.5 -14t112.5 -35l-43 -131q-47 18 -93 27.5t-96 9.5q-78 0 -105.5 -47t-27.5 -168v-1219q0 -160 -67.5 -233.5t-212.5 -73.5q-72 0 -135.5 14.5t-112.5 34.5z" />
<glyph unicode="&#x2248;" d="M160 569q88 68 159.5 94.5t131.5 26.5q57 0 106 -17.5t94 -39t88 -38.5t90 -17q39 0 80 16t88 57l70 -125q-78 -53 -140.5 -74.5t-113.5 -21.5q-55 0 -101 17.5t-88 39t-84 39t-91 17.5q-47 0 -100.5 -21.5t-119.5 -75.5zM160 909q88 68 159.5 94.5t131.5 26.5 q57 0 106 -17.5t94 -39t88 -38.5t90 -17q39 0 80 16t88 57l70 -125q-78 -53 -140.5 -74.5t-113.5 -21.5q-55 0 -101 17.5t-88 39t-84 39t-91 17.5q-47 0 -100.5 -21.5t-119.5 -75.5z" />
<glyph unicode="&#x2260;" d="M180 449v147h318l86 192h-404v148h467l125 281h148l-125 -281h254v-148h-318l-86 -192h404v-147h-467l-138 -314h-147l137 314h-254z" />
<glyph unicode="&#x2261;" d="M141 219v131h946v-131h-946zM141 621v131h946v-131h-946zM141 1022v131h946v-131h-946z" />
<glyph unicode="&#x2264;" d="M180 872v60l774 473l78 -127l-610 -365l620 -370l-77 -123zM221 469l72 131l754 -432l-72 -129z" />
<glyph unicode="&#x2265;" d="M182 1282l78 123l784 -453v-59l-774 -473l-77 127l616 373zM215 166l752 440l75 -127l-749 -440z" />
<glyph unicode="&#x2302;" d="M162 0v672l450 389l455 -389v-672h-905zM293 131h643v479l-324 277l-319 -277v-479z" />
<glyph unicode="&#x2310;" d="M141 498v491h946v-131h-815v-360h-131z" />
<glyph unicode="&#x2320;" d="M541 -481v1851q0 197 83 319.5t212 122.5q61 0 99 -31.5t38 -78.5q0 -39 -25.5 -65.5t-62.5 -26.5q-31 0 -58 16l-39 43q-35 39 -49 39q-37 0 -45 -39q-6 -33 -6 -139v-2011h-147z" />
<glyph unicode="&#x2321;" d="M254 -371q0 39 25.5 65.5t62.5 26.5q31 0 58 -16l39 -43q35 -39 49 -39q37 0 45 39q6 33 6 139v2011h147v-1851q0 -197 -83 -319.5t-212 -122.5q-61 0 -99 31.5t-38 78.5z" />
<glyph unicode="&#x2500;" d="M0 623v155h1229v-155h-1229z" />
<glyph unicode="&#x2502;" d="M537 -481v2293h155v-2293h-155z" />
<glyph unicode="&#x250c;" d="M537 -481v1259h692v-155h-537v-1104h-155z" />
<glyph unicode="&#x2510;" d="M0 623v155h692v-1259h-155v1104h-537z" />
<glyph unicode="&#x2514;" d="M537 625v1187h155v-1032h537v-155h-692z" />
<glyph unicode="&#x2518;" d="M0 625v155h537v1032h155v-1187h-692z" />
<glyph unicode="&#x251c;" d="M537 -481v2293h155v-1034h537v-155h-537v-1104h-155z" />
<glyph unicode="&#x2524;" d="M0 623v155h537v1034h155v-2293h-155v1104h-537z" />
<glyph unicode="&#x252c;" d="M0 623v155h1229v-155h-537v-1104h-155v1104h-537z" />
<glyph unicode="&#x2534;" d="M0 623v155h537v1034h155v-1034h537v-155h-1229z" />
<glyph unicode="&#x253c;" d="M0 623v155h537v1034h155v-1034h537v-155h-537v-1104h-155v1104h-537z" />
<glyph unicode="&#x2550;" d="M0 467v156h1229v-156h-1229zM0 778v156h1229v-156h-1229z" />
<glyph unicode="&#x2551;" d="M381 -481v2293h156v-2293h-156zM692 -481v2293h156v-2293h-156z" />
<glyph unicode="&#x2552;" d="M537 -481v1415h692v-156h-537v-155h537v-156h-537v-948h-155z" />
<glyph unicode="&#x2553;" d="M381 -481v1259h848v-155h-381v-1104h-156v1104h-155v-1104h-156z" />
<glyph unicode="&#x2554;" d="M381 -481v1415h848v-156h-692v-1259h-156zM692 -481v1104h537v-156h-381v-948h-156z" />
<glyph unicode="&#x2555;" d="M0 467v156h537v155h-537v156h692v-1415h-155v948h-537z" />
<glyph unicode="&#x2556;" d="M0 623v155h848v-1259h-156v1104h-155v-1104h-156v1104h-381z" />
<glyph unicode="&#x2557;" d="M0 467v156h537v-1104h-156v948h-381zM0 778v156h848v-1415h-156v1259h-692z" />
<glyph unicode="&#x2558;" d="M537 467v1345h155v-878h537v-156h-537v-155h537v-156h-692z" />
<glyph unicode="&#x2559;" d="M381 623v1189h156v-1034h155v1034h156v-1034h381v-155h-848z" />
<glyph unicode="&#x255a;" d="M381 467v1345h156v-1189h692v-156h-848zM692 778v1034h156v-878h381v-156h-537z" />
<glyph unicode="&#x255b;" d="M0 467v156h537v155h-537v156h537v878h155v-1345h-692z" />
<glyph unicode="&#x255c;" d="M0 623v155h381v1034h156v-1034h155v1034h156v-1189h-848z" />
<glyph unicode="&#x255d;" d="M0 467v156h692v1189h156v-1345h-848zM0 778v156h381v878h156v-1034h-537z" />
<glyph unicode="&#x255e;" d="M537 -481v2293h155v-876h537v-156h-537v-155h537v-156h-537v-950h-155z" />
<glyph unicode="&#x255f;" d="M381 -481v2293h156v-2293h-156zM692 -481v2293h156v-1034h381v-155h-381v-1104h-156z" />
<glyph unicode="&#x2560;" d="M381 -481v2293h156v-2293h-156zM692 -481v1104h537v-156h-381v-948h-156zM692 778v1034h156v-878h381v-156h-537z" />
<glyph unicode="&#x2561;" d="M0 467v156h537v155h-537v156h537v878h155v-2293h-155v948h-537z" />
<glyph unicode="&#x2562;" d="M0 623v155h381v1034h156v-2293h-156v1104h-381zM692 -481v2293h156v-2293h-156z" />
<glyph unicode="&#x2563;" d="M0 467v156h537v-1104h-156v948h-381zM0 778v156h381v878h156v-1032zM692 -481v2293h156v-2293h-156z" />
<glyph unicode="&#x2564;" d="M0 467v156h1229v-156h-537v-948h-155v948h-537zM0 778v156h1229v-156h-1229z" />
<glyph unicode="&#x2565;" d="M0 623v155h1229v-155h-381v-1104h-156v1104h-155v-1104h-156v1104h-381z" />
<glyph unicode="&#x2566;" d="M0 467v156h537v-1104h-156v948h-381zM0 778v156h1229v-156h-1229zM692 -481v1104h537v-156h-381v-948h-156z" />
<glyph unicode="&#x2567;" d="M0 467v156h1229v-156h-1229zM0 778v156h537v878h155v-878h537v-156h-1229z" />
<glyph unicode="&#x2568;" d="M0 623v155h381v1034h156v-1034h155v1034h156v-1034h381v-155h-1229z" />
<glyph unicode="&#x2569;" d="M0 467v156h1229v-156h-1229zM0 778v156h381v878h156v-1034h-537zM692 778v1034h156v-878h381v-156h-537z" />
<glyph unicode="&#x256a;" d="M0 467v156h537v155h-537v156h537v878h155v-878h537v-156h-537v-155h537v-156h-537v-948h-155v948h-537z" />
<glyph unicode="&#x256b;" d="M0 623v155h381v1034h156v-1034h155v1034h156v-1034h381v-155h-381v-1104h-156v1104h-155v-1104h-156v1104h-381z" />
<glyph unicode="&#x256c;" d="M0 467v156h537v-1104h-156v948h-381zM0 778v156h381v878h156v-1034h-537zM692 -481v1104h537v-156h-381v-948h-156zM692 778v1034h156v-878h381v-156h-537z" />
<glyph unicode="&#x2580;" d="M0 702v1110h1229v-1110h-1229z" />
<glyph unicode="&#x2584;" d="M0 -481v1183h1229v-1183h-1229z" />
<glyph unicode="&#x2588;" d="M0 -481v2293h1229v-2293h-1229z" />
<glyph unicode="&#x258c;" d="M0 -481v2293h614v-2293h-614z" />
<glyph unicode="&#x2590;" d="M614 -481v2293h615v-2293h-615z" />
<glyph unicode="&#x2591;" d="M102 -78h103v-98h-103v98zM102 203v98h103v-98h-103zM102 582v96h103v-96h-103zM102 961v96h103v-96h-103zM102 1339v97h103v-97h-103zM102 1718v94h103v-94h-103zM307 14v97h103v-97h-103zM307 -268h103v-97h-103v97zM307 393v96h103v-96h-103zM307 770v98h103v-98h-103 zM307 1149v96h103v-96h-103zM307 1528v96h103v-96h-103zM512 -78h102v-98h-102v98zM512 203v98h102v-98h-102zM512 582v96h102v-96h-102zM512 961v96h102v-96h-102zM512 1339v97h102v-97h-102zM512 1718v94h102v-94h-102zM717 14v97h102v-97h-102zM717 -268h102v-97h-102v97 zM717 393v96h102v-96h-102zM717 770v98h102v-98h-102zM717 1149v96h102v-96h-102zM717 1528v96h102v-96h-102zM922 -78h102v-98h-102v98zM922 203v98h102v-98h-102zM922 582v96h102v-96h-102zM922 961v96h102v-96h-102zM922 1339v97h102v-97h-102zM922 1718v94h102v-94h-102 zM1126 14v97h103v-97h-103zM1126 -268h103v-97h-103v97zM1126 393v96h103v-96h-103zM1126 770v98h103v-98h-103zM1126 1149v96h103v-96h-103zM1126 1528v96h103v-96h-103z" />
<glyph unicode="&#x2592;" d="M0 14v97h102v-97h-102zM0 -268h102v-97h-102v97zM0 393v96h102v-96h-102zM0 770v98h102v-98h-102zM0 1149v96h102v-96h-102zM0 1528v96h102v-96h-102zM102 -78h103v-98h-103v98zM102 203v98h103v-98h-103zM102 582v96h103v-96h-103zM102 961v96h103v-96h-103zM102 1339 v97h103v-97h-103zM102 1718v94h103v-94h-103zM205 14v97h102v-97h-102zM205 -268h102v-97h-102v97zM205 393v96h102v-96h-102zM205 770v98h102v-98h-102zM205 1149v96h102v-96h-102zM205 1528v96h102v-96h-102zM307 -78h103v-98h-103v98zM307 203v98h103v-98h-103zM307 582 v96h103v-96h-103zM307 961v96h103v-96h-103zM307 1339v97h103v-97h-103zM307 1718v94h103v-94h-103zM410 14v97h102v-97h-102zM410 -268h102v-97h-102v97zM410 393v96h102v-96h-102zM410 770v98h102v-98h-102zM410 1149v96h102v-96h-102zM410 1528v96h102v-96h-102zM512 -78 h102v-98h-102v98zM512 203v98h102v-98h-102zM512 582v96h102v-96h-102zM512 961v96h102v-96h-102zM512 1339v97h102v-97h-102zM512 1718v94h102v-94h-102zM614 14v97h103v-97h-103zM614 -268h103v-97h-103v97zM614 393v96h103v-96h-103zM614 770v98h103v-98h-103zM614 1149 v96h103v-96h-103zM614 1528v96h103v-96h-103zM717 -78h102v-98h-102v98zM717 203v98h102v-98h-102zM717 582v96h102v-96h-102zM717 961v96h102v-96h-102zM717 1339v97h102v-97h-102zM717 1718v94h102v-94h-102zM819 14v97h103v-97h-103zM819 -268h103v-97h-103v97zM819 393 v96h103v-96h-103zM819 770v98h103v-98h-103zM819 1149v96h103v-96h-103zM819 1528v96h103v-96h-103zM922 -78h102v-98h-102v98zM922 203v98h102v-98h-102zM922 582v96h102v-96h-102zM922 961v96h102v-96h-102zM922 1339v97h102v-97h-102zM922 1718v94h102v-94h-102zM1024 14 v97h102v-97h-102zM1024 -268h102v-97h-102v97zM1024 393v96h102v-96h-102zM1024 770v98h102v-98h-102zM1024 1149v96h102v-96h-102zM1024 1528v96h102v-96h-102zM1126 -78h103v-98h-103v98zM1126 203v98h103v-98h-103zM1126 582v96h103v-96h-103zM1126 961v96h103v-96h-103z M1126 1339v97h103v-97h-103zM1126 1718v94h103v-94h-103z" />
<glyph unicode="&#x2593;" d="M0 16v283h102v96h-102v281h102v98h-102v281h102v96h-102v283h102v96h-102v282h1229v-94h-103v-94h103v-283h-103v-96h103v-282h-103v-97h103v-282h-103v-97h103v-280h-103v-98h103v-281h-103v-98h103v-211h-1229v22h102v97h-102v282h102v96h-102zM102 109h103v98h-103 v-98zM102 -172v-98h103v98h-103zM102 487h103v97h-103v-97zM102 866h103v97h-103v-97zM102 1245h103v96h-103v-96zM102 1624h103v94h-103v-94zM205 16v-96h102v96h-102zM205 299h102v96h-102v-96zM205 -362v-97h102v97h-102zM205 676h102v98h-102v-98zM205 1055h102v96h-102 v-96zM205 1434h102v96h-102v-96zM307 109h103v98h-103v-98zM307 -172v-98h103v98h-103zM307 487h103v97h-103v-97zM307 866h103v97h-103v-97zM307 1245h103v96h-103v-96zM307 1624h103v94h-103v-94zM410 16v-96h102v96h-102zM410 299h102v96h-102v-96zM410 -362v-97h102v97 h-102zM410 676h102v98h-102v-98zM410 1055h102v96h-102v-96zM410 1434h102v96h-102v-96zM512 109h102v98h-102v-98zM512 -172v-98h102v98h-102zM512 487h102v97h-102v-97zM512 866h102v97h-102v-97zM512 1245h102v96h-102v-96zM512 1624h102v94h-102v-94zM614 16v-96h103v96 h-103zM614 299h103v96h-103v-96zM614 -362v-97h103v97h-103zM614 676h103v98h-103v-98zM614 1055h103v96h-103v-96zM614 1434h103v96h-103v-96zM717 109h102v98h-102v-98zM717 -172v-98h102v98h-102zM717 487h102v97h-102v-97zM717 866h102v97h-102v-97zM717 1245h102v96 h-102v-96zM717 1624h102v94h-102v-94zM819 16v-96h103v96h-103zM819 299h103v96h-103v-96zM819 -362v-97h103v97h-103zM819 676h103v98h-103v-98zM819 1055h103v96h-103v-96zM819 1434h103v96h-103v-96zM922 109h102v98h-102v-98zM922 -172v-98h102v98h-102zM922 487h102v97 h-102v-97zM922 866h102v97h-102v-97zM922 1245h102v96h-102v-96zM922 1624h102v94h-102v-94zM1024 16v-96h102v96h-102zM1024 299h102v96h-102v-96zM1024 -362v-97h102v97h-102zM1024 676h102v98h-102v-98zM1024 1055h102v96h-102v-96zM1024 1434h102v96h-102v-96z" />
<glyph unicode="&#x25a0;" d="M2 0v1225h1225v-1225h-1225z" />
<glyph unicode="&#x25a1;" d="M2 0v1225h1225v-1225h-1225zM78 76h1073v1073h-1073v-1073z" />
<glyph unicode="&#x25aa;" d="M360 383v508h508v-508h-508z" />
<glyph unicode="&#x25ab;" d="M360 383v508h508v-508h-508zM436 459h357v356h-357v-356z" />
<glyph unicode="&#x25ac;" d="M2 395v232h1225v-232h-1225z" />
<glyph unicode="&#x25b2;" d="M14 0l600 1198l598 -1198h-1198z" />
<glyph unicode="&#x25ba;" d="M2 -27v1223l1225 -610z" />
<glyph unicode="&#x25bc;" d="M14 1171h1198l-598 -1198z" />
<glyph unicode="&#x25c4;" d="M2 586l1225 610v-1223z" />
<glyph unicode="&#x25ca;" d="M168 700l410 756h67l416 -745l-416 -734h-67zM340 723l283 -516h2l266 483l-281 516h-4z" />
<glyph unicode="&#x25cb;" d="M174 578q0 115 59.5 220t164.5 162.5t216 57.5t217.5 -57.5t165 -163t58.5 -219.5q0 -182 -129 -311.5t-312 -129.5q-182 0 -311 129t-129 312zM250 578q0 -152 107.5 -258.5t256.5 -106.5q152 0 258.5 106.5t106.5 258.5q0 94 -49 182t-136.5 135t-179.5 47t-179 -47 t-136 -135t-49 -182z" />
<glyph unicode="&#x25cf;" d="M174 578q0 115 59.5 220t164.5 162.5t216 57.5t217.5 -57.5t165 -163t58.5 -219.5q0 -182 -129 -311.5t-312 -129.5q-182 0 -311 129t-129 312z" />
<glyph unicode="&#x25d8;" d="M125 0v981h979v-981h-979zM412 489q0 -82 59 -141t143 -59t142.5 59.5t58.5 140.5q0 84 -58.5 143.5t-142.5 59.5t-143 -59.5t-59 -143.5z" />
<glyph unicode="&#x25d9;" d="M39 0v1155h1155v-1155h-1155zM174 578q0 -182 129 -311.5t311 -129.5q184 0 313.5 129t129.5 312q0 115 -59.5 220t-165 162.5t-218.5 57.5q-111 0 -216 -57.5t-164.5 -163t-59.5 -219.5zM252 578q0 96 48 183t136 134t180 47q90 0 178.5 -47t137.5 -134t49 -183 q0 -152 -106.5 -258.5t-258.5 -106.5t-258 106.5t-106 258.5z" />
<glyph unicode="&#x25e6;" d="M367 637q0 102 72.5 175t174.5 73t175 -73t73 -175t-72.5 -175t-175.5 -73q-102 0 -174.5 73t-72.5 175zM442 637q0 -72 50.5 -122t121.5 -50q70 0 121 50t51 122t-51 122t-121 50q-72 0 -122 -51t-50 -121z" />
<glyph unicode="&#x25fc;" horiz-adv-x="1024" d="M0 0v1024h1024v-1024h-1024z" />
<glyph unicode="&#x263a;" d="M2 584q0 254 179 433t433 179t433.5 -179t179.5 -433q0 -252 -179.5 -431.5t-433.5 -179.5t-433 179.5t-179 431.5zM92 584q0 -215 152.5 -369t369.5 -154t370 154t153 369q0 217 -153 370.5t-370 153.5t-369.5 -153.5t-152.5 -370.5zM303 711q0 33 22.5 55t55.5 22 q31 0 54.5 -22t23.5 -55q0 -31 -23.5 -54.5t-54.5 -23.5q-33 0 -55.5 23.5t-22.5 54.5zM332 387l59 35q78 -137 223 -137t222 137l59 -35q-96 -186 -281 -186q-94 0 -163.5 48t-118.5 138zM770 711q0 33 23.5 55t56.5 22q31 0 53.5 -22t22.5 -55q0 -31 -22.5 -54.5 t-53.5 -23.5q-33 0 -56.5 23.5t-23.5 54.5z" />
<glyph unicode="&#x263b;" d="M2 584q0 254 179 433t433 179t433.5 -179t179.5 -433q0 -252 -179.5 -431.5t-433.5 -179.5t-433 179.5t-179 431.5zM303 711q0 -31 22.5 -54.5t55.5 -23.5q31 0 54.5 23.5t23.5 54.5q0 33 -23.5 55t-54.5 22q-33 0 -55.5 -22.5t-22.5 -54.5zM332 387q49 -90 118.5 -138 t163.5 -48q92 0 163 47t118 139l-59 35q-76 -137 -222 -137q-145 0 -223 137zM770 711q0 -31 23.5 -54.5t56.5 -23.5q31 0 53.5 23.5t22.5 54.5q0 33 -22.5 55t-53.5 22q-33 0 -56.5 -22.5t-23.5 -54.5z" />
<glyph unicode="&#x263c;" d="M2 440v62h215q12 127 92 223l-182 184l43 49l188 -182q115 78 224 90v217h65v-217q66 -6 117 -26.5t108 -63.5l187 182l45 -45l-184 -184q88 -117 92 -229h215v-62h-215q-14 -121 -92 -221l184 -188l-49 -43l-183 182q-61 -45 -109 -64.5t-116 -27.5v-217h-65v217 q-125 18 -222 90l-188 -180l-45 45l184 184q-80 100 -94 225h-215zM281 471q0 -137 97 -234.5t234 -97.5q139 0 236.5 97.5t97.5 234.5t-97.5 235.5t-236.5 98.5q-137 0 -234 -98.5t-97 -235.5z" />
<glyph unicode="&#x2640;" d="M322 342v70h258v166q-111 14 -181.5 96t-70.5 188q0 121 85 206t203 85q117 0 202 -85t85 -206q0 -109 -70.5 -189.5t-179.5 -94.5v-166h256v-70h-256v-262h-73v262h-258zM410 864q0 -86 60 -146.5t144 -60.5q86 0 146.5 60.5t60.5 146.5q0 84 -60.5 144.5t-146.5 60.5 q-84 0 -144 -60.5t-60 -144.5z" />
<glyph unicode="&#x2642;" d="M184 535q0 121 85 205.5t206 84.5q72 0 154 -43l241 242q-35 8 -108 37q-55 20 -82 49q-8 8 -8 18q0 8 6 17q4 4 14 4t33 -4q63 -16 127 -17q92 0 129 12.5t49 12.5q8 0 12.5 -3t4.5 -11t-7 -27q-16 -68 -16 -158q0 -61 12 -129q4 -23 4 -32q0 -8 -4 -15q-8 -6 -14 -6 q-18 0 -41 39q-43 84 -63 166l-238 -238q84 -80 84 -190q0 -125 -85 -212t-206 -87t-205 84t-84 201zM262 539q0 -88 62.5 -150.5t150.5 -62.5t149.5 61.5t61.5 151.5q0 88 -61.5 149.5t-149.5 61.5q-90 0 -151.5 -61.5t-61.5 -149.5z" />
<glyph unicode="&#x2660;" d="M127 494q0 74 33 133q45 84 157 174q139 115 218 229q54 82 79 201q27 -109 81.5 -194t192.5 -210t175 -192.5t37 -136.5q0 -94 -63.5 -159t-153.5 -65q-158 0 -256 191q2 -147 38.5 -233.5t118.5 -136.5t220 -58l8 -37h-793l6 37q125 0 211 50t131 139t41 239 q-45 -94 -111.5 -142.5t-148.5 -48.5q-90 0 -155.5 66t-65.5 154z" />
<glyph unicode="&#x2663;" d="M2 549q0 115 74 194.5t166 79.5q59 0 161 -51q-41 68 -53 103.5t-12 76.5q0 115 78 193t196 78q117 0 197 -79t80 -188q0 -88 -70 -184q84 39 101 43q27 8 61 8q100 0 173 -77.5t73 -192.5q0 -119 -80 -200t-193 -81q-61 0 -127.5 30t-115.5 81q-35 37 -86 125 q4 -160 48 -251t136 -153q61 -39 219 -69l8 -35h-841l8 35q166 35 219 67q80 51 131 150.5t51 208.5q0 14 -2 47q-59 -123 -146 -180.5t-177 -57.5q-117 0 -197 81t-80 198z" />
<glyph unicode="&#x2665;" d="M109 899q0 104 68.5 174t170.5 70q100 0 176 -72q57 -55 92 -162q33 119 105 177.5t160 58.5q100 0 169.5 -69.5t69.5 -164.5q0 -84 -40 -174t-158 -239q-152 -193 -214.5 -302.5t-91.5 -218.5q-29 109 -83 206.5t-205 297.5q-113 150 -140 191q-43 63 -61 117.5 t-18 109.5z" />
<glyph unicode="&#x2666;" d="M160 600q100 115 258 326q116 156 194 297q90 -152 228.5 -336.5t230.5 -286.5q-76 -80 -242 -301q-137 -182 -215 -324q-27 51 -69 115q-76 113 -197 272q-29 41 -188 238z" />
<glyph unicode="&#x266a;" d="M270 127q0 78 59.5 136.5t143.5 58.5q23 0 45 -5.5t45 -13.5v850h76v-100l154 -193q51 -70 79.5 -151.5t28.5 -165.5q0 -154 -94 -271h-47q57 129 57 248t-57.5 199t-120.5 90v-506q0 -125 -72.5 -199.5t-181.5 -74.5q-55 0 -85 27.5t-30 70.5z" />
</font>
</defs>
</svg>
