<svg
   xmlns:dc="http://purl.org/dc/elements/1.1/"
   xmlns:cc="http://creativecommons.org/ns#"
   xmlns:rdf="http://www.w3.org/1999/02/22-rdf-syntax-ns#"
   xmlns:svg="http://www.w3.org/2000/svg"
   xmlns="http://www.w3.org/2000/svg"
   version="1.1"
   width="50.484001"
   height="77.923996"
   id="svg3028">
  <defs
     id="defs3030" />
  <metadata
     id="metadata3033">
    <rdf:RDF>
      <cc:Work
         rdf:about="">
        <dc:format>image/svg+xml</dc:format>
        <dc:type
           rdf:resource="http://purl.org/dc/dcmitype/StillImage" />
        <dc:title></dc:title>
      </cc:Work>
    </rdf:RDF>
  </metadata>
  <g
     transform="translate(-349.75799,-493.40019)"
     id="layer1">
    <g
       id="text2985"
       style="font-size:28px;font-style:normal;font-variant:normal;font-weight:bold;font-stretch:normal;text-align:start;line-height:100%;letter-spacing:0px;word-spacing:0px;writing-mode:tb-rl;text-anchor:start;fill:#80ff80;fill-opacity:1;stroke:none;font-family:'M+ 1p';-inkscape-font-specification:'M+ 1p Bold'">
      <path
         d="m 379.63399,496.84419 0,-3.444 17.92,0 0,3.444 c -1.30668,2.91201 -3.11735,5.65601 -5.432,8.232 2.98665,2.688 5.59998,5.152 7.84,7.392 l -2.576,2.548 c -2.72535,-2.72533 -5.31068,-5.19866 -7.756,-7.42 -3.22934,2.98667 -6.82267,5.404 -10.78,7.252 l -1.68,-3.08 c 3.752,-1.848 6.99999,-4.04133 9.744,-6.58 2.74399,-2.53866 4.89999,-5.31999 6.468,-8.344 l -13.748,0"
         id="path3048" />
      <path
         d="m 380.94999,520.28019 3.92,0 0,7.84 c 4.85332,1.17601 9.93065,2.73467 15.232,4.676 l -1.176,3.528 c -4.66668,-1.736 -9.35201,-3.19199 -14.056,-4.368 l 0,11.452 -3.92,0 0,-23.128"
         id="path3050" />
      <path
         d="m 377.00199,558.72419 c 3.95733,-0.54132 7.80266,-1.69866 11.536,-3.472 3.75199,-1.79199 6.88798,-3.94798 9.408,-6.468 l 2.296,2.632 c -2.20269,2.18401 -4.90002,4.14401 -8.092,5.88 l 0,14.028 -4.032,0 0,-12.096 c -3.45334,1.45601 -6.96267,2.436 -10.528,2.94 l -0.588,-3.444"
         id="path3052" />
      <path
         d="m 349.75799,496.84419 0,-3.276 22.68,0 0,3.276 c -0.54135,1.82935 -1.48402,3.57468 -2.828,5.236 -1.32535,1.64268 -2.88402,2.97734 -4.676,4.004 l -2.184,-2.884 c 2.94932,-1.77332 4.84398,-3.89199 5.684,-6.356 l -18.676,0 m 7.28,2.24 3.752,0 c -10e-6,3.26668 -0.25201,5.90801 -0.756,7.924 -0.48534,2.016 -1.26934,3.65867 -2.352,4.928 -1.08267,1.25067 -2.62267,2.34266 -4.62,3.276 l -1.932,-2.996 c 2.296,-1.08267 3.85466,-2.52 4.676,-4.312 0.82133,-1.81066 1.23199,-4.75066 1.232,-8.82"
         id="path3054" />
      <path
         d="m 350.17799,524.28419 1.792,-3.36 c 2.81866,1.34402 5.71199,2.84668 8.68,4.508 l -1.876,3.304 c -2.50134,-1.39999 -5.36667,-2.88399 -8.596,-4.452 m 18.9,-0.672 3.556,0.784 c -0.98935,5.54401 -3.22935,9.80934 -6.72,12.796 -3.49068,2.98667 -8.34401,4.75066 -14.56,5.292 l -0.56,-3.64 c 5.41333,-0.52267 9.56666,-1.99733 12.46,-4.424 2.91198,-2.44533 4.85332,-6.04799 5.824,-10.808"
         id="path3056" />
    </g>
  </g>
</svg>
